<?xml version="1.0" encoding="utf-8"?>
<!-- Generator: Adobe Illustrator 26.4.1, SVG Export Plug-In . SVG Version: 6.00 Build 0)  -->
<svg version="1.1" id="Capa_1" xmlns="http://www.w3.org/2000/svg" xmlns:xlink="http://www.w3.org/1999/xlink" x="0px" y="0px"
	 viewBox="0 0 113 100" style="enable-background:new 0 0 113 100;" xml:space="preserve">
<style type="text/css">
	.st0{fill:#0045F5;}
</style>
<g>
	<path class="st0" d="M108,62.6c0-0.2,0-0.3,0-0.5c0-1.1-0.6-1.7-1.7-1.8c-0.6-0.1-1.1-0.1-1.6-0.1c0-0.2-0.1-0.2-0.1-0.3
		c0-3.7,0-7.4,0-11.1c0-1.7-0.6-2.3-2.4-2.4c-0.9,0-1.8,0-2.8,0c0-0.9,0-1.8,0-2.6c-0.1-0.7,0.2-1,0.9-1.3c3.3-1.1,5.4-3.4,5.8-6.9
		c0.5-3.7-0.9-6.7-4.2-8.7c-0.7-0.4-1-0.9-1.2-1.6c-0.9-3.9-4.4-6.5-8.6-6.4c-3.7,0-7.2,2.8-8,6.6c-0.1,0.7-0.4,1.1-1,1.4
		c-5.4,3-5.9,10.6-0.9,14.2c1,0.7,2.2,1.2,3.3,1.8c0,1.1,0,2.2,0,3.4c-0.9,0-1.7,0-2.5,0c-2.1,0-2.6,0.5-2.6,2.6c0,3.2,0,6.4,0,9.6
		c0,0.5,0,1,0,1.5c-4,0-8,0-12,0c0-0.4,0-0.8,0-1.2c0-3.3,0-6.6,0-9.9c0-2.1-0.5-2.6-2.7-2.6c-1.4,0-2.7,0-4.1,0c-1.1,0-2.3,0-3.4,0
		c0-1.7,0-3.4,0-5c0.1-0.1,0.2-0.1,0.2-0.1c0.5,0,1,0,1.5,0c5-0.2,8.7-2.5,10.9-7.1c1.3-2.7,1.1-5.6,1-8.5c0-1.1-0.8-1.6-2-1.6
		c-1,0-2.1,0-3.1,0c-2.6,0-5,0.7-7.2,2.3c-1.2,0.9-2.4,1.9-3.6,2.9c0.1,0.2-0.1-0.1-0.2-0.3c-1.1-1.6-2.6-2.7-4.3-3.6
		c-2.9-1.5-6-1.4-9-1.2c-1.1,0.1-1.6,0.8-1.6,2c0,1.3,0,2.5,0,3.8c0.3,5.4,3.9,9.8,9.2,11c1.4,0.3,2.9,0.3,4.4,0.5c0,1.6,0,3.2,0,5
		c-0.4,0-0.8,0-1.1,0c-2.2,0-4.4,0-6.6,0c-1.9,0-2.5,0.6-2.5,2.5c0,3.4,0,6.8,0,10.2c0,0.4,0,0.7,0,1.1c-3.5,0-6.9,0-10.3,0
		c0-0.5,0-0.8,0-1.2c0-3.5,0-7,0-10.5c0-1.3-0.6-1.9-1.9-2c-0.5,0-0.9,0-1.5,0c-0.3-2.2-0.3-2.2,1.3-3.2c5-3.4,4.8-11.3-0.4-14.3
		c-0.8-0.5-1.2-1-1.4-1.9c-0.9-3.7-4.5-6.4-8.2-6.3c-4.2,0.1-7.6,2.8-8.3,6.6c-0.1,0.7-0.5,1.1-1.1,1.4c-1.9,1-3.2,2.6-3.9,4.7
		c-1.3,4,0.3,8,4,10.2c0.3,0.2,0.6,0.5,0.7,0.8c0.1,0.6,0,1.2,0,1.9c-0.3,0-0.5,0.1-0.6,0.1c-2.5,0.1-2.8,0.4-2.8,2.9
		c0,3.3,0,6.6,0,10c0,0.7-0.2,1-0.9,0.9c-0.8-0.1-1.6,0-2.4,0C5.6,60.4,5,61,5,62.2c0,0.1,0,0.2,0,0.4h0v16.6h8.6
		c0.1,1.2,0.8,1.7,2.2,1.7c5.4,0,10.8,0,16.2,0c1.4,0,2-0.5,2.2-1.7h44.7c0.1,1.1,0.7,1.7,1.9,1.7c5.6,0,11.1,0,16.7,0
		c1.2,0,1.8-0.6,1.9-1.7h8.6L108,62.6L108,62.6z M18.9,73.2c0,0.4-0.1,0.7-0.3,0.9c-0.2,0.2-0.5,0.4-0.9,0.4c-0.4,0-0.7-0.1-0.9-0.3
		c-0.2-0.2-0.3-0.5-0.3-0.9v-2.8h-4.1v2.8c0,0.4-0.1,0.7-0.3,0.9c-0.2,0.2-0.5,0.4-0.9,0.4c-0.4,0-0.7-0.1-0.9-0.3
		c-0.2-0.2-0.3-0.5-0.3-0.9v-7.6c0-0.4,0.1-0.7,0.3-0.9c0.2-0.2,0.5-0.3,0.9-0.3c0.4,0,0.7,0.1,0.9,0.3c0.2,0.2,0.3,0.5,0.3,0.9v2.7
		h4.1v-2.7c0-0.4,0.1-0.7,0.3-0.9c0.2-0.2,0.5-0.3,0.9-0.3c0.4,0,0.7,0.1,0.9,0.3c0.2,0.2,0.3,0.5,0.3,0.9V73.2z M20.5,46.4
		c-1.1,0-2.2,0-3.4,0c0-0.9,0-1.9,0-2.9c0-1.5-0.3-1.9-1.7-2.5c-2.1-0.8-3.5-2.7-3.5-4.8c0-2.2,1.4-4.1,3.6-4.8c1-0.4,1.6-1,1.6-2.1
		c0.1-2.9,2.2-5,5-5.1c2.7-0.1,5.1,2.1,5.2,4.9c0.1,1.3,0.6,2,1.8,2.4c2.1,0.7,3.3,2.6,3.3,4.8c0,2.1-1.2,3.9-3.2,4.7
		c-1.8,0.7-1.9,0.9-1.9,2.8c0,0.9,0,1.7,0,2.7c-1.1,0-2.2,0-3.4,0c0-2.4,0-4.8,0-7.2c0-0.2,0.3-0.6,0.6-0.7c1.2-0.8,2.4-1.6,3.8-2.5
		c-0.6-1-1.2-1.9-1.9-2.8c-0.8,0.5-1.5,1-2.4,1.6c0-1.2,0-2.3,0-3.5c-1.2,0-2.3,0-3.5,0c0,1.1,0,2.3,0,3.6c-0.9-0.6-1.7-1.1-2.5-1.6
		C17.3,34.1,16.7,35,16,36c1.2,0.8,2.4,1.7,3.7,2.4c0.5,0.3,0.8,0.7,0.8,1.4C20.4,42,20.5,44.2,20.5,46.4z M23.3,73.2
		c0,0.4-0.1,0.7-0.4,0.9c-0.2,0.2-0.6,0.3-1,0.3c-0.4,0-0.7-0.1-0.9-0.3c-0.2-0.2-0.3-0.5-0.3-0.9v-7.6c0-0.4,0.1-0.7,0.3-0.9
		c0.2-0.2,0.5-0.3,0.9-0.3c0.4,0,0.7,0.1,1,0.3c0.2,0.2,0.4,0.5,0.4,0.9V73.2z M23.9,55.1C23.9,55.1,23.9,55.1,23.9,55.1
		c-1.1,0-2.2,0-3.4,0c0-1.1,0-2.2,0-3.3c1.1,0,2.2,0,3.4,0C23.9,52.8,23.9,54,23.9,55.1C23.9,55.1,24,55.1,23.9,55.1L23.9,55.1
		C24,55.1,24,55.1,23.9,55.1c1.1,0,2.2,0,3.3,0c0,1.2,0,2.2,0,3.4c-1.1,0-2.1,0-3.3,0C24,57.4,24,56.2,23.9,55.1
		C24,55.1,23.9,55.1,23.9,55.1z M33.9,72.1c-0.4,0.8-1,1.3-1.8,1.7c-0.8,0.4-1.8,0.6-2.9,0.6h-2.9c-0.4,0-0.7-0.1-0.9-0.3
		c-0.2-0.2-0.3-0.5-0.3-0.9v-7.6c0-0.4,0.1-0.7,0.3-0.9c0.2-0.2,0.5-0.3,0.9-0.3h2.9c1.1,0,2.1,0.2,2.9,0.6c0.8,0.4,1.4,1,1.8,1.7
		c0.4,0.7,0.6,1.6,0.6,2.7C34.5,70.5,34.3,71.4,33.9,72.1z M44.4,74.2c-0.3,0.2-0.5,0.3-0.9,0.3c-0.2,0-0.4-0.1-0.6-0.2
		c-0.2-0.1-0.4-0.3-0.5-0.5l-1.8-2.7c-0.1-0.2-0.3-0.3-0.4-0.4c-0.1-0.1-0.3-0.1-0.5-0.1h-0.9v2.5c0,0.4-0.1,0.7-0.3,0.9
		c-0.2,0.2-0.5,0.3-0.9,0.3c-0.4,0-0.7-0.1-0.9-0.3c-0.2-0.2-0.3-0.5-0.3-0.9v-7.6c0-0.4,0.1-0.7,0.3-0.9c0.2-0.2,0.5-0.3,0.9-0.3
		h3.6c1.2,0,2.1,0.3,2.7,0.8c0.6,0.5,0.9,1.3,0.9,2.3c0,0.8-0.2,1.4-0.6,1.9c-0.4,0.5-1,0.9-1.8,1.1c0.3,0,0.6,0.2,0.8,0.3
		c0.2,0.2,0.5,0.4,0.7,0.7l0.9,1.3c0.2,0.3,0.3,0.5,0.3,0.7C44.7,73.8,44.6,74,44.4,74.2z M85.3,39.2c-1.9-0.8-3.1-2.8-3-4.8
		c0.1-2.1,1.4-3.9,3.4-4.6c1.2-0.4,1.8-1.1,1.8-2.4c0.1-2.7,2.3-4.8,5-4.8c2.8,0,5,2,5.1,5c0.1,1.3,0.7,1.9,1.8,2.3
		c2.3,0.8,3.5,2.7,3.3,5.1c-0.1,2.2-1.6,4-3.9,4.6c-1.8,0.4-3.3,0-4.6-1.2c-1.4-1.3-2-1.3-3.4,0C89.2,39.7,87.3,40.1,85.3,39.2z
		 M92.5,55.1L92.5,55.1C92.5,55.1,92.5,55.1,92.5,55.1c-0.1,1.1-0.1,2.1-0.2,3.3c-1.1,0-2.2,0-3.3,0c0-1.1,0-2.1,0-3.3
		C90.2,55.1,91.3,55.1,92.5,55.1C92.5,55.1,92.5,55.1,92.5,55.1C92.5,55.1,92.5,55.1,92.5,55.1c-0.1-1.1-0.1-2.2-0.2-3.4
		c1.2,0,2.3,0,3.4,0c0,1.1,0,2.1,0,3.4C94.7,55.1,93.6,55.1,92.5,55.1C92.5,55.1,92.5,55.1,92.5,55.1z M89.2,46.5c0-1.2,0-2.3,0-3.4
		c1-0.5,2-1,3-1.4c0.2-0.1,0.6-0.1,0.9,0c0.9,0.4,1.9,0.9,2.9,1.4c0,1,0,2.2,0,3.4C93.6,46.5,91.4,46.5,89.2,46.5z M68.4,27.8
		c0.9,6.2-3.9,11-10,10.1C57.4,31.6,62.2,26.9,68.4,27.8z M54.6,37.8c-5.7,0.9-10.8-3.2-10.1-10.1C50.8,26.9,55.6,31.7,54.6,37.8z
		 M51.4,51.7c1.1,0,2.2,0,3.4,0c0,1.1,0,2.2,0,3.3c1.2,0,2.2,0,3.4,0c0-1.1,0-2.2,0-3.3c1.2,0,2.3,0,3.4,0c0,1.1,0,2.1,0,3.3
		c-1.1,0-2.2,0-3.4,0c0,1.2,0,2.3,0,3.4c-1.2,0-2.2,0-3.4,0c0-1.1,0-2.2,0-3.4c-1.2,0-2.3,0-3.4,0C51.4,54,51.4,52.9,51.4,51.7z
		 M55.2,72.1c-0.4,0.8-1,1.4-1.7,1.8c-0.8,0.4-1.6,0.6-2.6,0.6c-1,0-1.9-0.2-2.7-0.6c-0.8-0.4-1.3-1-1.7-1.8
		c-0.4-0.8-0.6-1.7-0.6-2.7c0-1,0.2-1.9,0.6-2.7c0.4-0.8,1-1.4,1.7-1.8c0.8-0.4,1.6-0.6,2.7-0.6c1,0,1.9,0.2,2.7,0.6
		c0.8,0.4,1.3,1,1.7,1.8c0.4,0.8,0.6,1.7,0.6,2.7C55.8,70.5,55.6,71.4,55.2,72.1z M66.2,72.2c0,0.5,0,0.8-0.1,1.1
		c-0.1,0.3-0.2,0.4-0.4,0.6c-0.2,0.1-0.5,0.3-0.8,0.4c-0.4,0.1-0.8,0.2-1.2,0.2c-0.4,0.1-0.9,0.1-1.3,0.1c-1.1,0-2-0.2-2.8-0.6
		c-0.8-0.4-1.4-1-1.8-1.8c-0.4-0.8-0.6-1.7-0.6-2.7c0-1,0.2-1.9,0.6-2.7c0.4-0.8,1-1.4,1.8-1.8c0.8-0.4,1.7-0.6,2.8-0.6
		c0.7,0,1.3,0.1,1.8,0.2c0.5,0.2,1,0.4,1.5,0.7c0.2,0.1,0.3,0.2,0.3,0.4c0.1,0.1,0.1,0.3,0.1,0.5c0,0.3-0.1,0.5-0.2,0.7
		c-0.2,0.2-0.4,0.3-0.6,0.3c-0.2,0-0.3,0-0.4-0.1c-0.1,0-0.2-0.1-0.4-0.2c-0.3-0.2-0.7-0.3-1-0.4c-0.3-0.1-0.6-0.1-1-0.1
		c-0.9,0-1.6,0.3-2,0.8c-0.4,0.5-0.7,1.3-0.7,2.3c0,1.1,0.2,1.9,0.7,2.4c0.5,0.5,1.2,0.8,2.1,0.8c0.5,0,0.9,0,1.3-0.1v-1.9h-1
		c-0.3,0-0.6-0.1-0.7-0.2c-0.2-0.2-0.3-0.4-0.3-0.7s0.1-0.5,0.3-0.7c0.2-0.2,0.4-0.2,0.7-0.2h2.3c0.3,0,0.6,0.1,0.7,0.3
		c0.2,0.2,0.3,0.4,0.3,0.7V72.2z M76.2,74.2c-0.3,0.2-0.5,0.3-0.9,0.3c-0.2,0-0.4-0.1-0.6-0.2c-0.2-0.1-0.4-0.3-0.5-0.5l-1.8-2.7
		c-0.1-0.2-0.3-0.3-0.4-0.4c-0.1-0.1-0.3-0.1-0.5-0.1h-0.9v2.5c0,0.4-0.1,0.7-0.3,0.9c-0.2,0.2-0.5,0.3-0.9,0.3
		c-0.4,0-0.7-0.1-0.9-0.3c-0.2-0.2-0.3-0.5-0.3-0.9v-7.6c0-0.4,0.1-0.7,0.3-0.9c0.2-0.2,0.5-0.3,0.9-0.3h3.6c1.2,0,2.1,0.3,2.7,0.8
		c0.6,0.5,0.9,1.3,0.9,2.3c0,0.8-0.2,1.4-0.6,1.9c-0.4,0.5-1,0.9-1.8,1.1c0.3,0,0.6,0.2,0.8,0.3c0.2,0.2,0.5,0.4,0.7,0.7l0.9,1.3
		c0.2,0.3,0.3,0.5,0.3,0.7C76.5,73.8,76.4,74,76.2,74.2z M87,72.1c-0.4,0.8-1,1.4-1.7,1.8c-0.8,0.4-1.6,0.6-2.6,0.6
		c-1,0-1.9-0.2-2.7-0.6c-0.8-0.4-1.3-1-1.7-1.8c-0.4-0.8-0.6-1.7-0.6-2.7c0-1,0.2-1.9,0.6-2.7c0.4-0.8,1-1.4,1.7-1.8
		c0.8-0.4,1.6-0.6,2.7-0.6c1,0,1.9,0.2,2.7,0.6c0.8,0.4,1.3,1,1.7,1.8c0.4,0.8,0.6,1.7,0.6,2.7C87.6,70.5,87.4,71.4,87,72.1z
		 M103.3,66l-2.9,7.7c-0.1,0.3-0.3,0.5-0.5,0.6c-0.3,0.1-0.5,0.2-0.8,0.2c-0.3,0-0.6-0.1-0.8-0.2c-0.2-0.1-0.4-0.4-0.5-0.6l-1.8-5.3
		L94,73.7c-0.1,0.3-0.3,0.5-0.5,0.6c-0.2,0.1-0.5,0.2-0.8,0.2c-0.3,0-0.6-0.1-0.8-0.2c-0.2-0.1-0.4-0.4-0.5-0.6L88.4,66
		c-0.1-0.2-0.1-0.4-0.1-0.5c0-0.3,0.1-0.6,0.4-0.8c0.3-0.2,0.5-0.3,0.9-0.3c0.3,0,0.5,0.1,0.7,0.2c0.2,0.1,0.4,0.3,0.5,0.6l1.9,5.6
		l2.1-5.6c0.1-0.3,0.2-0.5,0.5-0.6c0.2-0.1,0.4-0.2,0.7-0.2s0.5,0.1,0.7,0.2c0.2,0.1,0.4,0.4,0.5,0.6l1.9,5.7l2-5.7
		c0.1-0.3,0.2-0.5,0.5-0.6c0.2-0.1,0.4-0.2,0.7-0.2c0.3,0,0.6,0.1,0.8,0.3c0.2,0.2,0.3,0.5,0.3,0.8C103.4,65.6,103.3,65.8,103.3,66z
		"/>
	<path class="st0" d="M41.7,66.7c-0.3-0.2-0.7-0.3-1.2-0.3h-1.8v2.3h1.8c0.6,0,1-0.1,1.2-0.3c0.3-0.2,0.4-0.5,0.4-0.9
		C42.1,67.2,41.9,66.9,41.7,66.7z"/>
	<path class="st0" d="M29,66.5h-1.3v5.8H29c1,0,1.7-0.2,2.2-0.7c0.5-0.5,0.7-1.2,0.7-2.2c0-1-0.2-1.7-0.7-2.2
		C30.7,66.8,30,66.5,29,66.5z"/>
	<path class="st0" d="M82.6,66.3c-0.8,0-1.3,0.3-1.8,0.8s-0.6,1.3-0.6,2.3c0,1,0.2,1.8,0.6,2.3c0.4,0.5,1,0.8,1.8,0.8
		c0.8,0,1.3-0.3,1.8-0.8c0.4-0.5,0.6-1.3,0.6-2.3c0-1-0.2-1.8-0.6-2.3C83.9,66.6,83.3,66.3,82.6,66.3z"/>
	<path class="st0" d="M73.5,66.7c-0.3-0.2-0.7-0.3-1.2-0.3h-1.8v2.3h1.8c0.6,0,1-0.1,1.2-0.3c0.3-0.2,0.4-0.5,0.4-0.9
		C73.8,67.2,73.7,66.9,73.5,66.7z"/>
	<path class="st0" d="M50.8,66.3c-0.8,0-1.3,0.3-1.8,0.8s-0.6,1.3-0.6,2.3c0,1,0.2,1.8,0.6,2.3c0.4,0.5,1,0.8,1.8,0.8
		c0.8,0,1.3-0.3,1.8-0.8c0.4-0.5,0.6-1.3,0.6-2.3c0-1-0.2-1.8-0.6-2.3C52.1,66.6,51.5,66.3,50.8,66.3z"/>
</g>
</svg>
