<svg xmlns="http://www.w3.org/2000/svg" xmlns:xlink="http://www.w3.org/1999/xlink" width="39" height="39" viewBox="0 0 39 39">
  <defs>
    <clipPath id="clip-path">
      <rect id="Rectángulo_46" data-name="Rectángulo 46" width="28.974" height="27.76" transform="translate(0 0)" fill="#fafafa"/>
    </clipPath>
  </defs>
  <g id="Grupo_94" data-name="Grupo 94" transform="translate(-572 -1187)">
    <circle id="Elipse_8" data-name="Elipse 8" cx="19.5" cy="19.5" r="19.5" transform="translate(572 1187)" fill="#0045f5"/>
    <g id="Grupo_88" data-name="Grupo 88" transform="translate(577 1194.778)">
      <g id="Grupo_87" data-name="Grupo 87" transform="translate(0 0)" clip-path="url(#clip-path)">
        <path id="Trazado_435" data-name="Trazado 435" d="M17.064,25.1l2.57-4.436A10.874,10.874,0,0,1,18.364,18.3a5,5,0,0,1-.072-2.87,8.973,8.973,0,0,1,1.938-2.521c.668-.747,1.4-1.436,2.14-2.116a3.665,3.665,0,0,1,.922-.549,8.344,8.344,0,0,1,4.272-.565c.247.017.537.447.678.747.265.564.434,1.173.647,1.763.015.041.087.072.086.106a17.665,17.665,0,0,1-.134,2.921,20.813,20.813,0,0,1-1.026,2.972,2.731,2.731,0,0,1-.343.671A11.9,11.9,0,0,1,25.736,21.1a3.426,3.426,0,0,1-3.309.626c-1.315-.432-1.772-.414-2.565.739a11.353,11.353,0,0,0-1.749,3.7,5.291,5.291,0,0,1-.469,1.267.781.781,0,0,1-.61.333.738.738,0,0,1-.53-.418,18.964,18.964,0,0,0-2.07-4.795c-.348-.525-.62-1.1-.984-1.614a.85.85,0,0,0-.637-.315c-.971.07-1.936.214-2.906.307a5.54,5.54,0,0,1-1.185.009,11.3,11.3,0,0,1-2.051-.355c-1.117-.354-2.314-.647-2.916-1.823a2.956,2.956,0,0,1-.138-.871A11.094,11.094,0,0,1,1.9,15.526c-.263-.655-1.042-1.435-.363-2.2C1.154,12.34.856,11.363.4,10.468A6.17,6.17,0,0,1,0,7.535,3.566,3.566,0,0,1,.3,6.665c.061-.215.168-.494.085-.659C0,5.253.4,4.544.5,3.837c.047-.332.473-.608.719-.916a2.2,2.2,0,0,0,.449-.631c.192-.626.307-1.275.484-1.906.043-.152.216-.39.316-.384.746.048,1.489.142,2.231.234a4.166,4.166,0,0,0,1.15.16,3.413,3.413,0,0,1,3.037.953c.131.118.31.3.444.279,1.239-.17,1.827.794,2.546,1.473a8.054,8.054,0,0,1,2.122,2.939.511.511,0,0,0,.248.215,4.079,4.079,0,0,1,2.27,2.632c.123.46.234.924.368,1.38a1.048,1.048,0,0,0,.241.483c1.064.937,1.175,1.4.685,2.854a13.3,13.3,0,0,1-.491,1.63,21.037,21.037,0,0,1-1.421,2.449c-.421.627-1.005,1.147-1.4,1.785a1.244,1.244,0,0,0,.039,1.031c.289.572.759,1.052,1.063,1.618.472.881.866,1.8,1.3,2.708a2.4,2.4,0,0,0,.177.272m-2.948-16.6c-.277-.445-.468-.736-.643-1.037-.2-.342-.495-.44-.711-.108-.353.543-.611,1.148-.914,1.724-.4.755-.827,1.494-1.192,2.264A3.534,3.534,0,0,0,10.2,12.78c0,.367.391.726.594,1.1.491.894.979,1.788,1.457,2.688.316.593.579,1.217.942,1.779a.735.735,0,0,0,.709.056,13.8,13.8,0,0,0,2.929-4.928c.155-.416.1-.867-.572-.815-.479.037-.654-.208-.628-.685a10.024,10.024,0,0,0-.007-1.893,4.585,4.585,0,0,0-.531-1.606c-.1-.173-.46-.971-.976.021m-12.94.721a15.172,15.172,0,0,0,.7,2.062c.408.8.965,1.518,1.41,2.3a.654.654,0,0,1-.1.623.867.867,0,0,0-.114,1.253c.272.387.61.95,1.319.673a2.482,2.482,0,0,1,.829-.1c1.4-.033,2.807-.046,4.21-.086.646-.018.928-.42.662-.964-.317-.647-.7-1.262-1.045-1.9C8.562,12.19,8.1,11.278,7.59,10.4c-.249-.425-.577-1.112-.9-1.133-1.765-.112-3.541-.053-5.51-.053M6.134,2.4,4.194,1.161a6,6,0,0,0,.237.963c.175.386.416.741.616,1.116.392.731.774,1.468,1.165,2.2.469.878.945,1.752,1.414,2.63.455.853.882,1.723,1.369,2.557.15.258.452.547.728.049.81-1.462,1.65-2.908,2.406-4.4A1.39,1.39,0,0,0,12.113,5.1,8.939,8.939,0,0,0,10.68,3.557a.582.582,0,0,0-.561-.013c-.355.272-.64.324-.937-.053q-.353-.448-.72-.885C7.446,1.391,7.336,1.38,6.134,2.4m20.658,9.835-5.161,7.813c.5.595.917.676,2.288.579.481-.034.517-.332.645-.669a1.345,1.345,0,0,1,.523-.528c.5-.341,1.023-.651,1.536-.974l-.243-.193a2.876,2.876,0,0,1,.134-.74c.18-.386.463-.725.641-1.111.267-.58.989-1.074.325-1.862-.134-.159-.041-.61.079-.863.4-.836.194-1.251-.767-1.45m-7.576,4.733a7.438,7.438,0,0,0,.21.916,8.972,8.972,0,0,0,.423.86c.36.73.737.77,1.221.125.148-.2.3-.4.427-.6.639-1.014,1.25-2.046,1.913-3.044.722-1.086,1.506-2.132,2.22-3.223a.7.7,0,0,0-.135-.662c-.267-.244-.58-.712-1.019-.208-.368.423-.735.816-1.38.654a.3.3,0,0,0-.256.067c-.459.568-.9,1.151-1.356,1.72-.193.24-.391.615-.63.653-.892.141-1.037.733-1.015,1.452.017.564.009,1.091-.622,1.294m-13.7,1.815a8.512,8.512,0,0,0,6.88.476c-.343-.623-.676-1.177-.956-1.756a1.037,1.037,0,0,0-1.145-.672c-1.475.153-2.951.289-4.426.438-.079.008-.152.08-.271.147.389.459.571.9-.081,1.367M6.029,7.933a6.716,6.716,0,0,0-.3-.877C5.4,6.417,5.027,5.8,4.7,5.161c-.473-.924-.908-1.868-1.4-2.785-.075-.141-.341-.18-.519-.267a1.489,1.489,0,0,0-.21.468,12.229,12.229,0,0,1-.028,1.328.9.9,0,0,1-.48.615c-.723.212-.951.622-.663,1.3s.536,1.386.813,2.112Z" transform="translate(0 0)" fill="#fafafa"/>
      </g>
    </g>
  </g>
</svg>
