<svg xmlns="http://www.w3.org/2000/svg" xmlns:xlink="http://www.w3.org/1999/xlink" width="39" height="39" viewBox="0 0 39 39">
  <defs>
    <clipPath id="clip-path">
      <rect id="Rectángulo_45" data-name="Rectángulo 45" width="22.991" height="25.377" transform="translate(0 0)" fill="#fafafa"/>
    </clipPath>
  </defs>
  <g id="Grupo_93" data-name="Grupo 93" transform="translate(-365 -1187)">
    <circle id="Elipse_8" data-name="Elipse 8" cx="19.5" cy="19.5" r="19.5" transform="translate(365 1187)" fill="#0045f5"/>
    <g id="Grupo_86" data-name="Grupo 86" transform="translate(373.488 1197.343)">
      <g id="Grupo_85" data-name="Grupo 85" transform="translate(0 0)" clip-path="url(#clip-path)">
        <path id="Trazado_433" data-name="Trazado 433" d="M31.437,8.358c-.378.759-.732,1.467-1.08,2.177a.528.528,0,0,0-.048.222q-.013,1.718-.018,3.435c0,.168.021.336.037.558.667,0,1.31.016,1.951-.006.459-.016.866.014,1.012.557-.27.506-.736.524-1.248.518-1.64-.019-3.281-.022-4.921,0a1.238,1.238,0,0,1-1.223-.51c.145-.546.555-.592,1.041-.57.624.029,1.251.007,1.941.007,0-1.292.066-2.549-.035-3.793-.036-.449-.468-.869-.724-1.3-.117-.2-.246-.389-.443-.7-.261,0-.658.027-1.049-.006a2.4,2.4,0,0,1-1.9-1.191,4.235,4.235,0,0,1-.686-2.221,12.259,12.259,0,0,0-.29-1.586c-.067-.384.1-.564.5-.543a7.982,7.982,0,0,1,1.709.068c1.125.317,2.348.461,3.066,1.637a2.693,2.693,0,0,1-.409,2.941l.785,1.328a3.038,3.038,0,0,0,.838-1.84,4.023,4.023,0,0,0-.427-1.324,3.177,3.177,0,0,1,.005-2.517,4.406,4.406,0,0,1,1.112-1.8A3.5,3.5,0,0,1,32.608,1a10.943,10.943,0,0,0,1.54-.52,1.325,1.325,0,0,1,.266-.095c1.172-.134,2.342-.3,3.518-.379.957-.066,1.142.238.9,1.18a9.048,9.048,0,0,0-.282,1.59A8.807,8.807,0,0,1,37.9,5.623c-.152.364-.2.773-.377,1.125a3.5,3.5,0,0,1-2.675,2.24c-.327.046-.647.286-.96.266a3.733,3.733,0,0,1-2.45-.9m-6.321-3.5c.136.506.236.951.377,1.383a3.034,3.034,0,0,0,.421.972A1.271,1.271,0,0,0,27.76,7.2a1.4,1.4,0,0,0-.15-1.747,3.053,3.053,0,0,0-2.495-.595M36.129,6.624a4.926,4.926,0,0,1-1.32-.2A1.923,1.923,0,0,0,32.09,7.458c2.5.96,3.327.128,4.039-.833m-5.091-.415c.2-.048.42-.035.533-.141a1.877,1.877,0,0,0,.775-1.755,10.685,10.685,0,0,1-.021-1.539,1.5,1.5,0,0,0-.08-.329c-1.457.927-1.373,2.3-1.207,3.764M34.274,4.9l.157.3c.677,0,1.355.008,2.033-.008.107,0,.289-.092.3-.167.151-.764.281-1.533.4-2.3.013-.088-.075-.191-.116-.287a1.251,1.251,0,0,0-.264.138c-.19.166-.365.348-.55.52Q35.257,4,34.274,4.9m-.526-1.215L36.2,1.522a2.167,2.167,0,0,0-.471-.076c-.554.1-1.109.207-1.657.338-.123.029-.309.164-.314.258-.03.566-.015,1.135-.015,1.646" transform="translate(-18.282 0)" fill="#fafafa"/>
        <path id="Trazado_434" data-name="Trazado 434" d="M20.91,54.6c-.5.183-.879.345-1.275.466-.752.229-1.529.386-2.261.663-.983.372-2.044.135-3,.394a14.007,14.007,0,0,1-4.975.162c-.964-.084-1.95-.134-2.911-.289a15.946,15.946,0,0,1-1.9-.576C4.08,55.267,3.554,55.16,3.045,55a8.99,8.99,0,0,1-.9-.389l-.189.14.372,1.356a1.557,1.557,0,0,1,.043.165c.131.811.234,1.627.4,2.431.176.86.416,1.708.614,2.564a3.053,3.053,0,0,1,.005.587,11.231,11.231,0,0,0-.991-.585c-.483-.221-.492-.722-.669-1.1a5.328,5.328,0,0,1-.328-1.29c-.152-.843-.249-1.7-.424-2.536C.818,55.6.59,54.886.394,54.16c0-.018-.013-.036-.017-.054A15.618,15.618,0,0,1,0,52.015a2.417,2.417,0,0,1,1.346-2.156,18.174,18.174,0,0,1,1.793-.979,5.569,5.569,0,0,1,1.087-.371c.594-.149,1.193-.286,1.8-.384.848-.138,1.7-.249,2.555-.344a1.851,1.851,0,0,1,1.3.876.549.549,0,0,1-.284.46,10.168,10.168,0,0,1-1.024.047,26.456,26.456,0,0,0-3.122.414,15.7,15.7,0,0,0-2.88,1.035,4.034,4.034,0,0,0-1.12,1c-.231.248.16,1.053.489,1.3.812.62,1.833.789,2.683,1.317a.29.29,0,0,0,.11.029,27.407,27.407,0,0,1,2.774.415,24.647,24.647,0,0,0,6.458.262,17.859,17.859,0,0,0,3.059-.562,2.816,2.816,0,0,1,.338-.051,6.039,6.039,0,0,0,2.975-1.011,8.7,8.7,0,0,0,1.031-.752.667.667,0,0,0,.02-1.059,4.459,4.459,0,0,0-2.158-1.348c-.9-.274-1.825-.464-2.718-.725a16.345,16.345,0,0,0-2.972-.291.671.671,0,0,1-.481-.244c-.05-.1.109-.329.206-.479a1.1,1.1,0,0,1,1.16-.646c.475.085.955.148,1.432.225a3.021,3.021,0,0,0,.5.1,6.3,6.3,0,0,1,2.738.643c.644.3,1.346.467,1.986.769.977.461,2.063,1.423,1.9,2.605a12.419,12.419,0,0,1-.549,1.882,2.106,2.106,0,0,0-.08.206c-.132.692-.228,1.392-.4,2.074-.163.655-.418,1.287-.6,1.937-.153.536-.257,1.085-.393,1.626a7.026,7.026,0,0,1-.425,1.472c-.131.257-.522.382-.8.563-.118.077-.242.146-.466.281a5.823,5.823,0,0,1,.012-1.141c.176-.826.4-1.641.634-2.453.185-.652.405-1.293.607-1.94.022-.071.023-.15.042-.223.105-.41.22-.817.316-1.229a4.092,4.092,0,0,0,.037-.566" transform="translate(0 -36.773)" fill="#fafafa"/>
      </g>
    </g>
  </g>
</svg>
