<svg xmlns="http://www.w3.org/2000/svg" xmlns:xlink="http://www.w3.org/1999/xlink" width="39" height="39" viewBox="0 0 39 39">
  <defs>
    <clipPath id="clip-path">
      <rect id="Rectángulo_44" data-name="Rectángulo 44" width="21.142" height="27.364" fill="#fafafa"/>
    </clipPath>
  </defs>
  <g id="Grupo_92" data-name="Grupo 92" transform="translate(-158 -1187)">
    <circle id="Elipse_8" data-name="Elipse 8" cx="19.5" cy="19.5" r="19.5" transform="translate(158 1187)" fill="#0045f5"/>
    <g id="Grupo_91" data-name="Grupo 91" transform="translate(167.059 1192.636)">
      <g id="Grupo_83" data-name="Grupo 83" transform="translate(0 0)" clip-path="url(#clip-path)">
        <path id="Trazado_431" data-name="Trazado 431" d="M15.739,19.892a3.346,3.346,0,0,1,.627-.913c.14-.106.528.1.8.183.512.16,1.018.342,1.531.5a4.043,4.043,0,0,1,2.33,1.816c.253.436.023,1.169-.035,1.764a4.76,4.76,0,0,1-.249.793c-.249.874-.49,1.749-.735,2.624-.018.064-.041.127-.053.193-.154.84-.266,1.691-.472,2.519-.188.753-.506,1.473-.713,2.222-.192.7-.291,1.416-.472,2.115-.21.813-.47,1.614-.7,2.423a2.247,2.247,0,0,0-.093.594,3.558,3.558,0,0,1-1.277,2.763,2.845,2.845,0,0,1-.887.517c-.52.191-1.084.267-1.595.475-1.844.753-3.762.333-5.64.332a10.961,10.961,0,0,1-2.532-.685,3.64,3.64,0,0,1-2.1-1.34c-.052-.069-.15-.121-.167-.195-.164-.68-.312-1.364-.47-2.046-.245-1.057-.493-2.113-.739-3.17-.02-.087-.03-.177-.051-.265-.12-.508-.266-1.011-.358-1.523-.179-1-.3-2-.5-2.994S.72,26.651.48,25.68a.613.613,0,0,1-.023-.063C.3,24.345.12,23.075,0,21.8c-.019-.2.2-.449.35-.64a4.71,4.71,0,0,1,3.226-1.923,3.575,3.575,0,0,0,1.61-.459.545.545,0,0,1,.862.212.51.51,0,0,1-.284.847c-.163.046-.3.2-.46.241a14,14,0,0,0-2.148.5,7.5,7.5,0,0,0-1.813,1.191c-.388.321,0,1.331.543,1.557q1.395.58,2.787,1.165a.286.286,0,0,0,.066.015,24.009,24.009,0,0,0,2.865.425c2,.065,4.016.1,6.017-.017a17.739,17.739,0,0,0,3.171-.7,7.563,7.563,0,0,0,1.4-.464,7.076,7.076,0,0,0,1.381-.834c.465-.367.4-.748,0-1.225a3.65,3.65,0,0,0-2.18-1.2,12.678,12.678,0,0,1-1.654-.609M6.156,29.719l3.556.522V26.334l-4-.365a3.5,3.5,0,0,0,0,.485c.142,1.089.294,2.176.443,3.265m8.858-3.753a9.472,9.472,0,0,1-1.2.232c-.7.038-1.4.043-2.094.023-.505-.014-.736.134-.709.693.044.878.045,1.761,0,2.638-.027.551.177.756.695.675.787-.123,1.571-.26,2.357-.389.169-.028.34-.046.445-.06l.5-3.811m-.836,9.218c-.821,0-1.591-.013-2.361,0a.738.738,0,0,0-.8.844c.006.99.027,1.982-.008,2.971-.018.5.2.658.636.593.7-.1,1.4-.237,2.054-.349.252-1.374-.154-2.683.475-4.063M7.694,39.563H9.708V35.184H6.9l.8,4.379M19.217,24.929a8.259,8.259,0,0,0-.854.122A11.033,11.033,0,0,1,17.2,25.4c-.649.1-.905.351-.94,1.022a8.414,8.414,0,0,1-.114.929c-.112.674-.234,1.346-.369,2.108.794-.214,1.375-.37,1.956-.531.037-.01.059-.066.094-.092a2.287,2.287,0,0,0,.837-1.586c.049-.308.063-.624.137-.925.1-.425.249-.84.42-1.4M4.827,29.387a4.125,4.125,0,0,0-.01-.814c-.076-.357-.27-.691-.326-1.049a11.206,11.206,0,0,0-.078-1.274,1.367,1.367,0,0,0-.618-.805A20.868,20.868,0,0,0,1.622,24.7l.84,3.866,2.365.823M6.56,31.034a15.014,15.014,0,0,0,.033,2.141,1.03,1.03,0,0,0,.688.669,12.919,12.919,0,0,0,2.157.085.457.457,0,0,0,.325-.306c.03-.689.015-1.38.015-2.044L6.56,31.034m4.493,2.839c.875,0,1.725.048,2.563-.033.22-.021.518-.415.579-.684a20.192,20.192,0,0,0,.265-2.1l-3.408.536ZM6.039,39.168a4.889,4.889,0,0,0,.049-.822c-.123-.987-.3-1.969-.4-2.958a.993.993,0,0,0-1.01-1.032,6.544,6.544,0,0,1-.937-.266,5.585,5.585,0,0,0,.011.953c.074.427.234.837.337,1.26.155.635.288,1.275.443,1.909.016.064.116.115.186.157.393.241.788.477,1.321.8M5.2,33.228c.251-2.308-.385-3.065-2.406-2.9l.56,2.328,1.846.576m10.219-.207.193.212a8.216,8.216,0,0,0,1.641-.629c.2-.125.142-.644.217-.981.038-.169.117-.329.171-.5.086-.264.165-.53.248-.8l-.179-.155-1.785.569-.5,2.275m1.323,1.39c-1.025-.077-1.264.127-1.337.979a1.648,1.648,0,0,1-.123.513,5.842,5.842,0,0,0-.111,2.86c1.208-1.2,1.242-2.792,1.571-4.351" transform="translate(0 -13.567)" fill="#fafafa"/>
        <path id="Trazado_432" data-name="Trazado 432" d="M26.644,10.092l-.989-3.511a3.578,3.578,0,0,0-.793-.031,1.991,1.991,0,0,1-1.97-.85c-.029-.031-.073-.062-.08-.1-.156-.881-.327-1.759-.454-2.645-.054-.376.2-.509.552-.489a6.636,6.636,0,0,1,2.9.9,1.5,1.5,0,0,1,.35,2.012.8.8,0,0,0,.01.619,2.2,2.2,0,0,0,.437.518c.746-.7.76-.785.268-1.653a3.321,3.321,0,0,1,.84-3.618A4.071,4.071,0,0,1,29.888.39c.851-.055,1.691-.267,2.539-.38a5.531,5.531,0,0,1,.962.065c-.11.456-.205.844-.3,1.233-.045.194-.087.388-.122.584-.158.9-.245,1.826-.484,2.708a3.318,3.318,0,0,1-3.735,1.9,2.547,2.547,0,0,1-.517-.38,3.693,3.693,0,0,0-.969,2.9c.057.512-.03.933-.622,1.076m-2-4.5c.512-.5.734-1.089.5-1.421a1.436,1.436,0,0,0-1.788-.288c.348.63.148,1.661,1.286,1.71m4.187-.471c.906.7,1.818.5,2.483-.621-.887.179-1.812-.38-2.483.621M28.512,1.97a1.946,1.946,0,0,0-.647,2.512c1.009-.613.453-1.566.647-2.512m1.229-.662V2.389l1.224-.96-.081-.121Zm.707,2.064.072.221h1.153a7.513,7.513,0,0,0,.058-.789.526.526,0,0,0-.173-.311c-.021-.021-.178.068-.253.131-.29.244-.572.5-.857.748" transform="translate(-16.268 0)" fill="#fafafa"/>
      </g>
    </g>
  </g>
</svg>
