<?xml version="1.0" encoding="utf-8"?>
<!-- Generator: Adobe Illustrator 26.4.1, SVG Export Plug-In . SVG Version: 6.00 Build 0)  -->
<svg version="1.1" id="Capa_1" xmlns="http://www.w3.org/2000/svg" xmlns:xlink="http://www.w3.org/1999/xlink" x="0px" y="0px"
	 viewBox="0 0 40 40" style="enable-background:new 0 0 40 40;" xml:space="preserve">
<style type="text/css">
	.st0{fill-rule:evenodd;clip-rule:evenodd;fill:#FFFFFF;}
</style>
<g id="SolucionNutritiva_40x40_00000070835086032309919110000011921847167411682237_">
	
		<g id="Group-11_00000111869834203310711200000012230834819056812990_" transform="translate(20.500000, 20.000000) rotate(-330.000000) translate(-20.500000, -20.000000) translate(14.000000, -1.000000)">
		<g id="Clip-7_00000136390888838604362690000001826690566956266115_">
		</g>
		<g id="Clip-4_00000083089461119420678540000001042034543169517963_">
		</g>
	</g>
</g>
<path class="st0" d="M29.7,3.2l-2.8-1.6c-1.7-1-3.9-0.4-4.9,1.3l-4,6.9l-1.8-1c-0.6-0.3-1.3-0.1-1.6,0.4l-0.3,0.6
	c-0.3,0.6-0.1,1.3,0.4,1.6l2.5,1.4L7.8,29c-0.6,1.1-0.5,2.5,0.4,3.6L7,37.1c-0.2,0.8,0,1.5,0.5,1.8C7.6,38.9,7.8,39,8,39
	c0.4,0,0.9-0.2,1.4-0.8l2.9-3.3c1.3,0.1,2.6-0.6,3.3-1.7l9.2-16l2.8,1.6c0.6,0.3,1.3,0.1,1.6-0.4l0.3-0.6c0.3-0.6,0.1-1.3-0.4-1.6
	L27,15l4-6.9C32,6.3,31.4,4.1,29.7,3.2z M21.2,21.5c0,0-0.1,0-0.1,0c-0.1,0-0.2,0-0.4-0.1c-0.1,0-0.2,0-0.2,0c-0.1,0-0.2,0-0.4,0
	c-0.1,0-0.2,0-0.3,0c-0.1,0-0.2,0-0.4,0c-0.1,0-0.2,0-0.3,0c-0.1,0-0.3,0-0.4,0.1c-0.1,0-0.2,0-0.3,0c-0.1,0-0.3,0-0.4,0.1
	c-0.1,0-0.3,0-0.4,0.1c-0.2,0-0.3,0.1-0.5,0.1c-0.1,0-0.3,0-0.4,0.1c-1.4,0.2-2.8,0.4-3.6-0.3l4.8-8.3l6,3.4L21.2,21.5z"/>
</svg>
