<?xml version="1.0" encoding="UTF-8"?>
<svg width="40px" height="40px" viewBox="0 0 40 40" version="1.1" xmlns="http://www.w3.org/2000/svg" xmlns:xlink="http://www.w3.org/1999/xlink">
    <title>SolucionNutritiva_40x40</title>
    <defs>
        <polygon id="path-1" points="0.0532762814 0.056902644 10.4817941 0.056902644 10.4817941 13.0542514 0.0532762814 13.0542514"></polygon>
        <polygon id="path-3" points="0 0.0549550184 12.8606153 0.0549550184 12.8606153 2.28585842 0 2.28585842"></polygon>
    </defs>
    <g id="SolucionNutritiva_40x40" stroke="none" stroke-width="1" fill="none" fill-rule="evenodd">
        <g id="Group-11" transform="translate(20.500000, 20.000000) rotate(-330.000000) translate(-20.500000, -20.000000) translate(14.000000, -1.000000)">
            <path d="M10.3800233,25.8403845 L10.3800233,33.1425271 C10.3800233,34.3881355 9.57125001,35.5385427 8.45347278,35.9273411 L7.49572062,40.4701778 C7.21011731,41.8501578 6.18826791,41.979515 5.80462927,40.6837626 L4.52050447,35.9091729 C3.42242152,35.6104886 2.48058465,34.6025196 2.48058465,33.4128692 L2.48058465,24.1318518 C5.01467813,25.282259 7.81398399,20.2754946 10.4759086,20.1025338" id="Fill-1" fill="#FCEC98"></path>
            <path d="M10.3800233,25.8403845 L10.3800233,33.1425271 C10.3800233,34.3881355 9.57125001,35.5385427 8.45347278,35.9273411 L7.49572062,40.4701778 C7.21011731,41.8501578 6.89943208,41.3120352 6.51722841,41.5327006 C6.24952046,30.3895852 6.10302782,24.1800947 6.07775049,22.9042293 C7.54128621,21.7189516 9.02889529,20.1965548 10.4759086,20.1025338" id="Fill-1" fill="#F4DD63"></path>
            <g id="Group-5" transform="translate(1.162762, 0.015770)">
                <mask id="mask-2" fill="white">
                    <use xlink:href="#path-1"></use>
                </mask>
                <g id="Clip-4"></g>
                <path d="M10.4817941,13.0542514 L10.4817941,3.64460345 C10.4817941,1.6713244 8.8673723,0.0568299714 6.89416592,0.0568299714 L3.64097709,0.0568299714 C1.66777071,0.0568299714 0.0532762814,1.6713244 0.0532762814,3.64460345 L0.0532762814,13.0542514 L10.4817941,13.0542514 Z" id="Fill-3" fill="#333333" mask="url(#mask-2)"></path>
            </g>
            <g id="Group-8" transform="translate(-0.000000, 11.716058)">
                <mask id="mask-4" fill="white">
                    <use xlink:href="#path-3"></use>
                </mask>
                <g id="Clip-7"></g>
                <path d="M11.9885441,2.28585842 L0.872034836,2.28585842 C0.392468364,2.28585842 -3.63362989e-05,1.8934264 -3.63362989e-05,1.41378725 L-3.63362989e-05,0.927026191 C-3.63362989e-05,0.447387046 0.392468364,0.0549550184 0.872034836,0.0549550184 L11.9885441,0.0549550184 C12.4681832,0.0549550184 12.8606153,0.447387046 12.8606153,0.927026191 L12.8606153,1.41378725 C12.8606153,1.8934264 12.4681832,2.28585842 11.9885441,2.28585842" id="Fill-6" fill="#333333" mask="url(#mask-4)"></path>
            </g>
            <path d="M10.3800233,9.75503901 L10.3800233,33.1425344 C10.3800233,34.3881427 9.57125001,35.53855 8.45347278,35.9273484 L7.49572062,40.4701124 C7.21011731,41.8501651 6.18826791,41.9795223 5.80462927,40.6837699 L4.52050447,35.9091802 C3.42242152,35.6104958 2.48058465,34.6025269 2.48058465,33.4128765 L2.48058465,9.75503901 C2.48058465,9.47524951 2.71015739,9.2456041 2.99067361,9.2456041 L9.86986171,9.2456041 C10.1504506,9.2456041 10.3800233,9.47524951 10.3800233,9.75503901 Z" id="Stroke-9" stroke="#333333" stroke-width="0.726725977"></path>
        </g>
    </g>
</svg>