<?xml version="1.0" encoding="UTF-8"?>
<svg width="40px" height="40px" viewBox="0 0 40 40" version="1.1" xmlns="http://www.w3.org/2000/svg" xmlns:xlink="http://www.w3.org/1999/xlink">
    <title>Sustrato_40x40</title>
    <defs>
        <polygon id="path-1" points="0.000317999981 0.050117997 23.7849586 0.050117997 23.7849586 28.3199983 0.000317999981 28.3199983"></polygon>
        <polygon id="path-3" points="2.21595216e-05 0.0390599977 23.7849586 0.0390599977 23.7849586 26.6399984 2.21595216e-05 26.6399984"></polygon>
        <polygon id="path-5" points="0.000317999981 0.0138179992 23.7849586 0.0138179992 23.7849586 2.57011785 0.000317999981 2.57011785"></polygon>
        <polygon id="path-7" points="0.00789599953 0.00203999988 21.4973147 0.00203999988 21.4973147 3.91380577 0.00789599953 3.91380577"></polygon>
        <polygon id="path-9" points="0 0.050280002 29.2245432 0.050280002 29.2245432 9.17997636 0 9.17997636"></polygon>
    </defs>
    <g id="Sustrato_40x40" stroke="none" stroke-width="1" fill="none" fill-rule="evenodd">
        <g id="Group-21" transform="translate(14.000000, 2.000000)">
            <g id="Group-3" transform="translate(0.000000, 6.477960)">
                <mask id="mask-2" fill="white">
                    <use xlink:href="#path-1"></use>
                </mask>
                <g id="Clip-2"></g>
                <path d="M0.000317999981,0.050117997 L23.7849766,0.050117997 L23.7849766,26.2336964 C23.7849766,27.3811964 22.8459766,28.3200163 21.6985367,28.3200163 L2.08675788,28.3200163 C0.939257944,28.3200163 0.000317999981,27.3811964 0.000317999981,26.2336964 L0.000317999981,0.050117997 Z" id="Fill-1" fill="#EEB290" mask="url(#mask-2)"></path>
            </g>
            <g id="Group-6" transform="translate(0.000000, 8.157960)">
                <mask id="mask-4" fill="white">
                    <use xlink:href="#path-3"></use>
                </mask>
                <g id="Clip-5"></g>
                <path d="M23.7849886,22.3108187 L23.7849886,24.5536785 C23.7849886,25.7011785 22.8459886,26.6399984 21.6985487,26.6399984 L2.08676988,26.6399984 C0.939269944,26.6399984 0.00032999998,25.7011785 0.00032999998,24.5536785 L0.00032999998,0.0390599977 C-0.0537299968,17.219099 7.00904958,25.4379585 23.7849886,22.3108187" id="Fill-4" fill="#E2A783" mask="url(#mask-4)"></path>
            </g>
            <g id="Group-9" transform="translate(0.000000, 3.957960)">
                <mask id="mask-6" fill="white">
                    <use xlink:href="#path-5"></use>
                </mask>
                <g id="Clip-8"></g>
                <path d="M0.000317999981,2.57011785 L11.8877573,2.57011785 L23.7849766,2.57011785 C23.5767766,2.10745787 23.3760766,1.6599779 23.1821566,1.22785793 C22.9947766,0.810377952 22.8129166,0.405437976 22.6374167,0.0138179992 L11.8881773,0.0138179992 L1.14787793,0.0138179992 C0.972257942,0.405437976 0.790577953,0.810377952 0.603077964,1.22785793 C0.408977976,1.6599779 0.208157988,2.10745787 0.000317999981,2.57011785" id="Fill-7" fill="#E2A783" mask="url(#mask-6)"></path>
            </g>
            <g id="Group-12" transform="translate(1.140000, 0.057960)">
                <mask id="mask-8" fill="white">
                    <use xlink:href="#path-7"></use>
                </mask>
                <g id="Clip-11"></g>
                <path d="M13.2172552,2.50560585 L11.5232153,2.50560585 C11.3517353,2.74626584 11.0706953,2.90340583 10.7526354,2.90340583 C10.4346354,2.90340583 10.1531754,2.74626584 9.98193541,2.50560585 L8.28813551,2.50560585 C7.98693552,2.50560585 7.74057554,2.25912587 7.74057554,1.95816588 C7.74057554,1.6566659 7.98693552,1.41018592 8.28813551,1.41018592 L9.98193541,1.41018592 C10.1531754,1.16952593 10.4346354,1.01280594 10.7526354,1.01280594 C11.0706953,1.01280594 11.3517353,1.16952593 11.5232153,1.41018592 L13.2172552,1.41018592 C13.5183952,1.41018592 13.7648152,1.6566659 13.7648152,1.95816588 C13.7648152,2.25912587 13.5183952,2.50560585 13.2172552,2.50560585 M20.8021548,0.00198599988 L0.703235958,0.00198599988 C0.320855981,0.00198599988 0.00789599953,0.314825981 0.00789599953,0.697505958 L0.00789599953,3.91380577 L21.4973147,3.91380577 L21.4973147,0.697505958 C21.4973147,0.314825981 21.1843547,0.00198599988 20.8021548,0.00198599988" id="Fill-10" fill="#EEB290" mask="url(#mask-8)"></path>
            </g>
            <path d="M1.14789593,0.755465955 C1.14789593,0.404675976 1.41086925,0.112570993 1.74922808,0.066322871 L1.84323589,0.0599459964 L21.9421547,0.0599459964 C22.2925047,0.0599459964 22.5846738,0.322818481 22.6309357,0.661391586 L22.6373147,0.755465955 L22.6373147,3.97176576 L23.7849766,6.52807761 L23.7849766,32.7116561 C23.7849766,33.859156 22.8459766,34.7979759 21.6985367,34.7979759 L2.08675788,34.7979759 C0.939257944,34.7979759 0.000317999981,33.859156 0.000317999981,32.7116561 L0.000317999981,6.52807761 L1.14787793,3.97177776 L1.14789593,0.755465955 Z M11.8926353,1.07076594 C11.6143853,1.07076594 11.3641113,1.19075468 11.191173,1.38197525 L11.1219353,1.46814591 L9.42813544,1.46814591 C9.12693546,1.46814591 8.88057547,1.7146259 8.88057547,2.01612588 C8.88057547,2.28698986 9.08012706,2.51372505 9.33961216,2.55636345 L9.42813544,2.56356585 L11.1219353,2.56356585 C11.2931753,2.80422583 11.5746353,2.96136582 11.8926353,2.96136582 C12.1709378,2.96136582 12.4208968,2.84105552 12.5939163,2.64975455 L12.6632152,2.56356585 L14.3572551,2.56356585 C14.6583951,2.56356585 14.9048151,2.31708586 14.9048151,2.01612588 C14.9048151,1.7447759 14.7052149,1.51799211 14.4457638,1.47534885 L14.3572551,1.46814591 L12.6632152,1.46814591 C12.4917353,1.22748593 12.2106953,1.07076594 11.8926353,1.07076594 Z" id="Shape" stroke="#000000" stroke-width="0.5"></path>
            <path d="M11.8926533,12.5143673 C15.1975731,12.5143673 17.8769329,15.1931271 17.8769329,18.4979869 C17.8769329,21.8032067 15.1975731,24.4822665 11.8926533,24.4822665 C8.58767349,24.4822665 5.90861365,21.8032067 5.90861365,18.4979869 C5.90861365,15.1931271 8.58767349,12.5143673 11.8926533,12.5143673" id="Fill-13" fill="#FFFBD1"></path>
            <polygon id="Fill-15" fill="#489900" points="11.4175433 21.0801287 12.5963032 13.7517892 12.5652233 20.9496888 11.9446433 22.2276287"></polygon>
            <path d="M11.3245553,23.2446406 C11.0643953,20.3062008 10.2791754,17.525081 7.70259554,15.0034611 C10.8148554,16.752521 12.0164153,19.7563008 12.4803953,23.2446406 L11.3245553,23.2446406 Z" id="Fill-17" fill="#53B800"></path>
            <path d="M12.4605713,23.2446406 C12.7206112,21.1059407 13.5061312,19.0817209 16.082471,17.246501 C12.9700912,18.5193409 11.7688313,20.7056808 11.3048513,23.2446406 L12.4605713,23.2446406 Z" id="Fill-19" fill="#53B800"></path>
        </g>
        <g id="Group-20" transform="translate(0.000000, 29.000000)">
            <g id="Group-3" transform="translate(0.000000, 0.009720)">
                <mask id="mask-10" fill="white">
                    <use xlink:href="#path-9"></use>
                </mask>
                <g id="Clip-2"></g>
                <path d="M4.24804217,5.50509622 C4.36114217,5.50509622 4.47220218,5.51337622 4.58098218,5.52897622 C4.55056218,5.36775621 4.53454218,5.20125621 4.53454218,5.0313362 C4.53454218,3.54897614 5.73646223,2.34723609 7.21894229,2.34723609 C7.82170231,2.34723609 8.37820233,2.5458361 8.82622235,2.88153611 C9.78958239,1.19067605 11.6081225,0.050256002 13.6933625,0.050256002 C15.0754626,0.050256002 16.3405026,0.551376022 17.3168227,1.38159605 C17.6325427,1.11291604 18.0418627,0.950376038 18.4891027,0.950376038 C19.3467428,0.950376038 20.0647628,1.54725606 20.2509428,2.34813609 C20.2849628,2.34765609 20.3192828,2.34723609 20.3537828,2.34723609 C21.9429429,2.34723609 23.3350029,3.18567613 24.106123,4.44177618 C24.328843,4.38615617 24.561943,4.35675617 24.801943,4.35675617 C26.350423,4.35675617 27.6122231,5.58147622 27.6720431,7.11525628 C27.7013231,7.11387628 27.7307831,7.11261628 27.7604831,7.11261628 C28.5691631,7.11261628 29.2245432,7.74261631 29.2245432,8.51937634 C29.2245432,8.75835635 29.1626832,8.98323636 29.0533632,9.17997636 L3.95998216,9.17997636 L-1.80000007e-05,9.17997636 C0.0304020012,8.11221632 0.905142036,7.25637629 1.97992208,7.25637629 L2.01664208,7.25679629 C2.26132209,6.25101625 3.16750213,5.50509622 4.24804217,5.50509622" id="Fill-1" fill="#AD4600" mask="url(#mask-10)"></path>
            </g>
            <path d="M10.6203724,5.93429424 C10.1209924,5.93429424 9.71611239,6.33923425 9.71611239,6.83867427 C9.71611239,7.33823429 10.1209924,7.74305431 10.6203724,7.74305431 C11.1199924,7.74305431 11.5247525,7.33823429 11.5247525,6.83867427 C11.5247525,6.33923425 11.1199924,5.93429424 10.6203724,5.93429424" id="Fill-4" fill="#943B00"></path>
            <path d="M3.97440616,7.02565828 C3.73668615,7.02565828 3.54366614,7.21843829 3.54366614,7.4560383 C3.54366614,7.69405831 3.73668615,7.88689831 3.97440616,7.88689831 C4.21218617,7.88689831 4.40508618,7.69405831 4.40508618,7.4560383 C4.40508618,7.21843829 4.21218617,7.02565828 3.97440616,7.02565828" id="Fill-6" fill="#943B00"></path>
            <path d="M12.8597705,2.34577209 C12.5506505,2.34577209 12.2999705,2.5965121 12.2999705,2.90551212 C12.2999705,3.21475213 12.5506505,3.46525214 12.8597705,3.46525214 C13.1688905,3.46525214 13.4195105,3.21475213 13.4195105,2.90551212 C13.4195105,2.5965121 13.1688905,2.34577209 12.8597705,2.34577209" id="Fill-8" fill="#943B00"></path>
            <path d="M7.03177228,4.09708216 C6.73855227,4.09708216 6.50065226,4.33486217 6.50065226,4.62832218 C6.50065226,4.9217222 6.73855227,5.15932221 7.03177228,5.15932221 C7.32517229,5.15932221 7.5630123,4.9217222 7.5630123,4.62832218 C7.5630123,4.33486217 7.32517229,4.09708216 7.03177228,4.09708216" id="Fill-10" fill="#943B00"></path>
            <path d="M15.5296206,5.67624623 C14.9509806,5.67624623 14.4818406,6.14532624 14.4818406,6.72402627 C14.4818406,7.30260629 14.9509806,7.77174631 15.5296206,7.77174631 C16.1082006,7.77174631 16.5775207,7.30260629 16.5775207,6.72402627 C16.5775207,6.14532624 16.1082006,5.67624623 15.5296206,5.67624623" id="Fill-12" fill="#943B00"></path>
            <path d="M20.9699948,5.38902021 C20.4626348,5.38902021 20.0513948,5.80026023 20.0513948,6.30750025 C20.0513948,6.81510027 20.4626348,7.22622029 20.9699948,7.22622029 C21.4772949,7.22622029 21.8886549,6.81510027 21.8886549,6.30750025 C21.8886549,5.80026023 21.4772949,5.38902021 20.9699948,5.38902021" id="Fill-14" fill="#943B00"></path>
            <path d="M25.061125,6.62335226 C24.799525,6.62335226 24.587425,6.83551227 24.587425,7.09711228 C24.587425,7.35871229 24.799525,7.5706923 25.061125,7.5706923 C25.322725,7.5706923 25.534645,7.35871229 25.534645,7.09711228 C25.534645,6.83551227 25.322725,6.62335226 25.061125,6.62335226" id="Fill-16" fill="#943B00"></path>
            <path d="M17.9555227,2.97747612 C17.6858827,2.97747612 17.4676027,3.19587613 17.4676027,3.46527614 C17.4676027,3.73503615 17.6858827,3.95373616 17.9555227,3.95373616 C18.2249827,3.95373616 18.4434427,3.73503615 18.4434427,3.46527614 C18.4434427,3.19587613 18.2249827,2.97747612 17.9555227,2.97747612" id="Fill-18" fill="#943B00"></path>
        </g>
    </g>
</svg>