<?xml version="1.0" encoding="utf-8"?>
<!-- Generator: Adobe Illustrator 26.4.1, SVG Export Plug-In . SVG Version: 6.00 Build 0)  -->
<svg version="1.1" id="Capa_1" xmlns="http://www.w3.org/2000/svg" xmlns:xlink="http://www.w3.org/1999/xlink" x="0px" y="0px"
	 viewBox="0 0 40 40" style="enable-background:new 0 0 40 40;" xml:space="preserve">
<style type="text/css">
	.st0{filter:url(#Adobe_OpacityMaskFilter);}
	.st1{fill-rule:evenodd;clip-rule:evenodd;fill:#FFFFFF;}
	.st2{mask:url(#mask-6_00000033337654073568644090000001875173009632745364_);fill-rule:evenodd;clip-rule:evenodd;fill:#FFFFFF;}
	.st3{filter:url(#Adobe_OpacityMaskFilter_00000091722592813753595580000013738002197022532754_);}
	.st4{mask:url(#mask-8_00000002346640634149877500000014548365663116896913_);fill-rule:evenodd;clip-rule:evenodd;fill:#FFFFFF;}
	.st5{fill:none;stroke:#FFFFFF;stroke-width:0.5;}
</style>
<g id="Sustrato_40x40">
	<g id="Group-21" transform="translate(14.000000, 2.000000)">
		<g id="Group-9" transform="translate(0.000000, 3.957960)">
			<g id="Clip-8">
			</g>
			<defs>
				<filter id="Adobe_OpacityMaskFilter" filterUnits="userSpaceOnUse" x="1.1" y="-0.1" width="23.8" height="2.6">
					<feColorMatrix  type="matrix" values="1 0 0 0 0  0 1 0 0 0  0 0 1 0 0  0 0 0 1 0"/>
				</filter>
			</defs>
			
				<mask maskUnits="userSpaceOnUse" x="1.1" y="-0.1" width="23.8" height="2.6" id="mask-6_00000033337654073568644090000001875173009632745364_">
				<g class="st0">
					<polygon id="path-5_00000054243746666236925740000000485450662320541074_" class="st1" points="1.1,-0.1 24.9,-0.1 24.9,2.4 
						1.1,2.4 					"/>
				</g>
			</mask>
			<path id="Fill-7" class="st2" d="M1.1,2.4H13h11.9c-0.2-0.5-0.4-0.9-0.6-1.3c-0.2-0.4-0.4-0.8-0.5-1.2H13H2.3
				C2.1,0.3,1.9,0.7,1.7,1.1C1.5,1.5,1.3,2,1.1,2.4"/>
		</g>
		<g id="Group-12" transform="translate(1.140000, 0.057960)">
			<g id="Clip-11">
			</g>
			<defs>
				
					<filter id="Adobe_OpacityMaskFilter_00000090984130296360106920000008383917720559440788_" filterUnits="userSpaceOnUse" x="1.1" y="-0.1" width="21.5" height="3.9">
					<feColorMatrix  type="matrix" values="1 0 0 0 0  0 1 0 0 0  0 0 1 0 0  0 0 0 1 0"/>
				</filter>
			</defs>
			
				<mask maskUnits="userSpaceOnUse" x="1.1" y="-0.1" width="21.5" height="3.9" id="mask-8_00000002346640634149877500000014548365663116896913_">
				<g style="filter:url(#Adobe_OpacityMaskFilter_00000090984130296360106920000008383917720559440788_);">
					<polygon id="path-7_00000121996384682259189880000014728476391250664833_" class="st1" points="1.1,-0.1 22.6,-0.1 22.6,3.8 
						1.1,3.8 					"/>
				</g>
			</mask>
			<path id="Fill-10" class="st4" d="M14.3,2.4h-1.7c-0.2,0.2-0.5,0.4-0.8,0.4c-0.3,0-0.6-0.2-0.8-0.4H9.4c-0.3,0-0.5-0.2-0.5-0.5
				c0-0.3,0.2-0.5,0.5-0.5h1.7c0.2-0.2,0.5-0.4,0.8-0.4c0.3,0,0.6,0.2,0.8,0.4h1.7c0.3,0,0.5,0.2,0.5,0.5
				C14.9,2.1,14.6,2.4,14.3,2.4 M21.9-0.1H1.8c-0.4,0-0.7,0.3-0.7,0.7v3.2h21.5V0.6C22.6,0.2,22.3-0.1,21.9-0.1"/>
		</g>
		<path id="Shape" class="st5" d="M2.3,0.6c0-0.4,0.3-0.6,0.6-0.7l0.1,0H23c0.4,0,0.6,0.3,0.7,0.6l0,0.1v3.2l1.1,2.6v26.2
			c0,1.1-0.9,2.1-2.1,2.1H3.2c-1.1,0-2.1-0.9-2.1-2.1V6.4l1.1-2.6L2.3,0.6z M13,0.9c-0.3,0-0.5,0.1-0.7,0.3l-0.1,0.1h-1.7
			c-0.3,0-0.5,0.2-0.5,0.5c0,0.3,0.2,0.5,0.5,0.5l0.1,0h1.7c0.2,0.2,0.5,0.4,0.8,0.4c0.3,0,0.5-0.1,0.7-0.3l0.1-0.1h1.7
			c0.3,0,0.5-0.2,0.5-0.5c0-0.3-0.2-0.5-0.5-0.5l-0.1,0h-1.7C13.6,1.1,13.3,0.9,13,0.9z"/>
		<path class="st1" d="M13,12.4c-3.3,0-6,2.7-6,6c0,3.3,2.7,6,6,6c3.3,0,6-2.7,6-6C19,15.1,16.3,12.4,13,12.4z M13.6,23.1
			C13.6,23.1,13.6,23.1,13.6,23.1L13.6,23.1l-1.1,0.1h0c0,0,0,0,0-0.1c-0.3-2.9-1.1-5.7-3.6-8.2c2,1.1,3.2,2.8,3.9,4.7l1-6l0,6.2
			c0.8-1.1,1.9-2.1,3.5-2.7C14.6,18.9,13.8,20.9,13.6,23.1z"/>
	</g>
	<g id="Clip-2_00000101824514440550210520000003830131477249780867_">
	</g>
	<path class="st1" d="M34.4,35.6c0,0-0.1,0-0.1,0c-0.1-1.8-1.6-3.3-3.4-3.3c-0.3,0-0.6,0-0.8,0.1c-0.9-1.5-2.6-2.5-4.5-2.5
		c0,0-0.1,0-0.1,0c-0.2-1-1.1-1.7-2.1-1.7c-0.5,0-1,0.2-1.4,0.5c-1.2-1-2.7-1.6-4.3-1.6c-2.5,0-4.7,1.4-5.8,3.4
		c-0.5-0.4-1.2-0.6-1.9-0.6c-1.8,0-3.2,1.4-3.2,3.2c0,0.2,0,0.4,0.1,0.6c-0.1,0-0.3,0-0.4,0c-1.3,0-2.4,0.9-2.7,2.1l0,0
		c-1.3,0-2.3,1-2.4,2.3h4.8H36c0.1-0.2,0.2-0.5,0.2-0.8C36.2,36.3,35.4,35.6,34.4,35.6z M5.9,36.5c-0.3,0-0.5-0.2-0.5-0.5
		c0-0.3,0.2-0.5,0.5-0.5s0.5,0.2,0.5,0.5C6.4,36.3,6.2,36.5,5.9,36.5z M9.5,33.2c-0.4,0-0.6-0.3-0.6-0.6c0-0.4,0.3-0.6,0.6-0.6
		c0.4,0,0.6,0.3,0.6,0.6C10.2,32.9,9.9,33.2,9.5,33.2z M13.8,36.3c-0.6,0-1.1-0.5-1.1-1.1c0-0.6,0.5-1.1,1.1-1.1
		c0.6,0,1.1,0.5,1.1,1.1C14.9,35.8,14.4,36.3,13.8,36.3z M16.5,31.2c-0.4,0-0.7-0.3-0.7-0.7c0-0.4,0.3-0.7,0.7-0.7
		c0.4,0,0.7,0.3,0.7,0.7C17.2,30.9,16.9,31.2,16.5,31.2z M19.7,36.4c-0.7,0-1.3-0.6-1.3-1.3c0-0.7,0.6-1.3,1.3-1.3
		c0.7,0,1.3,0.6,1.3,1.3C21,35.8,20.4,36.4,19.7,36.4z M22.6,31.8c-0.3,0-0.6-0.3-0.6-0.6c0-0.3,0.3-0.6,0.6-0.6
		c0.3,0,0.6,0.3,0.6,0.6C23.2,31.5,23,31.8,22.6,31.8z M26.3,35.7c-0.6,0-1.1-0.5-1.1-1.1c0-0.6,0.5-1.1,1.1-1.1
		c0.6,0,1.1,0.5,1.1,1.1C27.4,35.2,26.9,35.7,26.3,35.7z M31.2,36.1c-0.3,0-0.6-0.3-0.6-0.6s0.3-0.6,0.6-0.6c0.3,0,0.6,0.3,0.6,0.6
		S31.5,36.1,31.2,36.1z"/>
</g>
</svg>
