<?xml version="1.0" encoding="UTF-8"?>
<svg width="40px" height="40px" viewBox="0 0 40 40" version="1.1" xmlns="http://www.w3.org/2000/svg" xmlns:xlink="http://www.w3.org/1999/xlink">
    <title>TecnologiaHidroponica_40x40</title>
    <defs>
        <polygon id="path-1" points="1.63772336e-05 0.017039999 33.999998 0.017039999 33.999998 25.4399985 1.63772336e-05 25.4399985"></polygon>
    </defs>
    <g id="TecnologiaHidroponica_40x40" stroke="none" stroke-width="1" fill="none" fill-rule="evenodd">
        <g id="Group-20" transform="translate(3.000000, 8.000000)">
            <path d="M32.962926,23.3383506 L32.962926,16.786511 C32.962926,16.164831 32.4570861,15.6589911 31.8354861,15.6589911 L28.3276463,15.6589911 C28.3273263,15.6589911 28.3269263,15.6591511 28.3266063,15.6591511 C28.3262063,15.6591511 28.3258863,15.6589911 28.3254063,15.6589911 L27.4134864,15.6589911 L17.8462069,15.6589911 L17.334527,15.6589911 C17.334047,15.6589911 17.333567,15.6591511 17.333007,15.6591511 C17.332607,15.6591511 17.332047,15.6589911 17.331487,15.6589911 L16.684127,15.6589911 L8.16724751,15.6589911 L6.47988761,15.6589911 C6.47876761,15.6589911 6.47772761,15.6591511 6.47668761,15.6591511 C6.47540761,15.6591511 6.47412761,15.6589911 6.47284761,15.6589911 L2.82964783,15.6589911 C2.20796787,15.6589911 1.7022079,16.164831 1.7022079,16.786511 L1.7022079,23.3383506 C1.7022079,23.9600306 2.20796787,24.4658705 2.82964783,24.4658705 L31.8354861,24.4658705 C32.4570861,24.4658705 32.962926,23.9600306 32.962926,23.3383506 M30.8038062,20.4468308 C30.7054862,20.5451508 30.5697262,20.6059508 30.4195662,20.6059508 L4.24556775,20.6059508 C3.94524776,20.6059508 3.70228778,20.3624308 3.70228778,20.0626708 C3.70228778,19.9125108 3.76300778,19.7766708 3.86132777,19.6785108 C3.95956776,19.5801108 4.09540776,19.5194708 4.24556775,19.5194708 L7.03284758,19.5194708 L8.09212752,19.5194708 L16.698927,19.5194708 L17.7819669,19.5194708 L27.4283664,19.5194708 L28.5108463,19.5194708 L30.4195662,19.5194708 C30.7198062,19.5194708 30.9628462,19.7624308 30.9628462,20.0626708 C30.9628462,20.2128308 30.9020462,20.3481108 30.8038062,20.4468308" id="Fill-1" fill="#F2D557"></path>
            <path d="M18.2780469,5.57554367 C18.2847669,5.57290367 18.2916469,5.57042367 18.2986069,5.56794367 C18.9554869,5.34098368 19.5311668,4.9853837 20.0096468,4.51098373 C21.1110067,3.4197838 21.3295667,2.07282388 21.3558067,1.31778392 C21.2960467,1.31554392 21.2366067,1.31442392 21.1774067,1.31442392 C19.6174068,1.31442392 18.2372469,2.10722387 17.6988469,3.3682638 C17.312527,4.27386375 17.477087,5.17474369 17.6650869,5.74098366 C17.8718069,5.69970366 18.0768469,5.64434366 18.2780469,5.57554367" id="Fill-3" fill="#6BA103"></path>
            <path d="M11.5261353,8.4473355 C11.3746153,10.0738154 12.0983753,11.5810153 13.3749352,12.2100553 C14.2657351,12.6490152 15.1864551,12.5238953 15.7419751,12.3729353 C15.6480551,11.7194153 15.3790151,10.7950154 14.6416551,9.96517541 C13.6130152,8.80749548 12.2791753,8.51525549 11.5261353,8.4473355" id="Fill-5" fill="#6BA103"></path>
            <path d="M22.3908227,8.4473355 C22.2393027,10.0738154 22.9630626,11.5810153 24.2396226,12.2100553 C25.1293825,12.6484552 26.0482624,12.5249353 26.6069824,12.3730953 C26.5114624,11.7056553 26.2389824,10.7896554 25.5063425,9.96517541 C24.4777025,8.80749548 23.1438626,8.51525549 22.3908227,8.4473355" id="Fill-7" fill="#6BA103"></path>
            <path d="M29.0256623,5.56428767 C29.6783822,5.33668768 30.2503022,4.9823677 30.7263022,4.51084773 C31.8275021,3.4196478 32.0461421,2.07276788 32.0723021,1.31780792 C30.4401422,1.25436793 28.9743823,2.05940788 28.4154223,3.3681278 C28.0239823,4.28564774 28.2097423,5.21388769 28.3822223,5.74060766 C28.6003823,5.69692766 28.8156623,5.63796766 29.0256623,5.56428767" id="Fill-9" fill="#6BA103"></path>
            <path d="M8.28242351,5.54335167 C8.4090635,5.51815167 8.53466349,5.48759167 8.66114348,5.45143168 C9.42298344,5.23351169 10.0842634,4.85063171 10.6265834,4.31335174 C11.7278633,3.22215181 11.9464233,1.87519189 11.9725833,1.12023193 C11.9129033,1.11799193 11.8535433,1.11687193 11.7942633,1.11687193 C10.2342634,1.11687193 8.85410347,1.90975189 8.3157035,3.17071181 C7.97226352,3.97591176 8.07170352,4.78407171 8.21570351,5.32015168 C8.23586351,5.39535168 8.25818351,5.46999167 8.28242351,5.54335167" id="Fill-11" fill="#6BA103"></path>
            <path d="M5.0647677,11.3104633 C4.86860771,10.7328634 4.56828773,10.2137434 4.17188775,9.76750342 C3.14332781,8.60990349 1.80956789,8.3176635 1.05652794,8.24982351 C0.905007946,9.87630341 1.6287679,11.3835033 2.90532783,12.0124633 C3.80836777,12.4575833 4.74916772,12.3169433 5.27220769,12.1752633 C5.22996769,11.8827033 5.15980769,11.5894233 5.0648477,11.3109433 L5.0647677,11.3104633 Z" id="Fill-13" fill="#6BA103"></path>
            <path d="M28.5108863,19.5194468 L27.4283264,19.5194468 L17.7820069,19.5194468 L16.698967,19.5194468 L8.09216752,19.5194468 L7.03288758,19.5194468 L4.24552775,19.5194468 C4.09544776,19.5194468 3.95960776,19.5801668 3.86128777,19.6784868 C3.76304778,19.7767268 3.70232778,19.9124868 3.70232778,20.0626468 C3.70232778,20.3624068 3.94528776,20.6059268 4.24552775,20.6059268 L30.4196062,20.6059268 C30.5696862,20.6059268 30.7055262,20.5451268 30.8037662,20.4468868 C30.9020862,20.3480868 30.9628062,20.2128068 30.9628062,20.0626468 C30.9628062,19.7624068 30.7198462,19.5194468 30.4196062,19.5194468 L28.5108863,19.5194468 Z" id="Fill-15" fill="#000000"></path>
            <g id="Group-19" transform="translate(0.000000, 0.062960)">
                <mask id="mask-2" fill="white">
                    <use xlink:href="#path-1"></use>
                </mask>
                <g id="Clip-18"></g>
                <path d="M33.999998,23.2753906 L33.999998,16.723551 C33.999998,15.5300311 33.028958,14.5589911 31.8354381,14.5589911 L28.6199983,14.5589911 C27.1083184,11.8941913 27.9227983,8.12707152 28.3036783,6.7433916 C28.6656783,6.6893916 29.0231183,6.60131161 29.3680782,6.48035161 C30.1668782,6.20171163 30.8695182,5.76579166 31.4562381,5.18467169 C33.144318,3.51203179 33.142318,1.36363192 33.101518,0.744911956 C33.085358,0.49859197 32.897598,0.297871982 32.6529581,0.265151984 C30.3877582,-0.0379679977 28.2529583,1.04475194 27.4615984,2.89803183 C27.4615984,2.89803183 27.4615984,2.89811183 27.4615184,2.89819183 C26.9318384,4.13955175 27.1662384,5.33907168 27.4192784,6.06899164 C27.2768784,6.52499161 26.9431184,7.70187154 26.7851184,9.16955145 C26.7623984,9.38027144 26.7447984,9.58811143 26.7313584,9.79355142 C26.5997584,9.59819143 26.4508784,9.40387144 26.2815984,9.21339145 C24.7047985,7.43875156 22.5583987,7.32163156 21.9382387,7.32851156 C21.6911187,7.33107156 21.4801587,7.50763155 21.4341587,7.75043154 C21.0082387,9.9960314 21.9733587,12.1865913 23.7811986,13.0773112 C24.4033585,13.3838712 25.0282385,13.4863512 25.5855185,13.4863512 C26.1551984,13.4863512 26.6543984,13.3793112 27.0077584,13.2737912 C27.1245584,13.7294712 27.2743984,14.1588312 27.4570384,14.5589911 L27.4135184,14.5589911 L17.8461589,14.5589911 L17.6423989,14.5589911 C16.258959,11.8297913 17.124639,8.12275152 17.525359,6.7525116 C17.9016789,6.7007516 18.2752789,6.61139161 18.6379989,6.48547161 C18.6451189,6.48307161 18.6521589,6.48043161 18.6591189,6.47755161 C19.4551988,6.19907163 20.1551988,5.76403166 20.7396788,5.18467169 C22.4277587,3.51203179 22.4257587,1.36363192 22.3850387,0.744911956 C22.3687987,0.49859197 22.1811187,0.297871982 21.9363987,0.265151984 C19.6711988,-0.0379679977 17.536399,1.04475194 16.745039,2.89819183 C16.233039,4.09811176 16.436879,5.26131169 16.676239,5.99035164 C16.544719,6.37947162 16.166719,7.58491155 15.969439,9.12195146 C15.938479,9.36315144 15.9137591,9.60107143 15.8947991,9.83587141 C15.7566391,9.62635143 15.5983991,9.41763144 15.4168791,9.21339145 C13.8400792,7.43875156 11.6937593,7.32163156 11.0735193,7.32851156 C10.8264794,7.33107156 10.6155194,7.50763155 10.5695194,7.75043154 C10.1435194,9.9960314 11.1086393,12.1865913 12.9164792,13.0773112 C13.5388792,13.3840312 14.1642392,13.4862712 14.7211191,13.4862712 C15.2705591,13.4862712 15.7527191,13.3867512 16.100079,13.2861912 C16.202879,13.7353912 16.336799,14.1605912 16.501999,14.5589911 L8.16719951,14.5589911 L6.84119959,14.5589911 C6.20871963,12.6900312 6.24311963,10.7770714 6.94503959,8.86763147 C7.36855956,7.71579154 7.92839953,6.89043159 8.18279951,6.54851161 C8.4410395,6.51115161 8.69263948,6.45811162 8.94639947,6.38555162 C9.86479941,6.12283164 10.6981594,5.63931166 11.3564793,4.9870717 C13.0445592,3.3144318 13.0426392,1.16603193 13.0018392,0.547391967 C12.9856792,0.300991982 12.7979192,0.100351994 12.5532793,0.067551996 C10.2881594,-0.235487986 8.15327951,0.84715195 7.36183956,2.70067184 C6.90207959,3.77851177 7.02767958,4.83203171 7.21399957,5.52619167 C7.25159957,5.66579166 7.29527957,5.80323165 7.34383956,5.93779165 C7.04519958,6.33899162 6.44911962,7.22707157 5.98639964,8.4700315 C5.83295965,8.88227147 5.68751966,9.35627144 5.57535967,9.88075141 C5.39487968,9.57299143 5.18527969,9.28379145 4.94727971,9.01579146 C3.3704798,7.24123157 1.22415993,7.12403158 0.603919964,7.13099157 C0.356799979,7.13363157 0.145919991,7.31019156 0.099919994,7.55291155 C-0.326079981,9.79851142 0.639039962,11.9889913 2.44679985,12.8797912 C3.07119982,13.1874712 3.69927978,13.2878712 4.25327975,13.2877912 C4.71927972,13.2877912 5.13247969,13.2168312 5.44663968,13.1383512 C5.50919967,13.5977912 5.60887967,14.0723512 5.75383966,14.5589911 L2.82967983,14.5589911 C1.6361599,14.5589911 0.66511996,15.5300311 0.66511996,16.723551 L0.66511996,23.2753906 C0.66511996,24.4689105 1.6361599,25.4400305 2.82967983,25.4400305 L31.8354381,25.4400305 C33.028958,25.4400305 33.999998,24.4689105 33.999998,23.2753906 M28.4153583,3.3051518 C28.9743983,1.99651188 30.4400782,1.19147193 32.0723181,1.25483193 C32.0461581,2.00987188 31.8275181,3.3567518 30.7263182,4.44787173 C30.2503182,4.91939171 29.6783982,5.27371169 29.0256783,5.50131167 C28.8155983,5.57499167 28.6003183,5.63395166 28.3821583,5.67763166 C28.2097583,5.15091169 28.0239983,4.22267175 28.4153583,3.3051518 M24.2395986,12.1470713 C22.9630386,11.5180313 22.2392787,10.0108314 22.3907987,8.3843515 C23.1438386,8.4522715 24.4776785,8.74451148 25.5063185,9.90219141 C26.2389584,10.7267514 26.5114384,11.6427513 26.6069584,12.3101913 C26.0483184,12.4619513 25.1293585,12.5854712 24.2395986,12.1470713 M17.6988789,3.3053118 C18.2372789,2.04427188 19.6174388,1.25147193 21.1773587,1.25147193 C21.2366387,1.25147193 21.2960787,1.25259193 21.3557587,1.25483193 C21.3295187,2.00987188 21.1109587,3.3568318 20.0096788,4.44803173 C19.5311188,4.92243171 18.9554389,5.27803169 18.2985589,5.50499167 C18.2916789,5.50739167 18.2847989,5.50995167 18.2780789,5.51259167 C18.0767989,5.58139167 17.8718389,5.63675166 17.6650389,5.67803166 C17.477119,5.1117917 17.312479,4.21083175 17.6988789,3.3053118 M13.3749592,12.1470713 C12.0983193,11.5180313 11.3746393,10.0108314 11.5261593,8.3843515 C12.2791193,8.4522715 13.6130392,8.74451148 14.6416791,9.90219141 C15.3789591,10.7320314 15.6480791,11.6565113 15.7419991,12.3100313 C15.1864791,12.4609113 14.2656791,12.5861112 13.3749592,12.1470713 M8.3156795,3.10771181 C8.85407947,1.84683189 10.2342394,1.05387194 11.7942393,1.05387194 C11.8535193,1.05387194 11.9129593,1.05507194 11.9726393,1.05731194 C11.9464793,1.81227189 11.7278393,3.15923181 10.6266394,4.25043175 C10.0843194,4.78763171 9.42295944,5.17051169 8.66119948,5.38843168 C8.53471949,5.42459168 8.4090395,5.45515167 8.28239951,5.48043167 C8.25815951,5.40707168 8.23583951,5.33243168 8.21567951,5.25715169 C8.07167952,4.72107172 7.97223952,3.91299177 8.3156795,3.10771181 M2.90527983,11.9495513 C1.6287199,11.3205113 0.905039946,9.81339142 1.05655994,8.18691151 C1.80951989,8.25467151 3.14335981,8.54699149 4.17191975,9.70451142 C4.56831973,10.1507514 4.86863971,10.6699514 5.0647997,11.2474713 L5.0648797,11.2479513 C5.15983969,11.5265113 5.22999969,11.8197913 5.27223969,12.1122713 C4.74911972,12.2539513 3.80839977,12.3945913 2.90527983,11.9495513 M1.7022399,23.2753906 L1.7022399,16.723551 C1.7022399,16.101871 2.20799987,15.5960311 2.82967983,15.5960311 L6.47279961,15.5960311 C6.47407961,15.5960311 6.47535961,15.5961911 6.47663961,15.5961911 C6.47767961,15.5961911 6.47879961,15.5960311 6.47991961,15.5960311 L8.16719951,15.5960311 L16.684159,15.5960311 L17.331519,15.5960311 C17.332079,15.5960311 17.332559,15.5961911 17.333039,15.5961911 C17.333519,15.5961911 17.334079,15.5960311 17.334559,15.5960311 L17.8461589,15.5960311 L27.4135184,15.5960311 L28.3254383,15.5960311 C28.3258383,15.5960311 28.3262383,15.5961911 28.3266383,15.5961911 C28.3269583,15.5961911 28.3272783,15.5960311 28.3276783,15.5960311 L31.8354381,15.5960311 C32.4571181,15.5960311 32.962958,16.101871 32.962958,16.723551 L32.962958,23.2753906 C32.962958,23.8970706 32.4571181,24.4029105 31.8354381,24.4029105 L2.82967983,24.4029105 C2.20799987,24.4029105 1.7022399,23.8970706 1.7022399,23.2753906" id="Fill-17" fill="#000000" mask="url(#mask-2)"></path>
            </g>
        </g>
        <rect id="Rectangle" fill="#000000" x="8" y="23" width="3" height="2"></rect>
        <rect id="Rectangle-Copy" fill="#000000" x="19" y="23" width="3" height="2"></rect>
        <rect id="Rectangle-Copy-2" fill="#000000" x="30" y="23" width="3" height="2"></rect>
    </g>
</svg>