<svg xmlns="http://www.w3.org/2000/svg" xmlns:xlink="http://www.w3.org/1999/xlink" width="153.664" height="153.664" viewBox="0 0 153.664 153.664">
  <defs>
    <clipPath id="clip-path">
      <rect id="Rectángulo_32" data-name="Rectángulo 32" width="153.664" height="153.664" fill="none"/>
    </clipPath>
  </defs>
  <g id="Grupo_62" data-name="Grupo 62" transform="translate(0 0)">
    <g id="Grupo_61" data-name="Grupo 61" transform="translate(0 0)" clip-path="url(#clip-path)">
      <path id="Trazado_295" data-name="Trazado 295" d="M153.664,76.833A76.832,76.832,0,1,1,76.831,0a76.833,76.833,0,0,1,76.833,76.833" transform="translate(0 -0.001)" fill="#e8eae4"/>
      <path id="Trazado_296" data-name="Trazado 296" d="M24.711,29.313l7.927,40.77s5.892-.543,8.192,0,13.643,1.286,15.364.384,10.116.422,10.116.422l6.836-41.082Z" transform="translate(27.14 32.193)" fill="#524547"/>
      <path id="Trazado_297" data-name="Trazado 297" d="M101.051,77.877V47.712c-3.345-.588-6.8,1.987-10.33,1.895-3.145-.082-6.014-2.293-9.149-2.035-3.034.25-5.726,2.791-8.725,2.285-1.708-.285-3.1-1.519-4.736-2.073-4.461-1.507-9.193,2.3-13.849,1.58-2.94-.453-5.462-2.673-8.437-2.734-2.875-.061-5.409,1.914-8.259,2.319-4.927.7-9.656-3.361-14.558-2.493A14.982,14.982,0,0,0,19.1,47.943a10.716,10.716,0,0,0-2.734,1.737v28.2Z" transform="translate(17.975 50.886)" fill="#7dcef1"/>
      <path id="Trazado_298" data-name="Trazado 298" d="M36.746,47.223c.583-1.085,1.215-2.037,1.758-3,.141-.237.26-.483.39-.722s.222-.462.332-.707l.162-.4.08-.2.019-.05c0-.01-.017.042-.006.015l0-.013.006-.023.031-.1c.073-.258.17-.5.227-.762a13.471,13.471,0,0,0,.4-3.087c0-.25,0-.5,0-.734s-.021-.46-.031-.684c-.023-.248-.046-.489-.069-.726-.017-.18-.065-.424-.1-.625s-.067-.413-.1-.613a5.5,5.5,0,0,0-.111-.577c-.09-.367-.174-.716-.254-1.041-.061-.229.134-2.558.073-2.753h1.278l.013.044c.08.357-.08,2.87.01,3.284.05.2.078.424.111.65s.065.455.1.692.073.457.1.751c.019.239.036.481.055.728.008.275.015.556.023.839s-.008.562-.015.85a15.45,15.45,0,0,1-.546,3.58c-.073.308-.193.592-.29.894l-.038.111-.029.082-.021.048-.084.2-.17.394c-.128.271-.275.56-.413.829-.147.25-.287.516-.439.757-.6.995-1.248,1.905-1.815,2.894A11.458,11.458,0,0,0,36.1,51.365a8.14,8.14,0,0,0-.17,1.838c0,.153.021.3.029.453l.029.222L36,53.99l0,.027,0,.015v.006l.006.031a7.689,7.689,0,0,0,.222.9,20.831,20.831,0,0,0,1.41,3.059c.128.245.245.518.363.774l.055.122.036.1.073.2c.05.132.1.262.145.392s.1.26.143.39.08.29.12.432c.078.29.159.569.225.85s.1.562.155.837c.023.136.048.273.071.407l.044.409c.029.269.057.531.084.787s.023.514.036.76.015.485.023.716c-.01.231-.019.453-.027.669s-.015.42-.023.617-.04.384-.059.56c-.042.355-.069.674-.113.944s-.094.5-.132.682c-.071.371-.109.571-.109.571l-.308-.2s.031-.189.092-.546c.031-.176.067-.394.111-.65s.055-.564.088-.9c.013-.17.036-.344.044-.531s.006-.38.008-.583.008-.411.013-.63c-.013-.216-.025-.441-.038-.669s-.017-.47-.046-.709-.061-.481-.094-.732c-.017-.124-.031-.25-.048-.378s-.05-.248-.076-.376c-.052-.25-.107-.508-.159-.768A13.1,13.1,0,0,0,37.2,58.625a20.1,20.1,0,0,1-1.565-3.2,8.24,8.24,0,0,1-.266-.976l-.013-.059-.01-.055,0-.017,0-.034-.021-.138-.042-.279c-.017-.189-.04-.378-.048-.569a9.92,9.92,0,0,1,.157-2.254,13.361,13.361,0,0,1,1.366-3.827" transform="translate(38.673 33.416)" fill="#8d6e43"/>
      <path id="Trazado_299" data-name="Trazado 299" d="M36.365,30.425l.008.036c.21.81.384,4.075,1.135,5.319.376.632.812,1.3,1.282,2.033A28.5,28.5,0,0,1,40.23,40.3a18.3,18.3,0,0,1,1.248,3.189,15.849,15.849,0,0,1,.407,1.884l.067.46c.021.157.034.342.05.512.04.35.052.692.059,1.032a12.735,12.735,0,0,1-.51,4.058,11.9,11.9,0,0,1-1.58,3.185,21.328,21.328,0,0,0-1.561,2.606,7.99,7.99,0,0,0-.776,2.828l-.025.353.013.344c0,.1.006.206.01.306.019.122.036.243.055.361s.034.237.052.353.046.2.069.3c.044.2.088.394.145.6.1.4.2.8.29,1.169a8.7,8.7,0,0,1,.157,1.106,5.211,5.211,0,0,1-.1,1.643,4.554,4.554,0,0,1-.172.539l-.269-.306a4.312,4.312,0,0,0,.111-.428A4.18,4.18,0,0,0,38,65.057a7.392,7.392,0,0,0-.176-.944c-.094-.34-.191-.7-.315-1.106-.059-.191-.118-.415-.178-.653-.029-.118-.061-.235-.09-.355s-.044-.233-.065-.35-.042-.235-.065-.355c-.023-.2-.023-.294-.036-.449s-.019-.283-.027-.428.01-.29.015-.436a9.728,9.728,0,0,1,.8-3.389,21.265,21.265,0,0,1,1.57-2.835,11.327,11.327,0,0,0,1.355-2.891,10.85,10.85,0,0,0,.38-3.45c-.01-.3-.025-.588-.061-.862-.015-.143-.023-.273-.044-.424l-.073-.457a15.692,15.692,0,0,0-.371-1.63,16.38,16.38,0,0,0-1.15-2.862,26.888,26.888,0,0,0-1.4-2.356c-.466-.724-.915-1.412-1.311-2.082a16.841,16.841,0,0,1-1.007-1.935,11.26,11.26,0,0,1-.6-1.691c-.057-.2.2-2.514.168-2.692Z" transform="translate(38.6 33.415)" fill="#8d6e43"/>
      <path id="Trazado_300" data-name="Trazado 300" d="M35.476,55.449c.1-.332.191-.543.317-.856l.38-.806c.531-1.032,1.152-1.935,1.733-2.86l.837-1.423.418-.709.38-.751q.378-.749.751-1.49c.237-.5.441-1.02.659-1.519.445-.965.8-2.044,1.165-3.047a20.164,20.164,0,0,0,.806-2.818c.04-.22.086-.413.12-.64.027-.243.052-.483.078-.716l.019-.176.006-.044v-.069l.006-.308a5.756,5.756,0,0,0,0-.6,14.237,14.237,0,0,0-.252-2.144c-.128-.634-1.408-3.191-1.523-3.634l-.036-.136,1.23-.413c.088.392,1.366,3.275,1.458,3.8a16.84,16.84,0,0,1,.239,2.52c.015.237,0,.485-.01.736-.006.126-.013.254-.017.382l0,.048,0,.023v.013l-.006.063-.01.088-.023.172c-.031.233-.061.47-.094.713s-.1.529-.162.8a21.025,21.025,0,0,1-.959,3.087c-.384.988-.757,2.031-1.259,3.057-.243.516-.474,1.058-.732,1.565s-.539,1-.812,1.5l-.409.757-.449.709-.9,1.421c-.617.917-1.24,1.765-1.752,2.69-.12.239-.241.476-.359.713a7.5,7.5,0,0,0-.3.757,8.166,8.166,0,0,0-.388,1.58,6.664,6.664,0,0,0-.057,1.588l.038.378c.023.126.048.25.071.373a6.628,6.628,0,0,0,.183.678c.29.89.684,1.649.988,2.4.08.208.143.367.212.56s.13.378.176.567a8.444,8.444,0,0,1,.231,1.062,6.481,6.481,0,0,1,.04,1.635l-.1.573-.3-.2s.025-.164.073-.472A5.5,5.5,0,0,0,37.1,65.25a8.066,8.066,0,0,0-.227-.932c-.046-.168-.111-.321-.17-.493s-.145-.359-.212-.52c-.306-.7-.72-1.427-1.07-2.409a7.383,7.383,0,0,1-.235-.8c-.029-.138-.059-.277-.088-.418s-.04-.3-.059-.457a8.185,8.185,0,0,1,.025-1.907,9.756,9.756,0,0,1,.415-1.87" transform="translate(38.43 33.262)" fill="#8d6e43"/>
      <path id="Trazado_301" data-name="Trazado 301" d="M45.7,48.138l-.044-.279-.01-.069c-.017-.092-.006-.038-.013-.063l0-.019-.008-.038-.038-.151-.149-.6a10.24,10.24,0,0,0-.407-1.1A9.228,9.228,0,0,0,43.982,44l-.292-.384-.313-.359c-.22-.262-.384-.4-.611-.634-.42-.355-.833-.749-1.244-1.041L40.348,40.7c-.373-.266-.745-.594-1.1-.875a13.539,13.539,0,0,1-1.739-1.861,15.291,15.291,0,0,1-1.257-1.882,16.566,16.566,0,0,1-.8-1.593c-.2-.422-.346-.841-.449-1.11-.046-.128,1.949-2.516,1.846-2.889H35.194c.214.644-1.775,3.164-1.458,3.978.1.269.254.655.516,1.181a17.179,17.179,0,0,0,.953,1.777,16.611,16.611,0,0,0,1.452,2.031c.147.17.292.35.447.52s.321.329.485.5a6.269,6.269,0,0,0,.518.485c.187.159.348.313.562.485.371.266.734.562,1.144.831s.8.548,1.215.833c.415.269.787.6,1.192.911.166.157.415.367.571.55l.264.283.26.321a7.2,7.2,0,0,1,.913,1.479,8.125,8.125,0,0,1,.348.862l.126.466.031.115.008.029,0,.015c0-.01,0,.023,0,.008l.006.034.05.277a8.166,8.166,0,0,1-.29,3.974l-.172.436-.021.055-.006.013c.023-.042,0,0,.006-.008l-.015.027-.057.113-.115.225a6.416,6.416,0,0,1-.464.747,13.147,13.147,0,0,1-1.108,1.326A14.406,14.406,0,0,0,40.32,58.14a7.848,7.848,0,0,0-.747,1.916,11.468,11.468,0,0,0-.256,2.086c-.031,1.355.076,2.56.12,3.6a17.93,17.93,0,0,1-.042,2.524c.12.141.233.29.342.447.006-.042.015-.076.021-.12a18.4,18.4,0,0,0,.128-2.891c-.023-1.091-.1-2.275-.042-3.508A9.941,9.941,0,0,1,40.1,60.4a6.475,6.475,0,0,1,.669-1.58,12.974,12.974,0,0,1,2.186-2.484,12.826,12.826,0,0,0,1.223-1.355,7.371,7.371,0,0,0,.577-.864l.12-.218.059-.111.015-.027.019-.038.008-.017.029-.065.227-.533a10.085,10.085,0,0,0,.468-4.971" transform="translate(37.014 33.483)" fill="#8d6e43"/>
      <path id="Trazado_302" data-name="Trazado 302" d="M38.259,50.8c.508-.932,1.047-1.775,1.54-2.64.237-.436.489-.871.705-1.309l.327-.655c.109-.218.21-.464.315-.69l.155-.346c.021-.05.061-.132.067-.155l.067-.174c.086-.233.172-.462.258-.69s.176-.447.248-.68.141-.466.21-.695.136-.455.2-.68.107-.46.162-.684c.1-.455.22-.885.281-1.33s.151-.856.21-1.267.088-.814.13-1.194.048-.751.071-1.1.044-.678.038-.98c-.015-.611-3.307-5.248-3.324-5.481h.959c.015.225,3.322,4.883,3.336,5.556.006.34-.027.688-.04,1.066s-.021.776-.076,1.183-.092.841-.141,1.286-.149.9-.227,1.368-.2.94-.313,1.427c-.059.241-.113.491-.178.734s-.151.483-.227.728-.153.5-.231.745-.18.483-.273.728-.189.491-.285.736l-.071.187c-.04.1-.057.126-.086.191l-.157.344c-.109.231-.208.464-.327.7l-.365.7c-.245.474-.506.9-.764,1.351-.531.885-1.087,1.712-1.574,2.568A10.7,10.7,0,0,0,37.711,54.4a7.1,7.1,0,0,0-.208,1.5l0,.189,0,.088,0,.015,0,.052.025.42.013.21c.006.065.017.118.025.176l.052.342a14.822,14.822,0,0,0,.791,2.692c.308.839.625,1.609.846,2.386a5.993,5.993,0,0,1,.239,2.285,3.023,3.023,0,0,1-.464,1.353.937.937,0,0,1-.216.235c-.05.046-.755.841-.755.841l-.134-.5.73-.827a.746.746,0,0,0,.143-.185,2.4,2.4,0,0,0,.3-1.041c0-.12.015-.229.006-.407l0-.122-.013-.09-.031-.227a3.1,3.1,0,0,0-.088-.476c-.019-.082-.04-.164-.059-.248s-.052-.164-.08-.246c-.22-.686-.552-1.414-.894-2.241a15.455,15.455,0,0,1-.953-2.891,8.4,8.4,0,0,1-.136-.9l-.036-.418,0-.052-.006-.094,0-.12v-.237a8.89,8.89,0,0,1,.218-1.88A12.342,12.342,0,0,1,38.259,50.8" transform="translate(40.408 33.004)" fill="#8d6e43"/>
      <path id="Trazado_303" data-name="Trazado 303" d="M40.553,47.223c-.583-1.085-1.215-2.037-1.758-3-.141-.237-.26-.483-.39-.722s-.222-.462-.332-.707l-.162-.4-.078-.2-.021-.05c0-.01.019.042.006.015l0-.013-.008-.023-.029-.1c-.076-.258-.172-.5-.227-.762a13.592,13.592,0,0,1-.4-3.087c0-.25,0-.5,0-.734s.021-.46.031-.684c.023-.248.046-.489.069-.726.017-.18.067-.424.1-.625s.067-.413.1-.613a5.011,5.011,0,0,1,.109-.577c.09-.367.176-.716.256-1.041.059-.229.386-2.558.447-2.753h-1.28l-.01.044c-.08.357-.441,2.87-.533,3.284a6.361,6.361,0,0,0-.109.65c-.034.225-.065.455-.1.692s-.071.457-.1.751c-.017.239-.036.481-.055.728-.006.275-.015.556-.023.839s.008.562.015.85a15.564,15.564,0,0,0,.546,3.58c.073.308.193.592.29.894l.038.111.029.082L37,42.98l.084.2.17.394c.13.271.275.56.415.829.145.25.285.516.439.757.6.995,1.246,1.905,1.813,2.894A11.458,11.458,0,0,1,41.2,51.365a8.262,8.262,0,0,1,.17,1.838c0,.153-.021.3-.029.453l-.029.222-.013.111,0,.027,0,.015v.006l-.006.031a7.692,7.692,0,0,1-.222.9,20.834,20.834,0,0,1-1.41,3.059c-.128.245-.246.518-.363.774l-.055.122-.036.1-.073.2c-.05.132-.1.262-.147.392s-.094.26-.141.39-.08.29-.12.432c-.078.29-.159.569-.225.85s-.1.562-.155.837c-.025.136-.048.273-.073.407l-.044.409c-.027.269-.057.531-.084.787s-.021.514-.034.76-.015.485-.023.716c.008.231.017.453.025.669s.017.42.025.617.04.384.057.56c.044.355.126,1.156.168,1.429a18.331,18.331,0,0,0,.42,2.176l.311-.2a20.281,20.281,0,0,1-.382-2.119c-.036-.26-.109-1.047-.143-1.381-.013-.17-.036-.344-.044-.531s-.006-.38-.01-.583-.006-.411-.01-.63c.013-.216.025-.441.038-.669s.017-.47.046-.709.061-.481.094-.732c.015-.124.031-.25.048-.378s.05-.248.076-.376c.052-.25.1-.508.159-.768A13.1,13.1,0,0,1,40.1,58.625a19.922,19.922,0,0,0,1.565-3.2,8.239,8.239,0,0,0,.266-.976l.013-.059.01-.055,0-.017,0-.034.021-.138.042-.279c.017-.189.04-.378.048-.569a9.919,9.919,0,0,0-.157-2.254,13.3,13.3,0,0,0-1.366-3.827" transform="translate(39.602 33.416)" fill="#a8916f"/>
      <path id="Trazado_304" data-name="Trazado 304" d="M39.939,30.326c-.088.336,1.507,1.767,1.335,2.524A11.6,11.6,0,0,1,40.256,35.9c-.373.632-.81,1.3-1.28,2.033a27.181,27.181,0,0,0-1.439,2.486,18.136,18.136,0,0,0-1.248,3.189,15.846,15.846,0,0,0-.409,1.884l-.067.46c-.021.155-.034.34-.05.51-.038.353-.05.695-.059,1.034a12.8,12.8,0,0,0,.51,4.058,12.044,12.044,0,0,0,1.58,3.183,21.213,21.213,0,0,1,1.563,2.608,7.98,7.98,0,0,1,.776,2.826c.008.12.017.237.023.353l-.013.344c0,.1-.006.208-.01.308-.017.122-.036.241-.052.361s-.036.235-.055.35-.046.2-.069.3c-.044.2-.088.394-.145.6-.1.4-.2.8-.29,1.169a9.1,9.1,0,0,0-.157,1.106,5.123,5.123,0,0,0,.1,1.641,4.067,4.067,0,0,0,.17.539l.271-.3a4.062,4.062,0,0,1-.113-.428,4.191,4.191,0,0,1-.023-1.339,7.429,7.429,0,0,1,.176-.942c.094-.342.193-.7.315-1.108.059-.191.12-.415.178-.65.031-.118.061-.237.092-.357s.042-.231.063-.348.042-.237.065-.357c.023-.2.023-.294.036-.447s.019-.285.027-.428-.01-.29-.015-.436a9.716,9.716,0,0,0-.8-3.389,21.258,21.258,0,0,0-1.567-2.835,11.331,11.331,0,0,1-1.358-2.891,10.917,10.917,0,0,1-.38-3.45c.01-.3.025-.59.061-.862.017-.143.023-.273.046-.424l.073-.457a15.051,15.051,0,0,1,.369-1.63A16.471,16.471,0,0,1,38.3,41.3c.443-.864.923-1.624,1.393-2.356s.917-1.412,1.314-2.082a16.993,16.993,0,0,0,1.007-1.933,11.25,11.25,0,0,0,.594-1.693c.059-.2-1.018-2.728-.982-2.906,0,0-1.685-.013-1.689,0" transform="translate(39.206 33.3)" fill="#a8916f"/>
      <path id="Trazado_305" data-name="Trazado 305" d="M43.521,55.295c-.1-.332-.191-.543-.317-.856q-.189-.4-.378-.806c-.533-1.032-1.154-1.935-1.735-2.86-.277-.474-.558-.948-.837-1.423l-.418-.709-.38-.751q-.378-.749-.751-1.49c-.235-.5-.441-1.02-.659-1.519-.445-.965-.8-2.044-1.162-3.047a19.9,19.9,0,0,1-.808-2.818c-.038-.22-.086-.413-.12-.64-.027-.243-.052-.483-.078-.716l-.019-.176,0-.044v-.01l0-.019v-.04c0-.1,0-.206,0-.308a5.764,5.764,0,0,1,0-.6,14.5,14.5,0,0,1,.254-2.144c.126-.634.552-3.313.665-3.754.015-.052.023-.088.036-.136H35.556c-.088.392-.487,2.982-.579,3.506a16.549,16.549,0,0,0-.241,2.52c-.013.237,0,.485.013.736.006.126.01.254.017.382l0,.048v.023l0,.013,0,.063.013.088.023.172c.029.233.061.47.092.713s.107.529.162.8a21.025,21.025,0,0,0,.959,3.087c.386.988.757,2.031,1.261,3.057.241.516.472,1.058.73,1.565s.539,1,.812,1.5l.411.757.447.709.9,1.421c.617.917,1.24,1.765,1.752,2.69.12.239.241.476.361.713a8.019,8.019,0,0,1,.3.757,8.165,8.165,0,0,1,.388,1.58,6.663,6.663,0,0,1,.057,1.588L43.4,59.3c-.023.126-.048.25-.071.373a6.63,6.63,0,0,1-.183.678c-.29.89-.684,1.649-.988,2.4-.08.208-.145.367-.212.56s-.13.378-.176.567a8.439,8.439,0,0,0-.231,1.062,6.482,6.482,0,0,0-.04,1.635l.1.573.3-.2s-.025-.164-.073-.472A5.4,5.4,0,0,1,41.9,65.1a8.068,8.068,0,0,1,.227-.932c.046-.168.111-.321.17-.493s.145-.359.212-.52c.306-.7.72-1.427,1.07-2.409a7.386,7.386,0,0,0,.235-.8c.029-.138.059-.277.088-.418s.04-.3.059-.457a8.184,8.184,0,0,0-.025-1.907,9.755,9.755,0,0,0-.415-1.87" transform="translate(38.144 33.416)" fill="#a8916f"/>
      <path id="Trazado_306" data-name="Trazado 306" d="M40.435,60.937a9.767,9.767,0,0,1,.26,1.792c.057,1.234-.019,2.417-.042,3.508a27.583,27.583,0,0,0,.225,3.164,6.328,6.328,0,0,1,.355-.577c-.034-.585-.164-1.811-.13-2.547.044-1.043.151-2.247.12-3.6a11.472,11.472,0,0,0-.258-2.086,7.831,7.831,0,0,0-.747-1.914,14.326,14.326,0,0,0-2.243-2.772,13.146,13.146,0,0,1-1.108-1.326,6.691,6.691,0,0,1-.466-.745l-.113-.227L36.23,53.5l-.015-.029c0,.006-.017-.031,0,.01l0-.015-.021-.055-.174-.434A8.159,8.159,0,0,1,35.73,49l.05-.279.006-.031c0,.013,0-.019,0-.008l0-.015.006-.029.034-.118.126-.464a8.118,8.118,0,0,1,.346-.862,7.353,7.353,0,0,1,.913-1.479l.258-.319.266-.283c.155-.183.4-.392.569-.55.4-.308.778-.642,1.192-.911s.818-.562,1.215-.833.77-.562,1.144-.831c.214-.172.376-.323.56-.483a5.671,5.671,0,0,0,.518-.487c.166-.168.327-.334.487-.5s.3-.35.445-.52a16.452,16.452,0,0,0,1.452-2.031,18.017,18.017,0,0,0,.953-1.775c.26-.527.4-.915.514-1.181.076-.187-2.6-4.161-2.738-5.082l-1.49.193c-.1.369,2.528,3.9,2.558,4.037a.987.987,0,0,1-.044.873,16.565,16.565,0,0,1-.8,1.593,15.183,15.183,0,0,1-1.255,1.882,13.5,13.5,0,0,1-1.737,1.859c-.359.281-.728.608-1.1.875q-.576.431-1.175.885c-.409.292-.825.684-1.244,1.039-.227.231-.39.373-.611.634l-.311.359-.292.384A9.149,9.149,0,0,0,35.5,46.367a10.712,10.712,0,0,0-.4,1.1l-.149.6-.038.151-.008.038,0,.019c-.006.025,0-.031-.013.063l-.01.069-.044.279a10.092,10.092,0,0,0,.468,4.967l.229.533.029.067.008.015.019.04.015.027.059.109.12.218a7.369,7.369,0,0,0,.577.864,12.59,12.59,0,0,0,1.223,1.353,13.037,13.037,0,0,1,2.186,2.484,6.379,6.379,0,0,1,.669,1.578" transform="translate(38.121 32.874)" fill="#a8916f"/>
      <path id="Trazado_307" data-name="Trazado 307" d="M39.772,50.5c-.508-.932-1.047-1.775-1.54-2.64-.237-.436-.489-.871-.705-1.309L37.2,45.9c-.109-.218-.21-.464-.315-.69l-.155-.346c-.021-.05-.063-.132-.067-.155l-.067-.174c-.086-.233-.172-.462-.258-.69s-.176-.447-.248-.68-.141-.466-.21-.695-.136-.455-.2-.68-.107-.46-.162-.684c-.1-.455-.22-.885-.281-1.33s-.151-.856-.21-1.267-.088-.814-.13-1.194-.048-.751-.071-1.1-.044-.678-.038-.98c.015-.611,2.117-4.677,2.134-4.912h-.961c-.017.229-2.13,4.314-2.144,4.988-.006.34.027.688.04,1.066s.021.776.078,1.183.09.841.138,1.286.149.9.227,1.368.2.94.313,1.427c.059.241.113.491.18.734s.149.483.225.728.153.5.231.745.18.483.273.728.189.491.285.736l.071.187c.04.1.057.126.086.191l.157.344c.109.231.208.464.327.7l.365.7c.245.474.506.9.764,1.351.531.885,1.087,1.712,1.574,2.568A10.769,10.769,0,0,1,40.319,54.1a7.1,7.1,0,0,1,.208,1.5l0,.189,0,.088,0,.015,0,.052c-.008.141-.019.281-.027.42l-.01.21c-.006.065-.017.118-.025.176l-.052.342a14.822,14.822,0,0,1-.791,2.692c-.308.839-.625,1.609-.846,2.386a5.993,5.993,0,0,0-.239,2.285A3,3,0,0,0,39,65.8a.98.98,0,0,0,.214.235c.052.046.757.888.757.888l.132-.5s-.695-.835-.728-.873a.746.746,0,0,1-.143-.185,2.4,2.4,0,0,1-.3-1.041,3.5,3.5,0,0,1-.006-.407l0-.122.013-.09.031-.227a2.662,2.662,0,0,1,.088-.476c.019-.082.04-.164.059-.248s.052-.164.08-.246c.22-.686.55-1.414.894-2.241a15.455,15.455,0,0,0,.953-2.891,8.4,8.4,0,0,0,.136-.9l.036-.418,0-.052.006-.094V55.8l0-.237a9.029,9.029,0,0,0-.218-1.88A12.343,12.343,0,0,0,39.772,50.5" transform="translate(37.135 33.302)" fill="#a8916f"/>
      <path id="Trazado_308" data-name="Trazado 308" d="M40.052,42.672A104.523,104.523,0,0,1,53.69,16.783C46.816,22.667,38.1,39.856,37.37,41.776Z" transform="translate(41.043 18.432)" fill="#366b00"/>
      <path id="Trazado_309" data-name="Trazado 309" d="M36.9,43.657A104.493,104.493,0,0,0,41.563,14.77c1.956,8.834-1.677,27.72-2.249,29.693Z" transform="translate(40.528 16.221)" fill="#457e00"/>
      <path id="Trazado_310" data-name="Trazado 310" d="M52.007,28.724s16.043-8.078-4.406-17.6-25.24-1.02-15.183,7.161,18.318-1.016,19.59,10.437" transform="translate(30.025 7.599)" fill="#93d700"/>
      <path id="Trazado_311" data-name="Trazado 311" d="M39.352,16.749a30.339,30.339,0,0,0,7.825,1.5c1.406.092,4.113-.1,5.128,1.2,1.576,2.023.636,5.288-.08,7.533a7.105,7.105,0,0,0-.2.831L52,27.826c-1.272-11.452-9.533-2.258-19.59-10.437-4.589-3.733-6.077-7.527-4.406-9.652a21.776,21.776,0,0,0,11.345,9.012" transform="translate(30.03 8.497)" fill="#66a200"/>
      <path id="Trazado_312" data-name="Trazado 312" d="M45.187,31.2S35.377,11.763,43.5,9.113,58.066,11.134,45.187,31.2" transform="translate(44.24 9.265)" fill="#93d700"/>
      <path id="Trazado_313" data-name="Trazado 313" d="M45.27,18.834c3.045,3.951-.434,9.407-.065,11.914-1.542-3.24-8.876-18.41-2.138-21.9a11.989,11.989,0,0,0,2.2,9.984" transform="translate(44.222 9.719)" fill="#66a200"/>
      <path id="Trazado_314" data-name="Trazado 314" d="M70.069,25.133a21.986,21.986,0,0,1-8.374-.974l-.038-.01c-4.287-1.349-7.866-.627-12.2-.844-.143-.008-.279,0-.42,0a43.424,43.424,0,0,0-4.74.082S60.041,7.874,69.051,14.876c7.99,6.209,11.717,9.39,1.018,10.256" transform="translate(48.652 14.344)" fill="#93d700"/>
      <path id="Trazado_315" data-name="Trazado 315" d="M69.945,22.037a21.822,21.822,0,0,1-8.25-.982l-.038-.013c-4.287-1.349-7.869-.627-12.2-.844-.143-.008-.279,0-.42,0a42.9,42.9,0,0,0-4.74.082c5.181-3.317,14.153-6.1,18.8-3.139A20.156,20.156,0,0,0,76,20.658c-.93.674-2.86,1.127-6.054,1.379" transform="translate(48.652 17.45)" fill="#66a200"/>
      <path id="Trazado_316" data-name="Trazado 316" d="M39.68,45.9a146.528,146.528,0,0,1-5.518-32.433c-1.958,8.834,3.244,30.725,3.817,32.7Z" transform="translate(37.038 14.787)" fill="#457e00"/>
      <path id="Trazado_317" data-name="Trazado 317" d="M37.092,27.419S21.049,19.341,41.5,9.821,66.739,8.8,56.682,16.98s-18.318-1.013-19.59,10.439" transform="translate(34.165 6.165)" fill="#93d700"/>
      <path id="Trazado_318" data-name="Trazado 318" d="M47.218,15.443a30.339,30.339,0,0,1-7.825,1.5c-1.406.092-4.113-.1-5.128,1.2-1.576,2.023-.636,5.288.08,7.533a6.707,6.707,0,0,1,.2.831l.023.013c1.272-11.452,9.533-2.258,19.59-10.437,4.589-3.733,6.077-7.527,4.406-9.65a21.782,21.782,0,0,1-11.345,9.01" transform="translate(36.69 7.065)" fill="#66a200"/>
      <path id="Trazado_319" data-name="Trazado 319" d="M43.417,40.414C37.833,24.95,29.994,16.173,29.994,16.173,36.868,22.057,45.37,37.6,46.1,39.519Z" transform="translate(32.942 17.762)" fill="#366b00"/>
      <path id="Trazado_320" data-name="Trazado 320" d="M34.821,28.612S44.629,9.175,36.506,6.525,21.942,8.546,34.821,28.612" transform="translate(30.211 6.423)" fill="#93d700"/>
      <path id="Trazado_321" data-name="Trazado 321" d="M31.621,16.245c-3.045,3.951.434,9.407.065,11.912,1.542-3.238,8.876-18.408,2.138-21.9a11.989,11.989,0,0,1-2.2,9.984" transform="translate(33.346 6.876)" fill="#66a200"/>
      <path id="Trazado_322" data-name="Trazado 322" d="M21.92,23.738a21.986,21.986,0,0,0,8.374-.974l.038-.01c4.287-1.349,7.866-.627,12.2-.844.143-.008.279,0,.42,0a43.423,43.423,0,0,1,4.74.082S31.948,6.479,22.938,13.481c-7.99,6.209-11.717,9.39-1.018,10.256" transform="translate(16.814 12.812)" fill="#93d700"/>
      <path id="Trazado_323" data-name="Trazado 323" d="M21.687,20.641a21.822,21.822,0,0,0,8.25-.982l.038-.013c4.287-1.349,7.869-.627,12.2-.844.143-.008.279,0,.42,0a43.364,43.364,0,0,1,4.74.08c-5.181-3.315-14.153-6.093-18.8-3.139a20.155,20.155,0,0,1-12.9,3.519c.93.674,2.86,1.127,6.054,1.379" transform="translate(17.169 15.916)" fill="#66a200"/>
      <path id="Trazado_324" data-name="Trazado 324" d="M38.918,44.064a104.489,104.489,0,0,0-4.732-28.877c4.654,7.759,7.478,26.824,7.56,28.877Z" transform="translate(37.546 16.679)" fill="#366b00"/>
      <path id="Trazado_325" data-name="Trazado 325" d="M39.614,44.064a104.582,104.582,0,0,1,4.732-28.877c-4.654,7.759-7.193,26.824-7.275,28.877Z" transform="translate(40.715 16.679)" fill="#457e00"/>
      <path id="Trazado_326" data-name="Trazado 326" d="M41.624,25.835S28.967,13.09,51.381,10.54s24.26,7.031,12.13,11.6-17.053-6.769-21.887,3.691" transform="translate(41.804 11.109)" fill="#93d700"/>
      <path id="Trazado_327" data-name="Trazado 327" d="M55.278,17.1a30.3,30.3,0,0,1-7.9-1.058c-1.364-.357-3.869-1.4-5.246-.487C40,16.976,39.858,20.371,39.824,22.73a6.467,6.467,0,0,1-.073.85l.019.019c4.834-10.46,9.757.879,21.887-3.691,5.535-2.086,8.15-5.212,7.237-7.757A21.769,21.769,0,0,1,55.278,17.1" transform="translate(43.658 13.344)" fill="#66a200"/>
      <path id="Trazado_328" data-name="Trazado 328" d="M35.911,28.628S51.374,13.3,44.51,8.214s-14.455-2.7-8.6,20.414" transform="translate(37.143 6.577)" fill="#93d700"/>
      <path id="Trazado_329" data-name="Trazado 329" d="M38.53,15.975c-4.138,2.782-2.57,9.058-3.714,11.32C37.3,24.71,49.068,12.647,43.784,7.2a11.982,11.982,0,0,1-5.254,8.773" transform="translate(38.238 7.909)" fill="#66a200"/>
      <path id="Trazado_330" data-name="Trazado 330" d="M25.6,18.667a21.991,21.991,0,0,0,8.25,1.731h.04c4.495.08,7.661,1.9,11.839,3.066.138.04.264.088.4.132a43.188,43.188,0,0,1,4.471,1.58S40.575,5.476,29.811,9.261c-9.545,3.357-14.088,5.193-4.215,9.407" transform="translate(22.036 9.64)" fill="#93d700"/>
      <path id="Trazado_331" data-name="Trazado 331" d="M25.532,15.2a21.784,21.784,0,0,0,8.137,1.683h.04c4.492.08,7.661,1.9,11.836,3.066.138.04.266.088.4.132a43.361,43.361,0,0,1,4.471,1.58C46.552,16.876,38.921,11.4,33.576,12.728a20.171,20.171,0,0,1-13.351-.751c.669.934,2.356,1.974,5.307,3.225" transform="translate(22.213 13.154)" fill="#66a200"/>
      <path id="Trazado_332" data-name="Trazado 332" d="M38.366,37.773a97.228,97.228,0,0,1,3.8-17.254c-2.415,4.027-4.335,11.1-5.638,17.254Z" transform="translate(40.118 22.535)" fill="#366b00"/>
      <path id="Trazado_333" data-name="Trazado 333" d="M38.981,39.133c-1.227-6.158-4.276-15.825-6.691-19.852a101.889,101.889,0,0,1,5,19.852Z" transform="translate(35.464 21.175)" fill="#457e00"/>
      <path id="Trazado_334" data-name="Trazado 334" d="M44.005,33.96s-15.462-15.328-8.6-20.414,14.455-2.7,8.6,20.414" transform="translate(36.957 12.433)" fill="#93d700"/>
      <path id="Trazado_335" data-name="Trazado 335" d="M40.271,21.306c4.138,2.782,2.57,9.058,3.714,11.32C41.5,30.041,29.733,17.978,35.019,12.535a11.969,11.969,0,0,0,5.252,8.771" transform="translate(36.977 13.766)" fill="#66a200"/>
      <path id="Trazado_336" data-name="Trazado 336" d="M63.619,25.066a21.992,21.992,0,0,1-8.25,1.731h-.04c-4.492.08-7.661,1.9-11.839,3.066-.138.04-.264.088-.4.132a43.189,43.189,0,0,0-4.471,1.58S48.639,11.875,59.4,15.66c9.545,3.357,14.09,5.193,4.215,9.407" transform="translate(42.418 16.668)" fill="#93d700"/>
      <path id="Trazado_337" data-name="Trazado 337" d="M63.506,21.6a21.782,21.782,0,0,1-8.135,1.683h-.04c-4.495.08-7.663,1.9-11.839,3.066-.138.04-.266.088-.4.132a43.362,43.362,0,0,0-4.471,1.58c3.863-4.786,11.494-10.265,16.839-8.935a20.158,20.158,0,0,0,13.351-.751c-.669.934-2.356,1.974-5.307,3.225" transform="translate(42.418 20.181)" fill="#66a200"/>
      <path id="Trazado_338" data-name="Trazado 338" d="M27.695,26.9a22.005,22.005,0,0,0,8.414-.531l.038-.01c4.352-1.123,7.89-.214,12.227-.2.143,0,.279.015.418.023a42.315,42.315,0,0,1,4.732.329S38.614,10.2,29.25,16.715c-8.305,5.781-12.2,8.762-1.555,10.189" transform="translate(23.31 16.668)" fill="#93d700"/>
      <path id="Trazado_339" data-name="Trazado 339" d="M27.493,23.671a21.789,21.789,0,0,0,8.29-.548l.038-.01c4.354-1.123,7.892-.212,12.229-.2.143,0,.277.015.418.021a43.276,43.276,0,0,1,4.73.329c-5-3.584-13.815-6.83-18.61-4.121a20.165,20.165,0,0,1-13.068,2.837c.894.722,2.8,1.276,5.974,1.693" transform="translate(23.634 19.918)" fill="#66a200"/>
      <path id="Trazado_340" data-name="Trazado 340" d="M50.5,37.459s13.494-10.078-7.357-15.213-23.755,3.4-12.858,9.1S47.2,27.285,50.5,37.459" transform="translate(26.43 22.696)" fill="#93d700"/>
      <path id="Trazado_341" data-name="Trazado 341" d="M36.64,28.174a29.782,29.782,0,0,0,7.583.021c1.33-.157,3.821-.8,5.009.21,1.844,1.565,1.567,4.69,1.316,6.851a5.279,5.279,0,0,0-.034.787l-.021.015c-3.3-10.175-9.316-.415-20.215-6.114-4.973-2.6-7.061-5.789-5.892-8A21.142,21.142,0,0,0,36.64,28.174" transform="translate(26.435 24.096)" fill="#66a200"/>
      <path id="Trazado_342" data-name="Trazado 342" d="M38.242,40.8S53.7,25.476,46.841,20.39s-14.455-2.7-8.6,20.414" transform="translate(39.703 19.949)" fill="#93d700"/>
      <path id="Trazado_343" data-name="Trazado 343" d="M40.861,28.15c-4.138,2.782-2.57,9.058-3.714,11.32,2.489-2.585,14.252-14.648,8.966-20.091a11.968,11.968,0,0,1-5.252,8.771" transform="translate(40.798 21.283)" fill="#66a200"/>
      <path id="Trazado_344" data-name="Trazado 344" d="M62.508,30.648a21.994,21.994,0,0,1-8.253,1.731h-.038c-4.495.08-7.661,1.9-11.839,3.066-.138.04-.264.09-.4.134a42.636,42.636,0,0,0-4.471,1.578s10.017-19.7,20.781-15.913c9.545,3.355,14.088,5.191,4.215,9.4" transform="translate(41.198 22.799)" fill="#93d700"/>
      <path id="Trazado_345" data-name="Trazado 345" d="M62.395,27.183a21.782,21.782,0,0,1-8.135,1.683h-.04c-4.495.08-7.663,1.9-11.839,3.066-.138.04-.266.088-.4.132a43.365,43.365,0,0,0-4.471,1.58c3.863-4.786,11.494-10.267,16.839-8.934A20.171,20.171,0,0,0,67.7,23.958c-.669.934-2.356,1.974-5.307,3.225" transform="translate(41.198 26.312)" fill="#66a200"/>
      <path id="Trazado_346" data-name="Trazado 346" d="M85.491,30.643a11.551,11.551,0,0,1-1.007,6.033h16.579V92.507H19.448V36.676H36.24a12.558,12.558,0,0,1-.164-6.033H14.8v67.9h90.91v-67.9Z" transform="translate(16.255 33.654)" fill="#524547"/>
      <rect id="Rectángulo_30" data-name="Rectángulo 30" width="5.135" height="4.056" transform="translate(70.442 105.067)" fill="#a3967e"/>
      <path id="Trazado_347" data-name="Trazado 347" d="M24.025,29.267,32.7,76.982h8.259V72.926H35.7l-7.2-42.45H72.164l-7.2,42.45H60.51v4.056h7.447l8.681-47.715Z" transform="translate(26.387 32.143)" fill="#a3967e"/>
      <rect id="Rectángulo_31" data-name="Rectángulo 31" width="5.135" height="4.056" transform="translate(78.669 105.067)" fill="#a3967e"/>
      <path id="Trazado_348" data-name="Trazado 348" d="M79.783,33.547H23.853l-1.181-5.558H80.964Z" transform="translate(24.9 30.738)" fill="#c6beaf"/>
      <path id="Trazado_349" data-name="Trazado 349" d="M31.72,33.021A2.342,2.342,0,0,1,29.186,35.1a2.34,2.34,0,0,1-2.533-2.081,2.34,2.34,0,0,1,2.533-2.081,2.342,2.342,0,0,1,2.535,2.081" transform="translate(29.273 33.98)" fill="#ae6e43"/>
      <path id="Trazado_350" data-name="Trazado 350" d="M33.2,34.879a2.342,2.342,0,0,1-2.535,2.081,2.34,2.34,0,0,1-2.533-2.081A2.34,2.34,0,0,1,30.665,32.8,2.342,2.342,0,0,1,33.2,34.879" transform="translate(30.897 36.02)" fill="#ae6e43"/>
      <path id="Trazado_351" data-name="Trazado 351" d="M33.368,32.656a1.861,1.861,0,0,1-2.014,1.653,1.861,1.861,0,0,1-2.014-1.653A1.861,1.861,0,0,1,31.353,31a1.861,1.861,0,0,1,2.014,1.653" transform="translate(32.223 34.05)" fill="#ae6e43"/>
      <path id="Trazado_352" data-name="Trazado 352" d="M34.444,39.763a1.86,1.86,0,0,1-2.014,1.653,1.86,1.86,0,0,1-2.014-1.653,1.861,1.861,0,0,1,2.014-1.653,1.861,1.861,0,0,1,2.014,1.653" transform="translate(33.404 41.855)" fill="#ae6e43"/>
      <path id="Trazado_353" data-name="Trazado 353" d="M37.049,43.041a2.054,2.054,0,1,1-2.014-1.653,1.861,1.861,0,0,1,2.014,1.653" transform="translate(36.265 45.455)" fill="#ae6e43"/>
      <path id="Trazado_354" data-name="Trazado 354" d="M35.118,46.564A2.054,2.054,0,1,1,33.1,44.911a1.861,1.861,0,0,1,2.014,1.653" transform="translate(34.145 49.324)" fill="#ae6e43"/>
      <path id="Trazado_355" data-name="Trazado 355" d="M33.1,45.731a1.861,1.861,0,0,1-2.014,1.653,1.686,1.686,0,1,1,0-3.307A1.861,1.861,0,0,1,33.1,45.731" transform="translate(31.925 48.41)" fill="#ae6e43"/>
      <path id="Trazado_356" data-name="Trazado 356" d="M33.78,41.664a1.861,1.861,0,0,1-2.014,1.653,1.686,1.686,0,1,1,0-3.307,1.861,1.861,0,0,1,2.014,1.653" transform="translate(32.675 43.943)" fill="#ae6e43"/>
      <path id="Trazado_357" data-name="Trazado 357" d="M35.51,32.266a1.76,1.76,0,0,1-3.454,0,1.76,1.76,0,0,1,3.454,0" transform="translate(35.207 33.879)" fill="#ae6e43"/>
      <path id="Trazado_358" data-name="Trazado 358" d="M43.785,32.217a1.76,1.76,0,0,1-3.454,0,1.76,1.76,0,0,1,3.454,0" transform="translate(44.295 33.825)" fill="#ae6e43"/>
      <path id="Trazado_359" data-name="Trazado 359" d="M45.473,32.942a1.76,1.76,0,0,1-3.454,0,1.76,1.76,0,0,1,3.454,0" transform="translate(46.149 34.622)" fill="#ae6e43"/>
      <path id="Trazado_360" data-name="Trazado 360" d="M44.419,38.5a1.468,1.468,0,1,1-1.439-1.183A1.331,1.331,0,0,1,44.419,38.5" transform="translate(45.621 40.986)" fill="#ae6e43"/>
      <path id="Trazado_361" data-name="Trazado 361" d="M44.172,41.643a1.468,1.468,0,1,1-1.439-1.183,1.332,1.332,0,0,1,1.439,1.183" transform="translate(45.349 44.436)" fill="#ae6e43"/>
      <path id="Trazado_362" data-name="Trazado 362" d="M45.959,44.51a1.62,1.62,0,1,1-1.588-1.3,1.469,1.469,0,0,1,1.588,1.3" transform="translate(46.987 47.453)" fill="#ae6e43"/>
      <path id="Trazado_363" data-name="Trazado 363" d="M42.276,44.823a1.468,1.468,0,1,1-1.439-1.183,1.331,1.331,0,0,1,1.439,1.183" transform="translate(43.267 47.929)" fill="#ae6e43"/>
      <path id="Trazado_364" data-name="Trazado 364" d="M45.663,45.828a1.468,1.468,0,1,1-1.439-1.183,1.331,1.331,0,0,1,1.439,1.183" transform="translate(46.987 49.032)" fill="#ae6e43"/>
      <path id="Trazado_365" data-name="Trazado 365" d="M43.649,46.837a1.468,1.468,0,1,1-1.439-1.183,1.331,1.331,0,0,1,1.439,1.183" transform="translate(44.775 50.14)" fill="#ae6e43"/>
      <path id="Trazado_366" data-name="Trazado 366" d="M43.169,37.949a1.76,1.76,0,1,1-1.727-1.418,1.6,1.6,0,0,1,1.727,1.418" transform="translate(43.618 40.121)" fill="#ae6e43"/>
      <path id="Trazado_367" data-name="Trazado 367" d="M42.85,42.061a1.76,1.76,0,1,1-1.727-1.418,1.6,1.6,0,0,1,1.727,1.418" transform="translate(43.268 44.637)" fill="#ae6e43"/>
      <path id="Trazado_368" data-name="Trazado 368" d="M33,35.429a1.354,1.354,0,1,1-1.328-1.091A1.227,1.227,0,0,1,33,35.429" transform="translate(33.33 37.712)" fill="#ae6e43"/>
      <path id="Trazado_369" data-name="Trazado 369" d="M30.894,40.737a1.354,1.354,0,1,1-1.328-1.091,1.227,1.227,0,0,1,1.328,1.091" transform="translate(31.013 43.542)" fill="#ae6e43"/>
      <path id="Trazado_370" data-name="Trazado 370" d="M34.242,42.41a1.354,1.354,0,1,1-1.328-1.091,1.227,1.227,0,0,1,1.328,1.091" transform="translate(34.69 45.379)" fill="#ae6e43"/>
      <path id="Trazado_371" data-name="Trazado 371" d="M36.257,45.216a1.354,1.354,0,1,1-1.328-1.091,1.227,1.227,0,0,1,1.328,1.091" transform="translate(36.903 48.461)" fill="#ae6e43"/>
      <path id="Trazado_372" data-name="Trazado 372" d="M35.948,36.241a2.054,2.054,0,0,1-4.029,0,2.054,2.054,0,0,1,4.029,0" transform="translate(35.056 37.987)" fill="#ae6e43"/>
      <path id="Trazado_373" data-name="Trazado 373" d="M47.384,34.529a2.054,2.054,0,0,1-4.029,0,2.054,2.054,0,0,1,4.029,0" transform="translate(47.616 36.107)" fill="#ae6e43"/>
      <path id="Trazado_374" data-name="Trazado 374" d="M47.268,38.6a2.054,2.054,0,0,1-4.029,0,2.054,2.054,0,0,1,4.029,0" transform="translate(47.489 40.579)" fill="#ae6e43"/>
      <path id="Trazado_375" data-name="Trazado 375" d="M45.046,36.841a2.054,2.054,0,0,1-4.029,0,2.054,2.054,0,0,1,4.029,0" transform="translate(45.048 38.646)" fill="#ae6e43"/>
      <path id="Trazado_376" data-name="Trazado 376" d="M44.111,43.717A2.054,2.054,0,1,1,42.1,42.064a1.861,1.861,0,0,1,2.014,1.653" transform="translate(44.021 46.198)" fill="#ae6e43"/>
      <path id="Trazado_377" data-name="Trazado 377" d="M45.807,47.5a1.815,1.815,0,1,1-1.781-1.463A1.646,1.646,0,0,1,45.807,47.5" transform="translate(46.398 50.561)" fill="#ae6e43"/>
      <path id="Trazado_378" data-name="Trazado 378" d="M31.558,36.48a1.861,1.861,0,0,1-2.014,1.653,1.861,1.861,0,0,1-2.014-1.653,1.861,1.861,0,0,1,2.014-1.653,1.861,1.861,0,0,1,2.014,1.653" transform="translate(30.235 38.249)" fill="#ae6e43"/>
      <path id="Trazado_379" data-name="Trazado 379" d="M35.994,34.436a2.342,2.342,0,0,1-2.535,2.081,2.34,2.34,0,0,1-2.533-2.081,2.34,2.34,0,0,1,2.533-2.082,2.342,2.342,0,0,1,2.535,2.082" transform="translate(33.967 35.533)" fill="#ae6e43"/>
      <path id="Trazado_380" data-name="Trazado 380" d="M45.606,35.038a2.583,2.583,0,0,1-5.067,0,2.583,2.583,0,0,1,5.067,0" transform="translate(44.523 36.194)" fill="#ae6e43"/>
      <path id="Trazado_381" data-name="Trazado 381" d="M44.783,40.493a2.583,2.583,0,0,1-5.067,0,2.583,2.583,0,0,1,5.067,0" transform="translate(43.62 42.187)" fill="#ae6e43"/>
      <path id="Trazado_382" data-name="Trazado 382" d="M48.307,36.861a2.583,2.583,0,0,1-5.067,0,2.583,2.583,0,0,1,5.067,0" transform="translate(47.49 38.198)" fill="#ae6e43"/>
      <path id="Trazado_383" data-name="Trazado 383" d="M49.008,32.881a2.583,2.583,0,0,1-5.067,0,2.583,2.583,0,0,1,5.067,0" transform="translate(48.26 33.825)" fill="#ae6e43"/>
      <path id="Trazado_384" data-name="Trazado 384" d="M37.06,38.7a2.342,2.342,0,0,1-2.535,2.081A2.34,2.34,0,0,1,31.993,38.7a2.34,2.34,0,0,1,2.533-2.081A2.342,2.342,0,0,1,37.06,38.7" transform="translate(35.137 40.214)" fill="#ae6e43"/>
      <path id="Trazado_385" data-name="Trazado 385" d="M36.253,44.86a2.342,2.342,0,0,1-2.535,2.081,2.34,2.34,0,0,1-2.533-2.081,2.34,2.34,0,0,1,2.533-2.081,2.342,2.342,0,0,1,2.535,2.081" transform="translate(34.251 46.982)" fill="#ae6e43"/>
      <path id="Trazado_386" data-name="Trazado 386" d="M38.191,47.423A2.342,2.342,0,0,1,35.657,49.5a2.34,2.34,0,0,1-2.533-2.081,2.34,2.34,0,0,1,2.533-2.082,2.342,2.342,0,0,1,2.535,2.082" transform="translate(36.38 49.797)" fill="#ae6e43"/>
      <path id="Trazado_387" data-name="Trazado 387" d="M37.2,41.255a2.342,2.342,0,0,1-2.535,2.082,2.34,2.34,0,0,1-2.533-2.082,2.34,2.34,0,0,1,2.533-2.081A2.342,2.342,0,0,1,37.2,41.255" transform="translate(35.293 43.024)" fill="#ae6e43"/>
      <path id="Trazado_388" data-name="Trazado 388" d="M47.48,40.9a2.583,2.583,0,0,1-5.067,0,2.583,2.583,0,0,1,5.067,0" transform="translate(46.582 42.633)" fill="#ae6e43"/>
      <path id="Trazado_389" data-name="Trazado 389" d="M46.881,43.139a2.283,2.283,0,0,1-4.48,0,2.283,2.283,0,0,1,4.48,0" transform="translate(46.568 45.357)" fill="#ae6e43"/>
      <path id="Trazado_390" data-name="Trazado 390" d="M44.824,45.417a1.988,1.988,0,1,1-1.949-1.6,1.8,1.8,0,0,1,1.949,1.6" transform="translate(44.945 48.122)" fill="#ae6e43"/>
      <path id="Trazado_391" data-name="Trazado 391" d="M42.7,46.523a1.953,1.953,0,1,1-1.916-1.574A1.771,1.771,0,0,1,42.7,46.523" transform="translate(42.686 49.366)" fill="#ae6e43"/>
      <path id="Trazado_392" data-name="Trazado 392" d="M32.927,39.435a2.342,2.342,0,0,1-2.535,2.082,2.34,2.34,0,0,1-2.533-2.082,2.34,2.34,0,0,1,2.533-2.081,2.342,2.342,0,0,1,2.535,2.081" transform="translate(30.598 41.025)" fill="#ae6e43"/>
      <path id="Trazado_393" data-name="Trazado 393" d="M34.571,37.707a2.342,2.342,0,0,1-2.535,2.081A2.34,2.34,0,0,1,29.5,37.707a2.34,2.34,0,0,1,2.533-2.082,2.342,2.342,0,0,1,2.535,2.082" transform="translate(32.404 39.126)" fill="#ae6e43"/>
      <path id="Trazado_394" data-name="Trazado 394" d="M33.741,43.868a2.342,2.342,0,0,1-2.535,2.081,2.34,2.34,0,0,1-2.533-2.081,2.34,2.34,0,0,1,2.533-2.082,2.342,2.342,0,0,1,2.535,2.082" transform="translate(31.492 45.892)" fill="#ae6e43"/>
    </g>
  </g>
</svg>
