<?xml version="1.0" encoding="UTF-8"?>
<svg width="40px" height="40px" viewBox="0 0 40 40" version="1.1" xmlns="http://www.w3.org/2000/svg" xmlns:xlink="http://www.w3.org/1999/xlink">
    <title>Hortalizas_40x40</title>
    <defs>
        <polygon id="path-1" points="0.0420659975 0.0468599972 3.21684581 0.0468599972 3.21684581 5.1077637 0.0420659975 5.1077637"></polygon>
    </defs>
    <g id="Hortalizas_40x40" stroke="none" stroke-width="1" fill="none" fill-rule="evenodd">
        <g id="Group-30" transform="translate(4.000000, 2.000000)">
            <g id="Group-3" transform="translate(7.080000, 0.013140)">
                <mask id="mask-2" fill="white">
                    <use xlink:href="#path-1"></use>
                </mask>
                <g id="Clip-2"></g>
                <path d="M0.0420659975,4.85474371 C0.454625973,3.3894238 0.630545962,1.97564388 0.446285973,0.638003962 C0.371405978,0.0941039944 2.11980587,-0.297815982 2.15640587,0.49856397 C2.22828587,2.05988388 2.65584584,3.58964379 3.21684581,5.1077637 C2.15850587,5.0232837 1.10028593,4.93904371 0.0420659975,4.85474371" id="Fill-1" fill="#709620" mask="url(#mask-2)"></path>
            </g>
            <path d="M9.87881341,5.0872857 L7.37255356,4.88784571 L7.40417356,4.76352572 C8.01941352,1.6419659 7.82921353,1.47690591 8.4183535,4.70388572 C8.95127347,0.889085947 8.89979347,1.95924588 9.87881341,5.0872857" id="Fill-4" fill="#567F00"></path>
            <path d="M13.1338432,28.0710583 C14.2242832,20.6827788 14.1834232,13.4745592 12.5912632,6.7011596 C11.9400833,3.17681981 5.60852367,3.20687981 5.37800368,6.55631961 C4.81412371,13.6027792 3.01664382,20.6170788 0.574883966,27.5732384 C-3.00645582,37.7758177 11.2405433,40.9021776 13.1338432,28.0710583" id="Fill-6" fill="#A7CF52"></path>
            <path d="M13.1338432,28.0710583 C14.2242832,20.6827788 14.1834232,13.4745592 12.5912632,6.7011596 C12.2917433,5.0802597 10.7906034,4.21169975 9.23420345,4.07177976 C9.73136342,4.41773974 10.0130634,5.0117997 10.1000034,5.92295965 C11.0042633,15.3969591 12.1587233,34.9914579 1.85390389,35.1169779 C5.16662369,38.0747977 11.8758233,36.5956778 13.1338432,28.0710583" id="Fill-8" fill="#9BC344"></path>
            <path d="M6.37859962,6.59080161 C7.08383958,15.8786811 -0.875459948,27.2017004 3.10757981,34.6621599 C1.51613991,25.2528405 8.49899949,14.0714812 6.37859962,6.59080161" id="Fill-10" fill="#75A710"></path>
            <path d="M8.79796148,10.5324594 C7.65892154,18.1300189 6.32242162,26.0935784 4.91140171,33.904498 C8.3056015,27.5766584 8.67592148,17.575079 8.79796148,10.5324594" id="Fill-12" fill="#75A710"></path>
            <path d="M6.44228962,35.1127119 C14.8583691,30.6109122 12.6045292,9.15419345 11.1569693,6.50435361 C11.4632693,16.688093 12.5439893,27.0019124 6.44228962,35.1127119" id="Fill-14" fill="#75A710"></path>
            <path d="M6.44225962,35.1127719 C14.8583991,30.6109122 12.6044992,9.15419345 11.1569993,6.50435361 C11.4632393,16.688093 12.5440193,27.0019124 6.44225962,35.1127719" id="Fill-16" fill="#699A00"></path>
            <path d="M3.02554182,35.8542459 C3.07738182,35.5270059 3.67084178,35.3485059 4.35148174,35.4563259 C5.0318217,35.5639059 5.54164167,35.9164059 5.48980167,36.2439458 C5.43796168,36.5711858 4.84450171,36.7493258 4.16404175,36.6418058 C3.48334179,36.5341058 2.97370182,36.1814858 3.02554182,35.8542459" id="Fill-18" fill="#FFF580"></path>
            <path d="M9.23640545,0.51170397 C9.29370542,1.7563282 9.57702813,2.98089711 9.97379357,4.19550156 C11.174986,4.49306637 12.2237895,5.25443887 12.5446291,6.49071451 L12.5912632,6.7011596 C14.1834232,13.4745592 14.2242832,20.6827788 13.1338432,28.0710583 C12.2328172,34.1774193 8.53388665,36.6696804 5.29018865,36.5050982 C5.05330171,36.6553735 4.62898009,36.7152711 4.16404175,36.6418058 C3.52362812,36.5404799 3.03462573,36.2223667 3.02215674,35.9125583 C0.611301361,34.7027421 -0.881932219,31.7234401 0.574883966,27.5732384 C3.01664382,20.6170788 4.81412371,13.6027792 5.37800368,6.55631961 C5.45646226,5.41632181 6.24167361,4.6608455 7.26912981,4.29915686 C7.57420181,3.03709285 7.68664589,1.81528375 7.52628555,0.651143961 C7.45140556,0.107243994 9.19980545,-0.284675983 9.23640545,0.51170397 Z" id="Path" stroke="#000000" stroke-width="0.5"></path>
            <path d="M30.6167504,11.1866573 C27.9472305,10.0999974 26.3347306,9.44317744 23.6650908,8.3566975 C20.458391,13.9288972 15.3931913,17.9961169 10.4409716,21.2278967 C1.07755211,27.3392564 8.98699164,41.0012556 17.7017511,34.8357159 C24.2628707,30.1935162 30.1005104,17.008457 30.6167504,11.1866573" id="Fill-20" fill="#541743"></path>
            <path d="M30.6167504,11.1866573 L26.7695506,9.62041743 L24.2519507,14.1769372 C24.2136707,15.0736971 24.3109307,15.9126171 24.5774507,16.679597 C25.2718307,16.764917 25.9500106,16.696277 26.6190106,16.539557 C24.7309307,21.4932767 22.5572508,25.4446365 19.299851,28.6094563 C14.9133113,32.871856 11.4647515,35.3667159 7.05559176,32.1736361 C8.82283165,35.8678959 13.1515914,38.0548357 17.7017511,34.8357159 C24.2628707,30.1935162 30.1005104,17.008457 30.6167504,11.1866573" id="Fill-22" fill="#460936"></path>
            <path d="M20.6498929,11.5422653 C21.8788129,11.8917653 23.0838528,11.8167653 24.2572727,11.1686453 C23.8648728,12.9364252 24.0553727,14.5068651 25.0863527,15.7930851 C26.5207726,15.2990451 27.9011925,14.6182251 29.0669324,13.1955652 C29.5016324,14.1457852 30.1966724,14.7282051 30.9984523,15.1600851 C31.3950523,13.7880052 32.3983722,12.1413053 31.3164523,11.3901653 C30.3961124,10.7514654 29.6219924,10.2865854 29.6531924,9.15420545 C29.7116924,7.00752558 29.2377524,4.9771257 27.8640525,3.14322581 C27.5072925,2.66742584 26.1214126,2.04186588 26.4429526,2.98896582 C26.9398726,4.45164573 26.9646526,6.05244564 26.3420326,7.84290553 C25.9693126,8.91402547 25.0267127,8.58408549 23.8951728,8.28594551 C22.4717328,7.91124553 21.4060729,10.4954454 20.6498929,11.5422653" id="Fill-24" fill="#709620"></path>
            <path d="M25.0863767,15.7930911 C26.5207366,15.2990511 27.9012165,14.6181711 29.0669564,13.1955712 C29.5016564,14.1457312 30.1966964,14.7282111 30.9984163,15.1600911 C31.3950763,13.7880112 32.3983362,12.1413113 31.3164763,11.3901713 C30.3960764,10.7514714 29.6220164,10.2865914 29.6531564,9.15421145 C29.7117164,7.00753158 29.2377164,4.9770717 27.8640765,3.14317181 C27.8028765,3.06193182 27.7116765,2.97601182 27.6039165,2.89411183 C29.8725164,7.69123154 28.5148365,11.9078513 25.0863767,15.7930911" id="Fill-26" fill="#638A0C"></path>
            <path d="M26.4429526,2.98896582 C26.2405015,2.39264364 26.7149288,2.41977647 27.183177,2.64043755 L27.3470723,2.72565364 C27.5622912,2.84812262 27.7583459,3.00224804 27.8640525,3.14322581 C29.2377524,4.9771257 29.7116924,7.00752558 29.6531924,9.15420545 C29.6293336,10.020143 30.0764058,10.4957433 30.6996721,10.9572285 L30.9987711,11.1705893 L30.9987711,11.1705893 L31.3164523,11.3901653 L31.3164523,11.3901653 C31.9976612,11.8631053 31.8522111,12.6910752 31.5520322,13.5819908 L31.2059146,14.5359947 L31.2059146,14.5359947 L31.0954787,14.8511336 C31.0605369,14.9553072 31.0278301,15.0584495 30.9984523,15.1600851 C30.6333561,14.9634255 30.2903924,14.7355513 29.984064,14.4559494 C28.2277099,20.9816396 23.2206774,30.930901 17.7017511,34.8357159 L17.4580743,35.003115 L17.4580743,35.003115 L17.0979101,35.232435 L17.0979101,35.232435 L16.9200418,35.3378193 L16.9200418,35.3378193 L16.58502,35.5223754 L16.58502,35.5223754 L16.2291609,35.6986796 L16.2291609,35.6986796 L15.930038,35.8313582 L15.930038,35.8313582 L15.8560653,35.861996 C15.6950708,35.927732 15.5345441,35.9871576 15.3747601,36.0403862 L15.0808507,36.131647 L15.0808507,36.131647 L14.7249139,36.2241286 L14.7249139,36.2241286 L14.4593566,36.2803716 L14.4593566,36.2803716 L14.2302111,36.3201252 L14.2302111,36.3201252 L13.8488918,36.3683513 L13.8488918,36.3683513 L13.5132155,36.3916594 L13.5132155,36.3916594 L13.3408958,36.3970302 L13.3408958,36.3970302 L13.0583256,36.3950652 L13.0583256,36.3950652 L12.8712058,36.3871307 L12.8712058,36.3871307 L12.5767773,36.3623412 L12.5767773,36.3623412 L12.394142,36.3403571 L12.394142,36.3403571 L12.0984551,36.2917947 L12.0984551,36.2917947 L11.921634,36.2563943 L11.921634,36.2563943 L11.6001025,36.1771524 L11.6001025,36.1771524 L11.2620122,36.0730368 L11.2620122,36.0730368 C10.9767797,35.9776729 10.7001439,35.8615845 10.4327742,35.7271862 L10.2566487,35.6352925 L10.2566487,35.6352925 L10.0610111,35.5251336 L10.0610111,35.5251336 L10.0163015,35.4973493 C5.66804579,32.9074604 4.12527237,25.3500563 10.4409716,21.2278967 C14.3440288,18.6807922 18.3172657,15.6147379 21.3955044,11.7019471 C21.1471949,11.666528 20.8990346,11.6131202 20.6498929,11.5422653 L20.7292244,11.4286738 L20.7292244,11.4286738 L20.8945587,11.1730108 L20.8945587,11.1730108 L21.444788,10.2578228 L21.444788,10.2578228 L21.64659,9.93285764 C22.2659807,8.96073358 23.0116583,8.05337311 23.8951728,8.28594551 L24.3274605,8.40105236 L24.3274605,8.40105236 L24.6024326,8.47017237 C25.4096068,8.66132499 26.0503387,8.68117331 26.3420326,7.84290553 C26.9646526,6.05244564 26.9398726,4.45164573 26.4429526,2.98896582 Z" id="Path" stroke="#000000" stroke-width="0.5"></path>
            <path d="M9.08785164,25.0839525 C8.23081169,26.5162124 8.14399169,28.0406323 8.89375165,28.4894923 C9.6433316,28.9382923 10.9460515,28.1410123 11.8031515,26.7088124 C12.6601914,25.2765525 12.7473714,23.7517126 11.9976115,23.3033326 C11.2477915,22.8544726 9.94537159,23.6517526 9.08785164,25.0839525" id="Fill-28" fill="#8C2D72"></path>
        </g>
    </g>
</svg>