<?xml version="1.0" encoding="UTF-8"?>
<svg width="40px" height="40px" viewBox="0 0 40 40" version="1.1" xmlns="http://www.w3.org/2000/svg" xmlns:xlink="http://www.w3.org/1999/xlink">
    <title>Fruta_40x40</title>
    <defs>
        <polygon id="path-1" points="0.230655588 0.351426581 22.0391268 0.351426581 22.0391268 29.1599985 0.230655588 29.1599985"></polygon>
        <polygon id="path-3" points="0.442648777 0.351766781 11.3471274 0.351766781 11.3471274 29.1599013 0.442648777 29.1599013"></polygon>
        <polygon id="path-5" points="0 0.101066444 14.6830042 0.101066444 14.6830042 14.7841387 0 14.7841387"></polygon>
        <polygon id="path-7" points="0.379163423 0.0979199942 4.30171174 0.0979199942 4.30171174 8.04523152 0.379163423 8.04523152"></polygon>
        <polygon id="path-9" points="0 0.359399721 19.6425588 0.359399721 19.6425588 22.5599027 0 22.5599027"></polygon>
        <polygon id="path-11" points="0.221279987 0.359399721 10.0425594 0.359399721 10.0425594 22.5599027 0.221279987 22.5599027"></polygon>
    </defs>
    <g id="Fruta_40x40" stroke="none" stroke-width="1" fill="none" fill-rule="evenodd">
        <g id="Group-28" transform="translate(0.000000, 6.000000)">
            <g id="Group-3" transform="translate(4.374000, 0.134428)">
                <mask id="mask-2" fill="white">
                    <use xlink:href="#path-1"></use>
                </mask>
                <g id="Clip-2"></g>
                <path d="M22.0394184,14.6529478 C22.0394184,8.29849816 17.6838867,3.45162042 12.8418689,2.50829447 C12.7208549,1.21310454 11.869869,0.351426581 11.135037,0.351426581 C10.400205,0.351426581 9.54921909,1.21310454 9.4277191,2.50829447 C4.58570136,3.45162042 0.230655588,8.29849816 0.230655588,14.6529478 C0.230655588,21.0020515 4.57938336,25.8751732 9.4170271,26.8301632 C9.4753471,28.2210951 10.3676431,29.1600471 11.135037,29.1600471 C11.901945,29.1600471 12.7947269,28.2210951 12.8525609,26.8301632 C17.6906907,25.8751732 22.0394184,21.0020515 22.0394184,14.6529478" id="Fill-1" fill="#FFCE08" mask="url(#mask-2)"></path>
            </g>
            <g id="Group-6" transform="translate(15.065999, 0.134428)">
                <mask id="mask-4" fill="white">
                    <use xlink:href="#path-3"></use>
                </mask>
                <g id="Clip-5"></g>
                <path d="M2.14996669,2.50814867 C2.02895269,1.21295874 1.17796674,0.351766781 0.442648777,0.351766781 L0.442648777,29.1599013 C1.20955674,29.1599013 2.10233869,28.2209493 2.16017269,26.8300174 C6.99878843,25.8750274 11.3475162,21.0023917 11.3475162,14.652802 C11.3475162,8.29835236 6.99198443,3.45147462 2.14996669,2.50814867" id="Fill-4" fill="#F1B306" mask="url(#mask-4)"></path>
            </g>
            <path d="M26.4134182,14.7873754 C26.4134182,8.43292575 22.0578864,3.58604801 17.2158687,2.64272206 C17.0948547,1.34753213 16.2438687,0.485854174 15.5090368,0.485854174 C14.7742048,0.485854174 13.9232189,1.34753213 13.8017189,2.64272206 C8.95970113,3.58604801 4.60465536,8.43292575 4.60465536,14.7873754 C4.60465536,21.1364791 8.95338313,26.0096008 13.7910269,26.9645908 C13.8493469,28.3555227 14.7416428,29.2944746 15.5090368,29.2944746 C16.2759447,29.2944746 17.1687267,28.3555227 17.2265607,26.9645908 C22.0646904,26.0096008 26.4134182,21.1364791 26.4134182,14.7873754" id="Fill-1" stroke="#000000" stroke-width="0.5"></path>
            <g id="Group-9" transform="translate(0.000000, 13.256427)">
                <mask id="mask-6" fill="white">
                    <use xlink:href="#path-5"></use>
                </mask>
                <g id="Clip-8"></g>
                <path d="M14.6830042,7.42559361 C14.6732626,3.37089582 11.3791548,0.0913679952 7.32445701,0.101066444 C3.27024523,0.110321994 -0.00928259951,3.40540182 -6.80519854e-05,7.4596136 C0.00967139949,11.5143114 3.30426522,14.7933532 7.35896301,14.7841387 C11.4131748,14.7748852 14.6927026,11.4802914 14.6830042,7.42559361" id="Fill-7" fill="#FEC111" mask="url(#mask-6)"></path>
            </g>
            <path d="M14.6830042,20.6820205 C14.6732626,16.6273227 11.3791548,13.3477949 7.32445701,13.3574933 C3.27024523,13.3667489 -0.00928259951,16.6618287 -6.80519854e-05,20.7160405 C0.00967139949,24.7707383 3.30426522,28.0497801 7.35896301,28.0405656 C11.4131748,28.0313121 14.6927026,24.7367183 14.6830042,20.6820205" id="Fill-7" stroke="#000000" stroke-width="0.5"></path>
            <path d="M14.0831319,20.6834299 C14.0738789,16.9601841 11.049015,13.9494143 7.32576921,13.9576593 C3.60300941,13.9664243 0.591267569,16.9912881 0.600480391,20.7145339 C0.608763568,24.4382657 3.63411341,27.4490355 7.35735921,27.4403066 C11.080119,27.4315395 14.0918609,24.4061897 14.0831319,20.6834299" id="Fill-10" fill="#FFFBE0"></path>
            <path d="M8.04796517,14.5244494 C8.88145513,14.5244494 9.31350911,15.1591654 9.00830112,15.9338494 L7.89633318,18.7560512 C7.5916112,19.5317072 7.09151722,19.5317072 6.78630924,18.7560512 L5.6748273,15.9338494 C5.36961932,15.1591654 5.80167329,14.5244494 6.63516325,14.5244494 L8.04796517,14.5244494 Z" id="Fill-12" fill="#FFCA00"></path>
            <path d="M3.47509422,15.8333932 C4.06412618,15.2438752 4.81839814,15.3872452 5.15082213,16.1512371 L6.36047606,18.932615 C6.69290005,19.696607 6.33957806,20.0504149 5.5751001,19.717505 L2.79420825,18.508337 C2.02973029,18.175913 1.8863603,17.4221271 2.47587827,16.8326091 L3.47509422,15.8333932 Z" id="Fill-14" fill="#FFCA00"></path>
            <path d="M1.16708034,19.9923865 C1.16708034,19.1588966 1.8013103,18.7268426 2.57648026,19.0320506 L5.39868211,20.1440185 C6.17433807,20.4487405 6.17433807,20.9488345 5.39868211,21.2545285 L2.57648026,22.3655244 C1.8013103,22.6712184 1.16708034,22.2386784 1.16708034,21.4051885 L1.16708034,19.9923865 Z" id="Fill-16" fill="#FFCA00"></path>
            <path d="M2.47602407,24.5657435 C1.8865061,23.9762255 2.02987609,23.2219536 2.79386805,22.8900156 L5.5752459,21.6803617 C6.33923786,21.3479377 6.69304585,21.7007737 6.36013586,22.4657376 L5.15096793,25.2466295 C4.81805794,26.0111074 4.06427198,26.1544774 3.47524002,25.5649594 L2.47602407,24.5657435 Z" id="Fill-18" fill="#FFCA00"></path>
            <path d="M6.63506605,26.8737574 C5.80157609,26.8737574 5.36952212,26.2390414 5.6747301,25.4638715 L6.78669804,22.6416696 C7.09142002,21.8664996 7.591514,21.8664996 7.89672198,22.6416696 L9.00820392,25.4638715 C9.31341191,26.2390414 8.88135793,26.8737574 8.04786797,26.8737574 L6.63506605,26.8737574 Z" id="Fill-20" fill="#FFCA00"></path>
            <path d="M11.2078884,25.5648136 C10.6188564,26.1543316 9.86458448,26.0109616 9.53264649,25.2469697 L8.32250656,22.4655918 C7.99056858,21.7011139 8.34340456,21.3477919 9.10788252,21.6802159 L11.8887744,22.8898698 C12.6537383,23.2222938 12.7966223,23.9760797 12.2075904,24.5655977 L11.2078884,25.5648136 Z" id="Fill-22" fill="#FFCA00"></path>
            <path d="M13.5159509,21.4053343 C13.5159509,22.2388242 12.8817209,22.6708782 12.106551,22.3656702 L9.28434911,21.2541883 C8.50869315,20.9489803 8.50869315,20.4488863 9.28434911,20.1436783 L12.106551,19.0321964 C12.8817209,18.7269884 13.5159509,19.1590424 13.5159509,19.9925323 L13.5159509,21.4053343 Z" id="Fill-24" fill="#FFCA00"></path>
            <path d="M12.2074446,16.8324633 C12.7964765,17.4219813 12.6535925,18.1762532 11.8891146,18.5081912 L9.10773672,19.7178452 C8.34374476,20.0502691 7.99042278,19.6969472 8.32284676,18.9324692 L9.53250069,16.1515773 C9.86492468,15.3870994 10.6187106,15.2437294 11.2077426,15.8332474 L12.2074446,16.8324633 Z" id="Fill-26" fill="#FFCA00"></path>
        </g>
        <g id="Group-66" transform="translate(19.000000, 4.000000)">
            <g id="Group-3" transform="translate(8.639999, 0.382176)">
                <mask id="mask-8" fill="white">
                    <use xlink:href="#path-7"></use>
                </mask>
                <g id="Clip-2"></g>
                <path d="M1.32043192,8.04523152 C1.30891192,8.01931152 1.28443192,7.97755152 1.25179193,7.91995153 C0.942671944,7.36843156 0.000911999946,5.68939166 0.545231968,3.80299177 C0.934991944,2.45083185 1.90075189,1.03003194 3.61531178,0.0978719942 L4.30171174,1.10203193 C2.75563184,1.94347188 1.54315191,2.82475183 1.20619193,3.99403176 C0.741551956,5.60395167 1.57771191,7.09387158 1.85227189,7.58347155 C1.94539188,7.75003154 1.98427188,7.81867153 1.98763188,7.92139153 L1.29979192,7.94347153 C1.30123192,8.00155152 1.31851192,8.04091152 1.32043192,8.04523152" id="Fill-1" fill="#5B691B" mask="url(#mask-8)"></path>
            </g>
            <path d="M12.9416632,1.48430391 L12.2552633,0.480143971 C12.2543033,0.480143971 12.6263032,1.02638394 12.6263032,1.02638394 C11.1099833,2.08190388 9.96182341,2.94302382 9.53942343,4.08350376 C8.92550347,5.73950366 9.87638341,7.99886352 10.1514234,8.48894349 C10.2445434,8.65502348 10.5853434,8.13230352 10.4922234,7.96574353 C10.2176634,7.47566355 9.38150344,5.98622364 9.84614341,4.37582374 C10.1831034,3.20702381 11.3955833,2.32574386 12.9416632,1.48430391" id="Fill-4" fill="#5B691B"></path>
            <path d="M9.96043141,8.4274075 C9.94891141,8.4014875 9.92443141,8.3597275 9.89179141,8.30212751 C9.58267143,7.75060754 8.64091148,6.07156764 9.18523145,4.18516775 C9.57499143,2.83300783 10.5407514,1.41220792 12.2553113,0.480047971 L12.9417112,1.48420791 C11.3956313,2.32564786 10.1831514,3.20692781 9.84619141,4.37620774 C9.38155144,5.98612764 10.2177114,7.47604755 10.4922714,7.96564753 C10.5853914,8.13220752 10.6242714,8.20084751 10.6276314,8.30356751 L9.93979141,8.3256475 C9.94123141,8.3837275 9.95851141,8.4230875 9.96043141,8.4274075" id="Fill-1" stroke="#000000" stroke-width="0.3"></path>
            <path d="M5.94652765,3.91943977 C5.66140766,7.64183954 6.6626876,8.47271949 6.6626876,8.47271949 L8.84764747,9.79751942 L9.84557015,8.15783951 C9.84557015,8.15783951 9.86764741,5.11799969 5.94652765,3.91943977" id="Fill-6" fill="#889C29"></path>
            <path d="M1.44979191,6.38927962 C3.2963518,9.72575942 5.1097917,9.66143942 5.1097917,9.66143942 L7.73587154,9.79775942 L7.67299154,7.92671953 C7.67299154,7.92671953 5.50003167,5.61887967 1.44979191,6.38927962" id="Fill-8" fill="#889C29"></path>
            <path d="M13.5205912,3.91943977 C13.8061912,7.64183954 12.8044312,8.47271949 12.8044312,8.47271949 L10.6194714,9.79751942 L9.62154869,8.15783951 C9.62154869,8.15783951 9.59947143,5.11799969 13.5205912,3.91943977" id="Fill-10" fill="#738523"></path>
            <path d="M18.1931029,6.23179163 C16.346543,9.56827143 14.3574231,9.66187142 14.3574231,9.66187142 L11.7313433,9.79771142 L11.7937433,7.92667153 C11.7937433,7.92667153 14.1428632,5.46139167 18.1931029,6.23179163" id="Fill-12" fill="#738523"></path>
            <path d="M13.5205912,3.91943977 C13.6180011,5.18904287 13.5656531,6.12227688 13.4543716,6.80090104 C14.5481617,6.27563972 16.155326,5.84418415 18.1931029,6.23179163 C17.292342,7.85934275 16.3576584,8.71523895 15.6364867,9.16503265 L15.426788,9.28815324 C15.3591885,9.32537612 15.2939716,9.35890352 15.2313847,9.389101 L15.0517612,9.47006923 L15.0517612,9.47006923 L14.8894023,9.53325125 L14.8894023,9.53325125 L14.6814825,9.59947303 L14.6814825,9.59947303 L14.5207588,9.63801324 L14.5207588,9.63801324 L14.388537,9.65913429 L14.388537,9.65913429 L11.7313433,9.79775942 L11.7537919,9.10943977 L10.6194714,9.79751942 L9.73279191,8.34143977 L8.84764747,9.79751942 L7.71279191,9.10943977 L7.73587154,9.79775942 L5.03211163,9.65802456 L5.03211163,9.65802456 L4.91589034,9.64304424 L4.91589034,9.64304424 L4.75257372,9.60841059 L4.75257372,9.60841059 L4.6195984,9.57038084 L4.6195984,9.57038084 L4.46879157,9.51758308 L4.46879157,9.51758308 L4.30139315,9.44760401 C3.60026945,9.13010744 2.53070502,8.34234097 1.44979191,6.38927962 C3.43708904,6.01127394 4.97243327,6.37435083 6.02089706,6.84227319 C5.90388374,6.16024635 5.84729587,5.21496574 5.94652765,3.91943977 C8.37170397,4.660738 9.28848593,6.10638253 9.63502478,7.10154059 L9.70529965,7.32267001 C9.71546735,7.3580169 9.72489826,7.39256598 9.73364574,7.42625155 C9.75112879,7.35888042 9.77134636,7.28805523 9.79472541,7.21430162 L9.87477395,6.98478117 C10.251386,5.99622104 11.1886909,4.63222653 13.5205912,3.91943977 Z" id="Path" stroke="#000000" stroke-width="0.5"></path>
            <g id="Group-16" transform="translate(0.000000, 7.102176)">
                <mask id="mask-10" fill="white">
                    <use xlink:href="#path-9"></use>
                </mask>
                <g id="Clip-15"></g>
                <path d="M19.6377588,8.3466235 C19.5801588,7.07126358 19.2148789,5.16134369 18.3892789,4.02758376 C17.533439,2.85158383 16.481759,1.91750389 15.2899191,1.36982392 C13.8225592,0.695423959 12.1526393,0.438623974 10.7251194,0.388703977 C10.6497594,0.386303977 10.3118394,0.358463979 9.82127941,0.359399721 C9.33071944,0.358463979 8.99279946,0.386303977 8.91743947,0.388703977 C7.48991955,0.438623974 5.81999965,0.695423959 4.35263974,1.36982392 C3.16079981,1.91750389 2.10911987,2.85158383 1.25327993,4.02758376 C0.427679975,5.16134369 0.0628799963,7.07126358 0.00479999971,8.3466235 C-0.0647999961,9.89414341 0.619679963,11.7743033 1.28063992,13.1403832 C1.6343999,13.8709432 2.04143988,14.5722231 2.45663985,15.2667831 C2.87039983,15.960383 3.2759998,16.662623 3.71327978,17.340863 C4.12511975,17.9792629 6.03215964,20.5962228 7.30031956,21.7184627 C7.54511955,21.9354227 7.95503953,22.1840627 8.3980795,22.3261427 C8.78351948,22.4499827 9.31151944,22.5599027 9.80063942,22.5599027 C9.80735942,22.5599027 9.81455942,22.5589427 9.82127941,22.5589427 C9.82799941,22.5589427 9.83519941,22.5599027 9.84191941,22.5599027 C10.3310394,22.5599027 10.8590394,22.4499827 11.2449593,22.3261427 C11.6875193,22.1840627 12.0979193,21.9354227 12.3422393,21.7184627 C13.6103992,20.5962228 15.5179191,17.9792629 15.9292791,17.340863 C16.367039,16.662623 16.772159,15.960383 17.186399,15.2667831 C17.601119,14.5722231 18.0081589,13.8709432 18.3619189,13.1403832 C19.0233589,11.7743033 19.7078388,9.89414341 19.6377588,8.3466235" id="Fill-14" fill="#FF4A39" mask="url(#mask-10)"></path>
            </g>
            <path d="M19.6377588,15.4487991 C19.5801588,14.1734392 19.2148789,12.2635193 18.3892789,11.1297593 C17.533439,9.95375941 16.481759,9.01967946 15.2899191,8.4719995 C13.8225592,7.79759954 12.1526393,7.54079955 10.7251194,7.49087955 C10.6497594,7.48847955 10.3118394,7.46063956 9.82127941,7.4615753 C9.33071944,7.46063956 8.99279946,7.48847955 8.91743947,7.49087955 C7.48991955,7.54079955 5.81999965,7.79759954 4.35263974,8.4719995 C3.16079981,9.01967946 2.10911987,9.95375941 1.25327993,11.1297593 C0.427679975,12.2635193 0.0628799963,14.1734392 0.00479999971,15.4487991 C-0.0647999961,16.996319 0.619679963,18.8764789 1.28063992,20.2425588 C1.6343999,20.9731187 2.04143988,21.6743987 2.45663985,22.3689587 C2.87039983,23.0625586 3.2759998,23.7647986 3.71327978,24.4430385 C4.12511975,25.0814385 6.03215964,27.6983983 7.30031956,28.8206383 C7.54511955,29.0375983 7.95503953,29.2862383 8.3980795,29.4283182 C8.78351948,29.5521582 9.31151944,29.6620782 9.80063942,29.6620782 C9.80735942,29.6620782 9.81455942,29.6611182 9.82127941,29.6611182 C9.82799941,29.6611182 9.83519941,29.6620782 9.84191941,29.6620782 C10.3310394,29.6620782 10.8590394,29.5521582 11.2449593,29.4283182 C11.6875193,29.2862383 12.0979193,29.0375983 12.3422393,28.8206383 C13.6103992,27.6983983 15.5179191,25.0814385 15.9292791,24.4430385 C16.367039,23.7647986 16.772159,23.0625586 17.186399,22.3689587 C17.601119,21.6743987 18.0081589,20.9731187 18.3619189,20.2425588 C19.0233589,18.8764789 19.7078388,16.996319 19.6377588,15.4487991" id="Fill-14" stroke="#000000" stroke-width="0.5"></path>
            <path d="M2.03409588,12.9878872 C2.03409588,13.2998872 1.86561589,13.5533272 1.6572959,13.5533272 C1.44945591,13.5533272 1.28049592,13.2998872 1.28049592,12.9878872 C1.28049592,12.6758872 1.44945591,12.4224473 1.6572959,12.4224473 C1.86561589,12.4224473 2.03409588,12.6758872 2.03409588,12.9878872" id="Fill-17" fill="#FDB813"></path>
            <path d="M6.21484763,10.4866074 C6.21484763,10.8667674 6.00940764,11.1754073 5.75548766,11.1754073 C5.50204767,11.1754073 5.29660768,10.8667674 5.29660768,10.4866074 C5.29660768,10.1059674 5.50204767,9.79732742 5.75548766,9.79732742 C6.00940764,9.79732742 6.21484763,10.1059674 6.21484763,10.4866074" id="Fill-19" fill="#FDB813"></path>
            <path d="M14.1866872,10.3436634 C14.1866872,10.6451034 14.0239672,10.8899034 13.8228472,10.8899034 C13.6217272,10.8899034 13.4585272,10.6451034 13.4585272,10.3436634 C13.4585272,10.0422234 13.6217272,9.79742342 13.8228472,9.79742342 C14.0239672,9.79742342 14.1866872,10.0422234 14.1866872,10.3436634" id="Fill-21" fill="#FDB813"></path>
            <path d="M17.151071,12.0021113 C17.151071,12.2454713 17.019551,12.4427513 16.857311,12.4427513 C16.695071,12.4427513 16.563551,12.2454713 16.563551,12.0021113 C16.563551,11.7582713 16.695071,11.5614713 16.857311,11.5614713 C17.019551,11.5614713 17.151071,11.7582713 17.151071,12.0021113" id="Fill-23" fill="#FDB813"></path>
            <path d="M14.7730551,14.5600791 C14.7730551,14.8317591 14.6256951,15.0520791 14.4447351,15.0520791 C14.2632951,15.0520791 14.1168952,14.8317591 14.1168952,14.5600791 C14.1168952,14.2883991 14.2632951,14.0680792 14.4447351,14.0680792 C14.6256951,14.0680792 14.7730551,14.2883991 14.7730551,14.5600791" id="Fill-25" fill="#FDB813"></path>
            <path d="M17.345135,18.7221109 C17.345135,19.0307509 17.178575,19.2803509 16.973135,19.2803509 C16.767695,19.2803509 16.600655,19.0307509 16.600655,18.7221109 C16.600655,18.4134709 16.767695,18.1638709 16.973135,18.1638709 C17.178575,18.1638709 17.345135,18.4134709 17.345135,18.7221109" id="Fill-27" fill="#FDB813"></path>
            <path d="M9.68668742,9.52943943 C9.68668742,9.82079941 9.52924743,10.0574394 9.33484744,10.0574394 C9.13996746,10.0574394 8.98252746,9.82079941 8.98252746,9.52943943 C8.98252746,9.23759945 9.13996746,9.00095946 9.33484744,9.00095946 C9.52924743,9.00095946 9.68668742,9.23759945 9.68668742,9.52943943" id="Fill-29" fill="#FDB813"></path>
            <path d="M10.2875994,13.2766072 C10.2875994,13.5636472 10.1325594,13.7964472 9.94103941,13.7964472 C9.74951942,13.7964472 9.59447943,13.5636472 9.59447943,13.2766072 C9.59447943,12.9890872 9.74951942,12.7562872 9.94103941,12.7562872 C10.1325594,12.7562872 10.2875994,12.9890872 10.2875994,13.2766072" id="Fill-31" fill="#FDB813"></path>
            <path d="M15.7635351,22.2630227 C15.7635351,22.5380627 15.6147351,22.7612626 15.4318551,22.7612626 C15.2484951,22.7612626 15.0996951,22.5380627 15.0996951,22.2630227 C15.0996951,21.9884627 15.2484951,21.7652627 15.4318551,21.7652627 C15.6147351,21.7652627 15.7635351,21.9884627 15.7635351,22.2630227" id="Fill-33" fill="#FDB813"></path>
            <path d="M11.2827833,23.2370866 C11.2827833,23.5140466 11.1330233,23.7386866 10.9482233,23.7386866 C10.7634234,23.7386866 10.6136634,23.5140466 10.6136634,23.2370866 C10.6136634,22.9601266 10.7634234,22.7354866 10.9482233,22.7354866 C11.1330233,22.7354866 11.2827833,22.9601266 11.2827833,23.2370866" id="Fill-35" fill="#FDB813"></path>
            <path d="M11.0771993,17.226287 C11.0771993,17.523407 10.9168793,17.7643669 10.7181594,17.7643669 C10.5203994,17.7643669 10.3595994,17.523407 10.3595994,17.226287 C10.3595994,16.929167 10.5203994,16.688207 10.7181594,16.688207 C10.9168793,16.688207 11.0771993,16.929167 11.0771993,17.226287" id="Fill-37" fill="#FDB813"></path>
            <path d="M14.1580792,19.5203508 C14.1580792,19.8294708 13.9905592,20.0800308 13.7846392,20.0800308 C13.5782392,20.0800308 13.4111992,19.8294708 13.4111992,19.5203508 C13.4111992,19.2107509 13.5782392,18.9601909 13.7846392,18.9601909 C13.9905592,18.9601909 14.1580792,19.2107509 14.1580792,19.5203508" id="Fill-39" fill="#FDB813"></path>
            <path d="M19.1760469,15.2758551 C19.1760469,15.6195351 18.9898069,15.8979351 18.7613269,15.8979351 C18.5318869,15.8979351 18.3461269,15.6195351 18.3461269,15.2758551 C18.3461269,14.9321751 18.5318869,14.6537751 18.7613269,14.6537751 C18.9898069,14.6537751 19.1760469,14.9321751 19.1760469,15.2758551" id="Fill-41" fill="#FDB813"></path>
            <path d="M8.53353549,20.8258548 C8.53353549,21.1887347 8.3376955,21.4824947 8.09577552,21.4824947 C7.85385553,21.4824947 7.65801554,21.1887347 7.65801554,20.8258548 C7.65801554,20.4634548 7.85385553,20.1696948 8.09577552,20.1696948 C8.3376955,20.1696948 8.53353549,20.4634548 8.53353549,20.8258548" id="Fill-43" fill="#FDB813"></path>
            <path d="M11.1029753,26.6908304 C11.1029753,26.9970704 10.9378553,27.2447504 10.7338554,27.2447504 C10.5298554,27.2447504 10.3647354,26.9970704 10.3647354,26.6908304 C10.3647354,26.3850704 10.5298554,26.1373904 10.7338554,26.1373904 C10.9378553,26.1373904 11.1029753,26.3850704 11.1029753,26.6908304" id="Fill-45" fill="#FDB813"></path>
            <path d="M8.59003149,28.3492783 C8.59003149,28.6415983 8.4316315,28.8791983 8.23675151,28.8791983 C8.04187152,28.8791983 7.88347153,28.6415983 7.88347153,28.3492783 C7.88347153,28.0564783 8.04187152,27.8193583 8.23675151,27.8193583 C8.4316315,27.8193583 8.59003149,28.0564783 8.59003149,28.3492783" id="Fill-47" fill="#FDB813"></path>
            <path d="M13.6775992,26.4480464 C13.6775992,26.6678864 13.5590392,26.8464464 13.4121592,26.8464464 C13.2657592,26.8464464 13.1467192,26.6678864 13.1467192,26.4480464 C13.1467192,26.2277264 13.2657592,26.0496464 13.4121592,26.0496464 C13.5590392,26.0496464 13.6775992,26.2277264 13.6775992,26.4480464" id="Fill-49" fill="#FDB813"></path>
            <path d="M8.03500752,25.2545745 C8.03500752,25.5593745 7.87036753,25.8060945 7.66684754,25.8060945 C7.46380756,25.8060945 7.29868756,25.5593745 7.29868756,25.2545745 C7.29868756,24.9492945 7.46380756,24.7025745 7.66684754,24.7025745 C7.87036753,24.7025745 8.03500752,24.9492945 8.03500752,25.2545745" id="Fill-51" fill="#FDB813"></path>
            <path d="M4.9527837,24.2913106 C4.9527837,24.5961105 4.78814371,24.8433105 4.58462373,24.8433105 C4.38158374,24.8433105 4.21646375,24.5961105 4.21646375,24.2913106 C4.21646375,23.9860306 4.38158374,23.7388306 4.58462373,23.7388306 C4.78814371,23.7388306 4.9527837,23.9860306 4.9527837,24.2913106" id="Fill-53" fill="#FDB813"></path>
            <path d="M5.50473567,14.7245751 C5.50473567,15.1258551 5.28825568,15.4508151 5.0208957,15.4508151 C4.75353572,15.4508151 4.53705573,15.1258551 4.53705573,14.7245751 C4.53705573,14.3237751 4.75353572,13.9988152 5.0208957,13.9988152 C5.28825568,13.9988152 5.50473567,14.3237751 5.50473567,14.7245751" id="Fill-55" fill="#FDB813"></path>
            <path d="M7.58735955,17.198639 C7.58735955,17.510639 7.41839956,17.7645589 7.21007957,17.7645589 C7.00175958,17.7645589 6.83279959,17.510639 6.83279959,17.198639 C6.83279959,16.886159 7.00175958,16.632239 7.21007957,16.632239 C7.41839956,16.632239 7.58735955,16.886159 7.58735955,17.198639" id="Fill-57" fill="#FDB813"></path>
            <path d="M2.19110387,17.9387989 C2.19110387,18.2824789 2.00534388,18.5613589 1.77590389,18.5613589 C1.54694391,18.5613589 1.36118392,18.2824789 1.36118392,17.9387989 C1.36118392,17.594639 1.54694391,17.316239 1.77590389,17.316239 C2.00534388,17.316239 2.19110387,17.594639 2.19110387,17.9387989" id="Fill-59" fill="#FDB813"></path>
            <path d="M5.0308317,20.8867668 C5.0308317,21.2174867 4.85179171,21.4862867 4.63099172,21.4862867 C4.41067174,21.4862867 4.23115175,21.2174867 4.23115175,20.8867668 C4.23115175,20.5560468 4.41067174,20.2872468 4.63099172,20.2872468 C4.85179171,20.2872468 5.0308317,20.5560468 5.0308317,20.8867668" id="Fill-61" fill="#FDB813"></path>
            <g id="Group-65" transform="translate(9.599999, 7.102176)">
                <mask id="mask-12" fill="white">
                    <use xlink:href="#path-11"></use>
                </mask>
                <g id="Clip-64"></g>
                <path d="M10.0377594,8.3466235 C9.98015941,7.07126358 9.61487943,5.16134369 8.78927948,4.02758376 C7.93343953,2.85110383 6.88175959,1.91750389 5.68991966,1.36982392 C4.22255975,0.695423959 2.55263985,0.438623974 1.12511993,0.388703977 C1.04975994,0.386303977 0.711839958,0.358463979 0.221279987,0.359399721 L0.221279987,22.5589427 C0.227999986,22.5589427 0.235199986,22.5599027 0.241919986,22.5599027 C0.731039956,22.5599027 1.25903992,22.4499827 1.6449599,22.3261427 C2.08751988,22.1840627 2.49791985,21.9354227 2.74223984,21.7184627 C4.01039976,20.5962228 5.91791965,17.9792629 6.32927962,17.340863 C6.7670396,16.662623 7.17215957,15.960383 7.58639955,15.2667831 C8.00111952,14.5722231 8.4081595,13.8709432 8.76191948,13.1403832 C9.42335944,11.7743033 10.1078394,9.89414341 10.0377594,8.3466235" id="Fill-63" fill-opacity="0.4" fill="#C62B27" mask="url(#mask-12)"></path>
            </g>
        </g>
    </g>
</svg>