<?xml version="1.0" encoding="UTF-8"?>
<svg width="40px" height="40px" viewBox="0 0 40 40" version="1.1" xmlns="http://www.w3.org/2000/svg" xmlns:xlink="http://www.w3.org/1999/xlink">
    <title>Verduras_40x40</title>
    <defs>
        <polygon id="path-1" points="0.163593849 0.0580923086 29.5563327 0.0580923086 29.5563327 30.3925174 0.163593849 30.3925174"></polygon>
        <polygon id="path-3" points="0 0.085077942 20.5416176 0.085077942 20.5416176 22.0233357 0 22.0233357"></polygon>
        <polygon id="path-5" points="0.0207753849 0.0582382451 15.7958296 0.0582382451 15.7958296 31.0153851 0.0207753849 31.0153851"></polygon>
        <polygon id="path-7" points="7.00014653 23.5313045 37.5369974 23.5313045 37.5369974 36.4999988 7.00014653 36.4999988"></polygon>
    </defs>
    <g id="Verduras_40x40" stroke="none" stroke-width="1" fill="none" fill-rule="evenodd">
        <g id="Group-20" transform="translate(1.000000, 2.000000)">
            <polygon id="Fill-1" fill="#CFEFA4" points="12 31 20 31 20 26 12 26"></polygon>
            <g id="Group-19">
                <g id="Group-4" transform="translate(0.984615, 0.000000)">
                    <mask id="mask-2" fill="white">
                        <use xlink:href="#path-1"></use>
                    </mask>
                    <g id="Clip-3"></g>
                    <path d="M23.3064865,3.37073236 C22.8013788,2.64408619 22.1603942,1.99473234 21.5656865,1.44728618 C20.6859326,0.636947702 19.8367018,-0.0311138466 18.6172557,0.067840001 C18.099348,0.110178463 17.5957172,0.257870773 17.0807633,0.314486159 C16.6765787,0.359286159 16.2561479,0.270670773 15.8524556,0.232270773 C14.2047018,0.0752246165 12.2881479,0.00777846165 10.7969479,0.887532321 C10.5168248,1.0524554 10.294794,1.24987079 10.121994,1.48913233 C4.3162093,3.35300928 0.163593849,8.71473244 0.163593849,16.0191018 C0.163593849,25.1656865 6.53799394,30.3925174 14.6551633,30.3925174 C22.771348,30.3925174 29.5563327,25.1656865 29.5563327,16.0191018 C29.5563327,10.4373171 27.0805173,5.98980932 23.3064865,3.37073236" id="Fill-2" fill="#E2FBB9" mask="url(#mask-2)"></path>
                </g>
                <path d="M14.4877294,6.70247395 C14.3961602,6.8974278 14.0318525,6.79995087 13.8496987,6.8974278 C12.2088371,8.25915089 11.2975756,10.2047509 10.6595448,12.150351 C8.93991398,17.6563203 8.58692936,23.339028 8.87345244,28.9897358 C10.8835448,29.9123204 13.1816371,30.3923205 15.6397295,30.3923205 C23.7559142,30.3923205 30.5408989,25.1659819 30.5408989,16.0193972 C30.5408989,10.3307817 27.9695758,5.82025855 24.0724681,3.22284312 C23.6264373,3.53890467 23.1853296,3.86432006 22.6905603,4.07601237 C20.0473603,5.14628931 16.8572064,4.17299699 14.4877294,6.70247395" id="Fill-5" stroke="#000000" stroke-width="0.5" fill="#BFE592"></path>
                <path d="M21.0502403,25.2837419 C20.6854403,21.4900188 19.2272249,18.1822033 17.1309787,14.9718648 C17.0399018,14.776911 17.0399018,14.3879879 17.1309787,14.1935264 C17.734548,12.8411571 18.1372557,11.3179571 18.0501172,9.90651092 C18.1382403,9.57174168 18.188948,9.22663398 18.1864864,8.87168013 C18.1835326,8.34589551 18.0240249,7.82158781 17.7114095,7.41395703 C17.3431633,6.93395703 16.8129479,6.75623395 16.2571325,6.66220318 C15.627471,6.55586471 15.0140556,6.48694164 14.3927633,6.33038779 C14.3799633,6.32743394 14.3686402,6.32300317 14.3558402,6.31955702 C13.9167017,5.99758778 13.5179325,5.61801855 13.1206402,5.14638777 C13.072394,5.09469546 13.0197171,5.05137238 12.9631017,5.01444931 C12.918794,4.74712622 12.8759633,4.47980314 12.8365787,4.21149545 C12.7583017,3.67488005 12.7514094,3.13924928 12.5195325,2.64398773 C12.1158402,1.78195695 11.3478402,1.44275694 10.4991017,1.32214156 C9.75227091,1.2158031 8.94193244,1.46048002 8.3063632,1.87254157 C8.13454781,1.98429541 7.98193243,2.12066465 7.84211704,2.27328003 C6.65565548,2.79758773 5.68187085,4.03328006 4.95670161,5.05777238 C4.37282468,5.88140316 3.81947083,6.7724801 3.33356313,7.66454165 C3.33307082,7.66503396 3.33307082,7.66552627 3.33257851,7.66601858 C1.94722464,9.99020323 1.14820925,12.8180187 1.14820925,16.0194956 C1.14820925,25.1660804 7.52260934,30.3924189 15.6397787,30.3924189 C17.7498095,30.3924189 19.769748,30.0379574 21.6040865,29.3546343 C21.3210095,28.0239266 21.1851326,26.6538342 21.0502403,25.2837419" id="Fill-7" stroke="#000000" stroke-width="0.5" fill="#CFEFA4"></path>
                <path d="M28.0680373,12.1169233 C27.6121604,10.9319386 27.0656989,9.47372322 25.9717912,9.10941552 C24.0576988,8.56196936 21.8703757,9.01784629 20.2295141,10.3849848 C19.6830526,10.8408617 19.5008988,11.6610463 18.9534526,12.025354 C15.763791,14.6690464 12.5736371,16.5826464 10.2947448,20.1376003 C8.81486782,22.4499696 7.12379088,24.8337234 5.92403701,27.3469543 C8.47763705,29.3358774 11.8706217,30.3923697 15.6397295,30.3923697 C23.3630527,30.3923697 29.8807143,25.9581542 30.4936374,18.1447387 C30.1820066,17.5037541 29.8590528,16.8632618 29.5267451,16.2183387 C28.8887143,14.8512002 28.5239143,13.4835694 28.0680373,12.1169233" id="Fill-9" stroke="#000000" stroke-width="0.5" fill="#A1CD76"></path>
                <path d="M31.2536128,15.525071 C31.1837051,12.9168248 32.2874589,9.28753245 30.6318281,7.22131703 C30.4511512,6.9953478 28.3204435,7.91744012 28.1343512,8.11485551 C27.9910896,8.26747089 27.8576743,8.42993243 27.7331204,8.6002709 C27.2634589,8.82230167 26.8720742,9.19054783 26.6096742,9.74734784 C25.8805665,11.113994 26.8833973,12.8459325 25.5162588,13.9393479 C25.4251819,14.0309171 25.1514588,14.1215017 24.969305,14.1215017 C25.1514588,14.3952248 24.6960742,14.4867941 24.604505,14.4867941 C23.2378588,15.4891325 19.2905357,18.8845787 19.1994587,19.0667326 C18.105551,20.7986711 19.3185972,22.0515942 18.4979203,23.8746096 C17.9509664,24.8769481 17.1307818,25.6065481 16.857551,26.6999635 C16.6148433,27.9125173 16.6955818,29.2461789 17.2597664,30.3253174 C23.6548434,29.7965789 28.9402589,26.1224865 30.2360128,19.9499326 C30.327582,19.8042095 30.4161974,19.6565172 30.4989051,19.5043941 C31.1581051,18.2992249 31.2895512,16.8774403 31.2536128,15.525071" id="Fill-11" stroke="#000000" stroke-width="0.5" fill="#88B556"></path>
                <g id="Group-15" transform="translate(0.000000, 8.369231)">
                    <mask id="mask-4" fill="white">
                        <use xlink:href="#path-3"></use>
                    </mask>
                    <g id="Clip-14"></g>
                    <path d="M18.4978218,15.7789049 C18.1335141,12.497674 14.3964064,11.9507202 12.573391,9.67232014 C11.8442833,8.66948936 11.9353602,7.21127395 10.9330217,6.39108933 C10.0212678,5.75256624 8.65412936,6.11736625 7.56022165,5.57041239 C6.10200624,4.93238161 5.73769855,3.29201236 5.00859084,2.0159508 C4.69449853,1.43995079 4.16969852,0.836381551 3.60797544,0.614350778 C3.47800621,0.447950776 3.31505236,0.308627697 3.10729851,0.213120003 C2.48600619,-0.0743876934 1.83123695,0.142227694 1.4570831,0.663581548 C1.43591387,0.68032001 1.41523694,0.697058472 1.39505233,0.714781549 C1.26262156,0.832935397 1.14840617,0.96290463 1.0479754,1.10222771 C0.846129243,1.23958156 0.66496001,1.42419694 0.514313854,1.66542772 C-0.0090092309,2.50038158 0.094375386,3.68881236 0.0677907702,4.62665853 C0.028898462,5.9997047 -0.0818707705,7.37176626 0.106190771,8.73792013 C0.257329235,9.84019707 0.544836931,10.9144125 0.96231386,11.9462894 C1.36452925,12.9397663 1.88686772,13.9396433 2.53474465,14.841551 C4.83874469,19.4761357 9.78594476,22.0233357 15.6394833,22.0233357 C17.1912372,22.0233357 18.6927757,21.8436434 20.1086526,21.4941049 C20.1854526,21.2632126 20.2558526,21.0293665 20.3208372,20.7920742 C20.7767142,18.9685664 20.6851449,16.5075202 18.4978218,15.7789049" id="Fill-13" stroke="#000000" stroke-width="0.5" fill="#9BC475" mask="url(#mask-4)"></path>
                </g>
                <g id="Group-18" transform="translate(15.753846, 0.000000)">
                    <mask id="mask-6" fill="white">
                        <use xlink:href="#path-5"></use>
                    </mask>
                    <g id="Clip-17"></g>
                    <path d="M14.8781295,7.22121857 C14.7348679,7.04201857 13.3662525,7.58404934 12.7124679,7.91537243 C12.6750525,7.85088012 12.6381294,7.78688012 12.6002217,7.72386473 C12.5692063,7.67168011 12.536714,7.62048011 12.5052063,7.5682955 C12.4584371,7.49248011 12.4111756,7.41666473 12.3634217,7.34232626 C12.3309294,7.29211088 12.2984371,7.2423878 12.2649602,7.19217241 C12.2162217,7.11783395 12.1660063,7.04349549 12.1157909,6.96964933 C12.082314,6.92140318 12.0488371,6.87364933 12.0148679,6.82540318 C11.9631756,6.75204933 11.9109909,6.67869548 11.8578217,6.60681856 C11.8238525,6.56004933 11.7893909,6.51426471 11.7544371,6.4684801 C11.6997909,6.39561856 11.6451448,6.32423394 11.589514,6.25284932 C11.5545602,6.20854163 11.519114,6.16472625 11.4836679,6.12041855 C11.4265602,6.04952624 11.3694525,5.97912624 11.3113602,5.90971086 C11.2754217,5.86638778 11.2389909,5.82404932 11.2030525,5.78171086 C11.1434832,5.71278778 11.083914,5.64337239 11.0233602,5.57543393 C10.9869294,5.53457239 10.9500063,5.49371085 10.9125909,5.45284931 C10.8510525,5.38540316 10.7885294,5.317957 10.725514,5.25149546 C10.6880986,5.21211085 10.6511755,5.17321854 10.6137602,5.13481854 C10.5492678,5.068357 10.4837909,5.00238777 10.418314,4.93740315 C10.3808986,4.89998777 10.3429909,4.86257238 10.3045909,4.8256493 C10.2376371,4.76115699 10.1701909,4.69715699 10.1022525,4.6336493 C10.0643448,4.59820315 10.0259448,4.56275699 9.98656015,4.52681853 C9.91763707,4.46380314 9.84772938,4.40177237 9.77732938,4.34023391 C9.73843707,4.30626468 9.69954476,4.27278776 9.66016014,4.23881852 C9.58877553,4.17777237 9.5164063,4.11721852 9.44354476,4.05715698 C9.40416014,4.02515698 9.36477552,3.99266467 9.32539091,3.96115698 C9.25105245,3.90208006 9.17671398,3.84349544 9.10188321,3.78540313 C9.06200629,3.75488006 9.02163706,3.72386467 8.98126783,3.6938339 C8.90545244,3.63672621 8.82865244,3.58011082 8.75136013,3.52398774 C8.7109909,3.4954339 8.67062167,3.46589544 8.62976013,3.43684928 C8.59874474,3.41568005 8.56871397,3.39254159 8.53720628,3.37088005 C8.03209858,2.64423389 7.39111396,1.99488003 6.79640626,1.44694156 C5.9166524,0.637095394 5.06791392,-0.0309661543 3.84797544,0.0679876933 C3.33006774,0.110326155 2.82692927,0.257526158 2.31197542,0.314633851 C1.90729849,0.359433852 1.48686771,0.270818466 1.0831754,0.232418465 C0.739052319,0.198941541 0.383113852,0.170387695 0.0207753849,0.153649233 L0.0207753849,31.0154343 L4.72379084,31.0154343 L4.72379084,29.7689112 C4.89560623,29.7226343 5.06496008,29.6729112 5.23382162,29.6217112 L5.24711392,29.6172804 C5.33425239,29.5906958 5.42139085,29.5636189 5.50803701,29.5350651 C5.51246777,29.5335881 5.51640624,29.5321112 5.52132931,29.5306343 C5.9683447,29.3854035 6.40551394,29.2219574 6.83086779,29.0402958 C6.83185241,29.0398035 6.83283702,29.0398035 6.83382164,29.0393112 C6.91505241,29.0048497 6.99579087,28.9694035 7.07652934,28.933465 C7.08391395,28.9300189 7.09179087,28.9265727 7.09868318,28.9231266 C7.17843703,28.8871881 7.25769857,28.8512497 7.33696011,28.8138343 C7.34040626,28.811865 7.34483703,28.8098958 7.3492678,28.8079266 C7.76034473,28.6139573 8.15960628,28.402265 8.5450832,28.1743266 C8.5514832,28.1703881 8.5578832,28.1664497 8.56477551,28.1630035 C8.63616013,28.1201727 8.70803705,28.0763573 8.77892936,28.032542 C8.7877909,28.0276189 8.79616013,28.0222035 8.80502167,28.0162958 C8.8773909,27.9714958 8.94828321,27.9266958 9.01966783,27.8809112 C9.02163706,27.8794343 9.02360629,27.8779573 9.02557552,27.8764804 C9.32785245,27.6810343 9.62028322,27.474265 9.90385246,27.2561727 C9.90434476,27.2551881 9.90582169,27.2542035 9.90729861,27.2532189 C9.97277553,27.2030035 10.0377601,27.1518035 10.1022525,27.1001112 C10.1116063,27.0927266 10.1209602,27.0853419 10.130314,27.0779573 C10.1923448,27.0272496 10.2543755,26.9765419 10.315914,26.9248496 C10.3252678,26.9179573 10.3341294,26.9105727 10.3424986,26.9031881 C10.6757909,26.623065 10.9933294,26.3271881 11.295114,26.0155573 C11.301514,26.0081727 11.3084063,26.0012804 11.3152986,25.9948804 C11.3699448,25.938265 11.4236063,25.8801727 11.4777602,25.8225727 L11.5077909,25.7895881 C11.5609602,25.7319881 11.6136371,25.6738958 11.6658217,25.6148188 C11.672714,25.6069419 11.6805909,25.5980804 11.6879756,25.5897112 C11.9183756,25.3273111 12.1389294,25.055065 12.3466833,24.7719881 C12.3471756,24.7710034 12.3481602,24.7700188 12.3486525,24.7695265 C12.3964063,24.7050342 12.4431756,24.6400496 12.4889602,24.5745727 C12.4978217,24.5617727 12.5071756,24.5489727 12.5160371,24.5361727 C12.5598525,24.4736496 12.6031756,24.4106342 12.6460063,24.3471265 C12.6553602,24.3328496 12.6652063,24.3180804 12.6745602,24.3033111 C12.7178833,24.2383265 12.760714,24.1738342 12.8025602,24.1083573 C12.8084679,24.0990034 12.8138833,24.0901419 12.8192987,24.0807881 C13.003914,23.7898342 13.1772064,23.4895265 13.3376987,23.179865 C13.3440987,23.1685419 13.3500064,23.1567265 13.355914,23.1449111 C13.3908679,23.0764803 13.4258217,23.0075573 13.459791,22.9386342 C13.4686525,22.9204188 13.477514,22.9022034 13.4863756,22.8834957 C13.5193602,22.8155573 13.5518525,22.7471265 13.5833602,22.6782034 C13.5922217,22.6604803 13.6000987,22.6417726 13.6089602,22.6235573 C13.6409602,22.552665 13.6734525,22.4812803 13.7044679,22.4094034 C13.7079141,22.4005419 13.7113602,22.3921726 13.7152987,22.3842957 C13.8216371,22.1366649 13.9210833,21.8841111 14.0121602,21.6266342 C14.0131448,21.6236803 14.0141294,21.6212188 14.0151141,21.6182649 C14.0416987,21.5439265 14.0672987,21.4681111 14.0919141,21.3922957 C14.0992987,21.3716188 14.1066833,21.3509419 14.1130833,21.3297726 C14.1367141,21.258388 14.1593602,21.1865111 14.1815141,21.1141419 C14.189391,21.0895265 14.1962833,21.0649111 14.2041602,21.0398034 C14.2258218,20.9684188 14.246991,20.8955572 14.2676679,20.823188 C14.2735756,20.8000495 14.2799756,20.7774034 14.2863756,20.7542649 C14.3075448,20.6779572 14.3287141,20.6011572 14.3484064,20.5238649 C14.3498833,20.5184495 14.3508679,20.5130342 14.3523448,20.5076188 C14.3991141,20.323988 14.4424371,20.1378957 14.4823141,19.9493418 C14.5738833,19.8041111 14.6624987,19.6559264 14.7452064,19.5042957 C15.4039141,18.2991264 15.5358525,16.8773418 15.4999141,15.5249725 C15.4300064,12.9167263 16.5332679,9.28743398 14.8781295,7.22121857" id="Fill-16" fill-opacity="0.3" fill="#9BC475" mask="url(#mask-6)"></path>
                </g>
            </g>
        </g>
        <g id="Group-22" transform="translate(1.000000, 1.000000)">
            <g id="Group-3" transform="translate(0.000000, 0.176813)">
                <path d="M15.2671008,31.2122985 L15.0435856,31.2068766 L15.0435856,31.2068766 L14.5588224,31.1863091 L14.5588224,31.1863091 L14.128424,31.1577995 L14.128424,31.1577995 L13.7177934,31.1213682 L13.7177934,31.1213682 L13.3393185,31.0796091 L13.3393185,31.0796091 L13.0649906,31.04407 L13.0649906,31.04407 L12.6801611,30.9875386 L12.6801611,30.9875386 L12.2275019,30.9092621 L12.2275019,30.9092621 L11.8217675,30.8287215 L11.8217675,30.8287215 L11.3024888,30.7107534 L11.3024888,30.7107534 L11.0708322,30.6519013 L11.0708322,30.6519013 C10.7419441,30.5665825 10.418518,30.4714894 10.100993,30.3668616 L9.57784266,30.1834214 L9.57784266,30.1834214 L9.52641081,30.1641936 C8.71071463,29.8591722 7.93797571,29.4887571 7.2157289,29.0554427 L6.82457898,28.810685 L6.82457898,28.810685 C4.99883825,27.6271528 3.5234302,26.0227477 2.53474465,24.0339687 C1.88686772,23.132061 1.36452925,22.132184 0.96231386,21.1387071 C0.544836931,20.1068302 0.257329235,19.0326148 0.106190771,17.9303378 C-0.0818707705,16.5641839 0.028898462,15.1921224 0.0677907702,13.8190762 L0.0774585551,12.8997968 C0.0900873568,12.1833533 0.152013257,11.4358904 0.514313854,10.8578454 C0.66496001,10.6166146 0.846129243,10.4319992 1.0479754,10.2946454 C1.14840617,10.1553223 1.26262156,10.0253531 1.39505233,9.90719923 L1.4570831,9.85599923 L1.4570831,9.85599923 C1.7840156,9.4004446 2.32520126,9.17756139 2.87109333,9.32036908 C3.02102025,9.02731247 3.17997491,8.74037587 3.3474467,8.46076846 C3.83023049,7.57835139 4.37849975,6.69658457 4.95670161,5.88095917 C5.68187085,4.85646685 6.65565548,3.62077452 7.84211704,3.09646682 C7.98193243,2.94385144 8.13454781,2.8074822 8.3063632,2.69572836 C8.94193244,2.28366681 9.75227091,2.03898989 10.4991017,2.14532835 C10.7154677,2.17607642 10.9265868,2.22102978 11.1277609,2.28522889 C11.2967484,2.05776787 11.5123227,1.86923511 11.7815633,1.71071911 C13.2727633,0.830965252 15.1893171,0.898411407 16.837071,1.05545756 C17.2407633,1.09385756 17.6611941,1.18247295 18.0653787,1.13767295 C18.5803326,1.08105756 19.0839634,0.933365253 19.6018711,0.891026791 C20.7451018,0.798257559 21.562948,1.37962295 22.3856079,2.12035433 L22.5503019,2.27047297 C23.1450096,2.81791913 23.7859942,3.46727298 24.2911019,4.19391915 C24.6311072,4.42987375 24.9605757,4.68066853 25.2786463,4.94579591 L25.6561607,5.27259134 L25.6561607,5.27259134 L26.0021203,5.59257833 L26.0021203,5.59257833 L26.1432645,5.73025204 L26.1432645,5.73025204 C26.4408092,6.02285623 26.7253586,6.32932006 26.9967552,6.64921479 L27.1548932,6.83940624 L27.1548932,6.83940624 L27.4013112,7.14867462 L27.4013112,7.14867462 L27.5471095,7.34105555 L27.5471095,7.34105555 L27.6900652,7.53612319 L27.8723729,7.79533114 L27.8723729,7.79533114 L28.0162526,8.00852571 L28.0162526,8.00852571 L28.2225044,8.3303437 L28.2225044,8.3303437 C28.3064327,8.46463592 28.3880788,8.60063104 28.4676817,8.7383265 L28.5827392,8.68140355 L28.5827392,8.68140355 L28.8446326,8.55964981 L28.8446326,8.55964981 L29.1355848,8.4337496 L29.1355848,8.4337496 L29.4396212,8.31137966 L29.4396212,8.31137966 L29.7407669,8.20021677 C30.1823301,8.04571608 30.5602227,7.95494818 30.6318281,8.04450382 C31.6252066,9.28423307 31.6252066,11.08667 31.4813661,12.8936441 L31.3210432,14.6814575 L31.3210432,14.6814575 L31.2789222,15.2566288 C31.2616074,15.5400874 31.2507852,15.8167809 31.2503885,16.0841254 L31.2536128,16.3482578 C31.2895512,17.700627 31.1581051,19.1224117 30.4989051,20.3275809 C30.4161974,20.479704 30.327582,20.6273963 30.2360128,20.7731194 L30.1640439,21.0981283 L30.1640439,21.0981283 L30.0646775,21.4901957 L30.0646775,21.4901957 L29.9914272,21.753625 L29.9914272,21.753625 L29.889614,22.0846092 L29.889614,22.0846092 C29.7721054,22.4521788 29.639178,22.8093879 29.4917734,23.1561955 L29.3031968,23.5760948 L29.3031968,23.5760948 C28.5606188,25.1565681 27.5096867,26.5093004 26.2252668,27.6177845 L25.8665509,27.9151172 L25.8665509,27.9151172 C25.6715097,28.0722193 25.4714119,28.2236389 25.266592,28.3695612 L24.8524595,28.6519902 L24.8524595,28.6519902 C24.4848752,28.8944623 24.1033026,29.1200565 23.7091881,29.328797 L23.2505302,29.5604546 L23.2505302,29.5604546 C22.9494656,29.7072019 22.641601,29.8441837 22.3275359,29.9715287 L21.7701839,30.1842167 L21.7701839,30.1842167 C21.0766987,30.4357402 20.3554018,30.6420797 19.6119436,30.8023808 L19.0193187,30.9188326 L19.0193187,30.9188326 L18.7689852,30.9627481 L18.7689852,30.9627481 L18.4397157,31.0137877 L18.4397157,31.0137877 L17.9384871,31.0808409 L17.9384871,31.0808409 L17.2597664,31.1485042 L16.7724113,31.183428 L16.7724113,31.183428 L16.072639,31.2108916 L15.6397787,31.2157042 L15.2671008,31.2122985 Z" id="Path" stroke="#000000" stroke-width="0.5"></path>
                <mask id="mask-8" fill="white">
                    <use xlink:href="#path-7"></use>
                </mask>
                <g id="Clip-2"></g>
                <path d="M20.9978788,26.4417437 C29.4008181,23.454464 36.7815374,22.632044 37.4835374,24.6057439 C38.1849973,26.5794437 31.9420579,30.6013633 23.5396586,33.5891831 C15.1367193,36.5775428 7.75599993,37.3994228 7.054,35.4257229 C6.35200006,33.4514831 12.5949395,29.4295634 20.9978788,26.4417437" id="Fill-1" fill="#6BA103" mask="url(#mask-8)"></path>
            </g>
            <path d="M10.8655357,32.1466984 C9.83575576,32.5128184 9.2979158,33.6441183 9.66403577,34.6744382 C10.0301557,35.7042181 11.1614556,36.2420581 12.1917756,35.8759381 C13.2210155,35.5098181 13.7588554,34.3779782 13.3932754,33.3487383 C13.0266155,32.3184184 11.8953156,31.7805785 10.8655357,32.1466984" id="Fill-4" fill="#9FCE28"></path>
            <path d="M15.1615053,30.6189846 C14.1317254,30.9856445 13.5938854,32.1169444 13.9600054,33.1467244 C14.3261254,34.1765043 15.4574253,34.7143442 16.4877452,34.3482242 C17.5169851,33.9826443 18.055365,32.8508044 17.6892451,31.8210245 C17.3225851,30.7907046 16.1912852,30.2528646 15.1615053,30.6189846" id="Fill-6" fill="#9FCE28"></path>
            <path d="M19.4575289,29.0918107 C18.427749,29.4579307 17.8899091,30.5892306 18.256029,31.6195505 C18.622149,32.6487904 19.7534489,33.1871703 20.7837688,32.8205104 C21.8135487,32.4549304 22.3513887,31.3230905 21.9852687,30.2933106 C21.6186087,29.2629907 20.4873088,28.7251507 19.4575289,29.0918107" id="Fill-8" fill="#9FCE28"></path>
            <path d="M23.7535526,27.5640968 C22.7237726,27.9302168 22.1859327,29.0615167 22.5520527,30.0918366 C22.9181726,31.1216165 24.0500125,31.6594565 25.0797924,31.2927965 C26.1095724,30.9272165 26.6474123,29.7953766 26.2812923,28.7655967 C25.9151724,27.7358168 24.7833325,27.1979769 23.7535526,27.5640968" id="Fill-10" fill="#9FCE28"></path>
            <path d="M28.0497922,26.036383 C27.0200123,26.4030429 26.4821723,27.5343428 26.8477523,28.5641227 C27.2144123,29.5939027 28.3457122,30.1317426 29.3760321,29.7656226 C30.405272,29.3995027 30.9436519,28.2682028 30.577532,27.2384229 C30.210872,26.2081029 29.0795721,25.670263 28.0497922,26.036383" id="Fill-12" fill="#9FCE28"></path>
            <path d="M32.3458158,24.5086691 C31.3160359,24.8753291 30.778196,26.006629 31.1443159,27.0364089 C31.5104359,28.0661888 32.6417358,28.6040287 33.6720557,28.2379088 C34.7018356,27.8723288 35.2396756,26.7404889 34.8735556,25.710709 C34.5068956,24.6803891 33.3755957,24.1425491 32.3458158,24.5086691" id="Fill-14" fill="#9FCE28"></path>
            <path d="M7.054,35.6025361 L37.4835374,24.7825571 C36.7815374,22.8088572 29.4008181,23.6312772 20.9978788,26.6185569 C12.5949395,29.6063767 6.35200006,33.6282963 7.054,35.6025361 Z" id="Fill-16" fill-opacity="0.5" fill="#6BA103"></path>
            <path d="M15.7629572,22.5801673 C21.7666767,16.5440478 27.8373562,12.8482881 29.3223561,14.325188 C30.807356,15.8020878 27.1450763,21.8932873 21.1413568,27.9294068 C15.1381773,33.9655263 9.06749782,37.661286 7.58195795,36.1838461 C6.09695808,34.7069462 9.75923776,28.6162867 15.7629572,22.5801673" id="Fill-18" stroke="#000000" stroke-width="0.5" fill="#80BF03"></path>
            <path d="M15.7629572,22.5801673 C9.75977776,28.6162867 6.09695808,34.7069462 7.58195795,36.1838461 L29.3223561,14.325188 C27.8368162,12.8482881 21.7666767,16.5440478 15.7629572,22.5801673" id="Fill-20" fill="#6BA103"></path>
            <path d="M29.3223561,14.325188 C29.841057,14.8410596 29.7317589,15.9199034 29.1140353,17.3627296 L28.9330495,17.7651025 C28.7396377,18.1762008 28.5092177,18.6130265 28.2442151,19.0715432 L27.9677748,19.5371407 C27.9198101,19.6158955 27.8709072,19.6952155 27.8210774,19.7750819 L27.5110651,20.2606884 L27.5110651,20.2606884 L27.1793453,20.758513 L27.1793453,20.758513 L26.826457,21.2676586 C26.7659081,21.3534098 26.7044998,21.4395953 26.6422431,21.5261964 L26.2586126,22.0506417 L26.2586126,22.0506417 L25.8551613,22.5841654 C25.7862976,22.6737927 25.7166305,22.7637609 25.6461712,22.8540513 L25.213999,23.3995108 L25.213999,23.3995108 L24.7633535,23.9518062 C24.6867364,24.0443752 24.6093721,24.1371917 24.5312717,24.230237 L24.0539268,24.7911044 L24.0539268,24.7911044 L23.559456,25.356565 L23.559456,25.356565 L23.0483985,25.925722 L23.0483985,25.925722 L23.4297438,25.8047493 L23.4297438,25.8047493 L24.1854497,25.5725157 L24.1854497,25.5725157 L24.9309905,25.3533262 C25.0543434,25.317888 25.1772302,25.282998 25.2996296,25.2486586 L26.0280066,25.0492491 C26.1483711,25.0171217 26.2682056,24.9855498 26.3874889,24.9545356 L27.0964022,24.7751626 C27.213395,24.7463889 27.329794,24.7181778 27.4455778,24.6905315 L28.1327279,24.5314516 L28.1327279,24.5314516 L28.8040915,24.3860429 C28.9146131,24.3629537 29.0244344,24.340439 29.133534,24.318501 L29.7793016,24.193813 C29.8854294,24.1741916 29.9907931,24.1551516 30.0953712,24.1366956 L30.713243,24.032985 L30.713243,24.032985 L31.31124,23.9434018 C31.4091932,23.9296549 31.5062756,23.9165013 31.6024661,23.9039436 L32.1687346,23.8357653 L32.1687346,23.8357653 L32.7125731,23.7819996 L32.7125731,23.7819996 L33.2329595,23.7427604 C33.3176795,23.7374374 33.4013797,23.7327244 33.4840388,23.7286238 L33.9673308,23.7113882 C35.9275752,23.6703516 37.2105471,24.0150344 37.4835374,24.7825571 C37.7641214,25.572037 36.9336014,26.6892321 35.2982137,27.9368739 L34.9066684,28.2270171 L34.9066684,28.2270171 L34.4873841,28.5212528 L34.4873841,28.5212528 L34.0411974,28.8190422 C33.9646375,28.86894 33.8869915,28.9189634 33.8082769,28.9691012 L33.3233045,29.2712112 C33.2403849,29.3217617 33.1564314,29.3724042 33.0714616,29.4231274 L32.5495853,29.7283457 L32.5495853,29.7283457 L32.0041517,30.0349628 L32.0041517,30.0349628 L31.4359973,30.34244 L31.4359973,30.34244 L30.8459583,30.6502385 C30.7458412,30.7015351 30.6448471,30.7528227 30.5429934,30.8040899 L29.9216957,31.1113603 L29.9216957,31.1113603 L29.2806043,31.4176051 L29.2806043,31.4176051 L28.6205555,31.7222857 L28.6205555,31.7222857 L27.9423857,32.0248633 C27.8278937,32.0750877 27.7126816,32.125202 27.5967667,32.1751951 L26.8929833,32.473608 L26.8929833,32.473608 L26.1731697,32.7685711 L26.1731697,32.7685711 L25.4381622,33.0595456 C25.3144413,33.107679 25.1901221,33.1556238 25.0652221,33.2033688 L24.3089919,33.4873503 C24.1818384,33.5342508 24.0541389,33.5809291 23.9259109,33.6273739 L23.5396586,33.7659963 C22.6463293,34.0836934 21.7645533,34.3769046 20.9011271,34.6448741 L20.0440693,34.9044016 L20.0440693,34.9044016 L19.200755,35.1469334 L19.200755,35.1469334 L18.3726947,35.3723013 L18.3726947,35.3723013 L17.5613985,35.5803375 L17.5613985,35.5803375 L16.768377,35.7708739 C13.1126001,36.61895 10.1031314,36.8898807 8.43070209,36.5068448 C8.08388876,36.4906317 7.80489827,36.3922973 7.60427895,36.2053356 C7.32704081,36.0450295 7.14018613,35.8448518 7.054,35.6025361 C6.91678689,35.2166507 7.04490326,34.7525342 7.40261752,34.2331998 C7.95144342,32.2119032 9.95589061,29.0662707 12.8879294,25.6749583 L13.4865486,24.9936804 C14.1990018,24.195642 14.9600407,23.3874169 15.7629572,22.5801673 C15.9535515,22.3885444 16.1442133,22.1992802 16.3347936,22.0124653 L16.9061418,21.4594588 C17.0012762,21.3685459 17.096353,21.278268 17.1913537,21.1886363 L17.7602949,20.6586926 C17.949538,20.4846903 18.1383277,20.3133638 18.3265149,20.1448037 L18.8891208,19.6475132 C18.9825376,19.5660449 19.0757666,19.4852908 19.1687893,19.4052623 L19.7242991,18.9338891 C19.8164217,18.8568082 19.9083006,18.7804756 19.9999172,18.7049026 L20.5463216,18.2606698 C20.6368149,18.1881803 20.7270087,18.1164731 20.8168845,18.0455594 L21.3521737,17.6296904 L21.3521737,17.6296904 L21.8789365,17.2334102 C21.9659701,17.1690261 22.0526113,17.1054809 22.1388413,17.0427858 L22.6511397,16.6769083 L22.6511397,16.6769083 L23.1526787,16.3319789 L23.1526787,16.3319789 L23.6425653,16.0085413 L23.6425653,16.0085413 L24.1199062,15.7071391 C24.1983679,15.6587719 24.2762697,15.6113455 24.353593,15.5648713 L24.8104408,15.2975418 C26.9835438,14.0615484 28.6387847,13.6453452 29.3223561,14.325188 Z" id="Path" stroke="#000000" stroke-width="0.5"></path>
        </g>
    </g>
</svg>