<?xml version="1.0" encoding="UTF-8"?>
<svg width="40px" height="40px" viewBox="0 0 40 40" version="1.1" xmlns="http://www.w3.org/2000/svg" xmlns:xlink="http://www.w3.org/1999/xlink">
    <title>PlantasAromaticas_40x40</title>
    <defs>
        <polygon id="path-1" points="0.0230561968 0.194820008 9.04073474 0.194820008 9.04073474 13.8000005 0.0230561968 13.8000005"></polygon>
        <polygon id="path-3" points="0.245810405 0.290700012 19.8721771 0.290700012 19.8721771 14.0267706 0.245810405 14.0267706"></polygon>
        <polygon id="path-5" points="0.15984005 0.19891267 17.2296007 0.19891267 17.2296007 12.2642768 0.15984005 12.2642768"></polygon>
    </defs>
    <g id="PlantasAromaticas_40x40" stroke="none" stroke-width="1" fill="none" fill-rule="evenodd">
        <g id="Group-40" transform="translate(1.000000, 7.000000)">
            <path d="M31.7323312,25.5882209 C31.6726312,24.5319209 31.5562312,23.4621209 31.1602312,22.4808208 C30.5401312,20.9457208 29.2717311,19.7415207 27.8428311,18.9054207 C26.819531,18.3069206 24.4522309,17.0886206 23.2807309,17.8092206 C23.0248309,17.9664206 22.8013309,18.1707206 22.6072309,18.4041207 C23.6107309,18.9423207 24.6688309,19.3806207 25.686431,19.8954207 C26.951231,20.5359207 28.1839311,21.3264208 29.0206311,22.4712208 C29.5900311,23.2500208 29.9512312,24.1599209 30.2554312,25.0755209 C30.5188312,25.8687209 30.7456312,26.688021 30.7405312,27.523821 C30.7324312,28.9122211 30.0874312,30.2664211 30.2464312,31.6437212 C30.2842312,31.2579212 30.5734312,30.8757211 30.8038312,30.5322211 C31.7548312,29.1138211 31.8286312,27.293121 31.7323312,25.5882209" id="Fill-1" fill="#658D49"></path>
            <g id="Group-5" transform="translate(21.700001, 18.209361)">
                <mask id="mask-2" fill="white">
                    <use xlink:href="#path-1"></use>
                </mask>
                <g id="Clip-4"></g>
                <path d="M9.04073474,9.31452037 C9.04575036,8.47872034 8.81895035,7.6591203 8.55555034,6.86592027 C8.25135033,5.95062024 7.89015031,5.0407202 7.32075029,4.26192017 C6.48405026,3.11712012 5.25135021,2.32662009 3.98625016,1.68612007 C2.96895012,1.17132005 1.91085008,0.733020029 0.907350036,0.194820008 C0.224850009,1.01592004 -0.0736500029,2.22132009 0.050550002,3.21102013 C0.175950007,4.21002017 0.613050024,5.1424202 1.10445004,6.02112024 C1.79415007,7.25442029 2.66925011,8.47692034 3.95955016,9.05262036 C4.9216502,9.48192038 6.08955024,9.54222038 6.83985027,10.2817204 C7.78305031,11.2108204 7.67955031,12.8440205 8.59545034,13.8001205 C8.54715034,13.6786205 8.53455034,13.5562205 8.54655034,13.4344205 C8.38725033,12.0571205 9.03255036,10.7026204 9.04073474,9.31452037" id="Fill-3" fill="#517237" mask="url(#mask-2)"></path>
            </g>
            <path d="M30.2465512,31.6437812 C30.2345512,31.7655812 30.2471512,31.8879812 30.2954512,32.0094812 C29.9029226,31.599724 29.6976307,31.0656016 29.516938,30.515838 L29.3384214,29.9648875 C29.1560572,29.416777 28.9440797,28.8892668 28.5398511,28.4910811 C28.1358434,28.0928887 27.6107564,27.8916242 27.0619165,27.7236405 L26.3508383,27.5131179 C26.1145569,27.4404686 25.8815741,27.3610502 25.659551,27.261981 C24.3692509,26.686281 23.4941509,25.4637809 22.8044509,24.2304809 C22.3130508,23.3517808 21.8759508,22.4193808 21.7505508,21.4203808 C21.6352222,20.5013736 21.8843646,19.3963802 22.4669925,18.5857941 L22.6073509,18.4041807 L22.7583652,18.2348081 C22.9151059,18.0715144 23.0888059,17.9271206 23.2807309,17.8092206 C24.0773509,17.3192126 25.4269089,17.725752 26.5308104,18.2243016 L26.908922,18.4027707 L26.908922,18.4027707 L27.2588309,18.5810205 C27.3143653,18.6102738 27.3683995,18.6391905 27.420771,18.6676067 L27.7137464,18.8307894 C27.7588167,18.856549 27.8018991,18.8814807 27.8428311,18.9054207 C29.2717311,19.7415207 30.5401312,20.9457208 31.1602312,22.4808208 C31.5562312,23.4621209 31.6726312,24.5319209 31.7323312,25.5882209 C31.8286312,27.293121 31.7548312,29.1138211 30.8038312,30.5322211 L30.5991804,30.8353086 C30.4627933,31.0425937 30.336146,31.259241 30.2771186,31.4787011 L30.2465512,31.6437812 Z" id="Path" stroke="#000000" stroke-width="0.3"></path>
            <path d="M16.7708507,3.95122024 C16.0844507,2.16952017 14.2586506,1.02832012 12.3887506,0.643420105 C10.5314505,0.26092009 8.60965042,0.501520099 6.72895035,0.747820109 C7.10275036,0.791020111 7.48195038,0.801220111 7.85755039,0.836020113 C9.48505046,0.986320119 11.0399505,1.62892014 12.4175506,2.50882018 C12.8081506,2.75812019 13.1870506,3.0275202 13.5338506,3.33472021 C15.1307507,4.74892027 15.9308507,6.90262035 15.9875507,9.04462044 C16.7906507,9.04102044 16.7645507,8.44552042 16.9223508,7.54852038 C17.1320508,6.35842033 17.2139508,5.10112028 16.7708507,3.95122024" id="Fill-6" fill="#658D49"></path>
            <path d="M13.5338506,3.33481021 C13.1870506,3.0276102 12.8081506,2.75821019 12.4175506,2.50891018 C11.0399505,1.62901014 9.48505046,0.986110119 7.85755039,0.836110113 C7.48195038,0.801310111 7.10275036,0.791110111 6.72895035,0.747910109 C6.71605035,0.749410109 6.70315035,0.751210109 6.69025035,0.753010109 C7.42315037,1.11781012 7.9538504,1.79551015 8.34835041,2.51311018 C8.74285043,3.23041021 9.02575044,4.00471024 9.41605045,4.72441027 C10.2494505,6.26251033 11.5985505,7.49791038 13.1690506,8.25751041 C13.9544506,8.63731042 14.7977507,8.89951043 15.6617507,9.02161044 C15.7844507,9.03871044 15.8906507,9.04501044 15.9875507,9.04472062 C15.9308507,6.90271035 15.1307507,4.74901027 13.5338506,3.33481021" id="Fill-8" fill="#517237"></path>
            <path d="M15.887284,9.0426579 C15.8180174,9.03961044 15.7435507,9.03301044 15.6617507,9.02161044 C14.7977507,8.89951043 13.9544506,8.63731042 13.1690506,8.25751041 C11.5985505,7.49791038 10.2494505,6.26251033 9.41605045,4.72441027 L9.14004107,4.1761415 L9.14004107,4.1761415 L8.6267223,3.06002895 C8.53862542,2.87532269 8.44697542,2.69243519 8.34835041,2.51311018 C7.9538504,1.79551015 7.42315037,1.11781012 6.69025035,0.753010109 L7.16363958,0.691363848 C8.90493031,0.468191696 10.6743197,0.290343168 12.3887506,0.643420105 C14.2586506,1.02832012 16.0844507,2.16952017 16.7708507,3.95122024 C17.1798661,5.01266643 17.1415443,6.16562506 16.9682936,7.27276848 L16.8283091,8.12783781 C16.7384169,8.64951322 16.6213806,8.98691376 16.1208728,9.03789996 L15.9875507,9.04462044 L15.887284,9.0426579 Z" id="Path" stroke="#000000" stroke-width="0.3"></path>
            <path d="M30.1038212,2.18658009 C27.5769211,2.96298012 25.364121,4.59918018 23.653821,6.61488026 C22.7475209,7.68318031 21.9627209,8.87718035 21.5223209,10.2070804 C21.1143209,11.4388805 21.0240209,12.7960805 21.3918209,14.0362806 C21.8007209,14.2660806 22.2000209,14.4826806 22.5375209,14.7007806 C23.282121,15.1816806 24.028821,15.6640806 24.825321,16.0531806 C25.294221,16.2820806 25.7838211,16.4794807 26.2974211,16.5730807 C26.9463211,16.6915807 27.6147211,16.6411807 28.2660212,16.5376807 C29.4885212,16.3435806 30.6810213,15.9625806 31.7892213,15.4114806 C32.6055213,15.0058806 33.4005214,14.4850806 33.8922214,13.7176805 C34.4697214,12.8164805 34.5579214,11.6971805 34.6299214,10.6291804 C34.7145214,9.37398037 34.7991214,8.11908032 34.8840214,6.86388027 C34.9227214,6.28458025 34.9635214,5.69718023 35.1534214,5.1487802 C35.3433214,4.59978018 35.7039215,4.08498016 36.2289215,3.83748015 C36.6312215,3.64788014 37.0977215,3.62748014 37.4982215,3.43428014 C37.7196215,3.32748013 37.9146215,3.12708012 38.0103216,2.90508012 C37.9371215,2.87658011 37.8660215,2.84298011 37.8018215,2.80818011 C35.4786214,1.54668006 32.6307213,1.40988006 30.1038212,2.18658009" id="Fill-10" fill="#658D49"></path>
            <g id="Group-14" transform="translate(18.200001, 0.009360)">
                <mask id="mask-4" fill="white">
                    <use xlink:href="#path-3"></use>
                </mask>
                <g id="Clip-13"></g>
                <path d="M19.7996108,2.35137009 C19.6136108,2.03757008 19.1861108,1.99587008 18.8222107,1.97037008 C15.7226106,1.75587007 12.7871105,0.209970008 9.68121038,0.293970012 C7.4999103,0.353070014 5.40561021,1.22427005 3.57141014,2.4062701 C2.5328101,3.07527012 1.52961006,3.88347015 0.972810039,4.9865702 C0.539310021,5.84517023 0.407310016,6.82077027 0.317010013,7.77837031 C0.176910007,9.26037037 0.175710007,10.8959704 0.957510038,12.2231705 C1.40571006,12.9839705 2.32011009,13.5362705 3.19191013,14.0267706 C2.82411011,12.7865705 2.91441012,11.4293705 3.32241013,10.1975704 C3.76281015,8.86767035 4.54731018,7.6736703 5.45361022,6.60537026 C7.16391028,4.58967018 9.37671037,2.95347012 11.9039105,2.17707009 C14.4308106,1.40067006 17.2787107,1.53717006 19.6019108,2.79867011 C19.6658108,2.83347011 19.7372108,2.86737011 19.8104108,2.89557012 C19.8878108,2.71587011 19.9013108,2.5223701 19.7996108,2.35137009" id="Fill-12" fill="#517237" mask="url(#mask-4)"></path>
            </g>
            <path d="M21.1733678,13.9121332 C20.3709483,13.4521326 19.5683608,12.9299305 19.1575108,12.2325305 C18.3757108,10.9053304 18.3769108,9.26973037 18.5170108,7.78773031 C18.6073108,6.83013027 18.7393108,5.85453023 19.1728108,4.9959302 C19.7296108,3.89283015 20.7328109,3.08463012 21.7714109,2.4156301 C23.605611,1.23363005 25.6999111,0.362430014 27.8812111,0.303330012 C29.3428112,0.263800599 30.7666756,0.585217913 32.1876638,0.958975062 L33.7869002,1.38525853 C34.8547,1.66246917 35.928235,1.90402419 37.0222115,1.97973008 C37.3861115,2.00523008 37.8136115,2.04693008 37.9996115,2.36073009 C38.1013116,2.5317301 38.0878116,2.72523011 38.0104116,2.90493012 C37.9146215,3.12708012 37.7196215,3.32748013 37.4982215,3.43428014 C37.0977215,3.62748014 36.6312215,3.64788014 36.2289215,3.83748015 C35.7039215,4.08498016 35.3433214,4.59978018 35.1534214,5.1487802 C34.9951714,5.60578022 34.9404631,6.08986358 34.904227,6.57377332 L34.6299214,10.6291804 C34.5579214,11.6971805 34.4697214,12.8164805 33.8922214,13.7176805 C33.4005214,14.4850806 32.6055213,15.0058806 31.7892213,15.4114806 C30.6810213,15.9625806 29.4885212,16.3435806 28.2660212,16.5376807 C27.6147211,16.6411807 26.9463211,16.6915807 26.2974211,16.5730807 C25.7838211,16.4794807 25.294221,16.2820806 24.825321,16.0531806 C24.028821,15.6640806 23.282121,15.1816806 22.5375209,14.7007806 C22.3687709,14.5917306 22.1845709,14.4830556 21.9914459,14.3729181 L21.1733678,13.9121332 Z" id="Path" stroke="#000000" stroke-width="0.3"></path>
            <path d="M19.3164608,13.4195006 C18.0831607,13.0148006 16.8399607,12.5822005 15.5448606,12.4988005 C14.7003606,12.4442005 13.8513606,12.5402005 13.0209605,12.7037005 C8.34126033,13.6256006 4.16526017,16.8239007 2.05626008,21.1019009 C1.77936007,21.6629009 1.53666006,22.2404009 1.29426005,22.8173009 C1.08426004,23.317101 0.874260035,23.816901 0.663960026,24.317001 C0.733860029,24.328101 0.810360032,24.308901 0.880560035,24.289401 C4.54836018,23.271201 8.41086033,23.296101 12.1995605,22.925901 C13.8684606,22.7627009 15.5772606,22.5062009 17.0289607,21.6665009 C18.4554607,20.8412009 19.5360608,19.4945008 20.2263608,17.9981008 C20.4978608,17.4101007 20.7162608,16.7822007 20.7228608,16.1345007 C20.7327608,15.1196006 20.2347608,14.2394006 19.6131608,13.4750006 C19.5150608,13.4762006 19.4112608,13.4507006 19.3164608,13.4195006 Z" id="Fill-15" fill="#658D49"></path>
            <path d="M2.05611008,21.1018409 C4.16541017,16.8238407 8.34111033,13.6255406 13.0208105,12.7036405 C13.8515106,12.5401405 14.7002106,12.4441405 15.5450106,12.4987405 C16.8401107,12.5824405 18.0833107,13.0147406 19.3166108,13.4194406 C19.4111108,13.4506406 19.5149108,13.4764406 19.6130108,13.4749406 C19.4744108,13.3042406 19.3295108,13.1392406 19.1825108,12.9799406 C18.3941107,12.1243405 17.5940107,11.9227405 16.5167107,11.4835405 C14.6531106,10.7239405 12.6578105,10.2055404 10.6472104,10.2835404 C8.63661034,10.3615405 6.60351026,11.0818405 5.19291021,12.5167405 C4.68561019,13.0324406 4.26771017,13.6276406 3.85251015,14.2201406 C3.46851014,14.7670406 3.08481012,15.3145406 2.70081011,15.8617407 C1.96821008,16.9066407 1.23081005,17.9590408 0.699810028,19.1197408 C-0.0201900008,20.6950409 -0.322590013,22.5919409 0.467310019,24.133341 C0.49911002,24.195441 0.535710021,24.259941 0.596610024,24.293841 C0.618210025,24.305841 0.640710025,24.313041 0.664110026,24.316941 C0.874110035,23.816841 1.08411004,23.317041 1.29411005,22.8172409 C1.53681006,22.2403409 1.77951007,21.6631409 2.05611008,21.1018409" id="Fill-17" fill="#517237"></path>
            <g id="Group-21" transform="translate(20.900001, 1.509360)">
                <mask id="mask-6" fill="white">
                    <use xlink:href="#path-5"></use>
                </mask>
                <g id="Clip-20"></g>
                <path d="M0.490350019,12.1383005 C-0.128250005,8.34600033 2.66775011,4.43130018 5.73255023,2.4732001 C7.36365029,1.43100006 9.22905037,0.797100032 11.1565504,0.619500025 C12.1513505,0.527400021 13.1596505,0.552300022 14.1478506,0.701100028 C15.1633506,0.854400034 16.0969506,1.25070005 17.0932507,1.45560006 C17.2150507,1.48080006 17.2831507,1.32540005 17.1775507,1.25550005 C16.5163507,0.817500032 15.6685506,0.625200025 14.9014506,0.465900019 C14.0773506,0.294900012 13.2352505,0.204900008 12.3934505,0.199200008 C10.7479504,0.188100007 9.10635036,0.49860002 7.5859503,1.13040004 C4.88175019,2.25420009 2.5849501,4.38900017 1.24665005,6.99180028 C0.441150018,8.55780034 -0.109050004,10.4340004 0.296550012,12.1917005 C0.326250013,12.3198005 0.51075002,12.2634005 0.490350019,12.1383005" id="Fill-19" fill="#D4DC9C" mask="url(#mask-6)"></path>
            </g>
            <path d="M10.6472104,10.2835404 C12.5237705,10.2107404 14.3870026,10.6574711 16.1422691,11.3349417 L16.7605185,11.5810824 L16.7605185,11.5810824 L17.4401443,11.8474447 C18.0852723,12.1087192 18.6366954,12.3876021 19.1825108,12.9799406 L19.4009108,13.2231656 L19.4009108,13.2231656 L19.6130108,13.4749406 C20.2347608,14.2394006 20.7327608,15.1196006 20.7231468,16.1345007 C20.7162608,16.7822007 20.4978608,17.4101007 20.2263608,17.9981008 C19.5360608,19.4945008 18.4554607,20.8412009 17.0289607,21.6665009 C15.5772606,22.5062009 13.8684606,22.7627009 12.1995605,22.925901 C11.725973,22.972176 11.2512323,23.0122775 10.775863,23.0490146 L7.92029762,23.2515357 C5.77925818,23.4068543 3.64672611,23.6078065 1.57048865,24.1103612 L0.880560035,24.289401 C0.833760033,24.302401 0.784160031,24.3152677 0.735582251,24.3191121 L0.663960026,24.317001 L0.629685025,24.3084285 L0.596610024,24.293841 C0.535710021,24.259941 0.49911002,24.195441 0.467310019,24.133341 C-0.322590013,22.5919409 -0.0201900008,20.6950409 0.699810028,19.1197408 C1.09806004,18.2492158 1.61241006,17.4396095 2.15376009,16.648397 L2.70081011,15.8617407 L2.70081011,15.8617407 L3.85251015,14.2201406 C4.26771017,13.6276406 4.68561019,13.0324406 5.19291021,12.5167405 C6.60351026,11.0818405 8.63661034,10.3615405 10.6472104,10.2835404 Z" id="Path" stroke="#000000" stroke-width="0.3"></path>
            <path d="M23.8429909,19.0594107 C24.8338909,19.6735107 25.946591,20.0536107 26.908391,20.7208107 C27.8503911,21.3739108 28.6603911,22.2217108 29.2762911,23.1880108 C29.9119911,24.1852109 30.3253912,25.3054109 30.4957912,26.475711 C30.6856912,27.777411 30.4900912,28.9858111 30.2416912,30.2614111 C30.2182912,30.3808111 30.3754912,30.4198111 30.4204912,30.3106111 C31.3405912,28.072311 30.8200912,25.2136109 29.6080911,23.1925108 C29.0506911,22.2631108 28.3216911,21.4444108 27.4669911,20.7781107 C26.386991,19.9363107 25.134191,19.5130107 23.8948909,18.9703107 C23.8354909,18.9445107 23.7850909,19.0234107 23.8429909,19.0594107" id="Fill-22" fill="#D4DC9C"></path>
            <path d="M24.2055409,19.2574707 C24.9015409,20.1163707 25.340441,20.9068708 25.484441,22.0219708 C25.622141,23.0887708 25.518641,24.1117709 25.433441,25.1704709 C25.427441,25.2469709 25.536941,25.2685709 25.572641,25.2079709 C25.830641,24.7717709 25.782041,24.1876709 25.783241,23.6980709 C25.785041,23.0542708 25.771241,22.4068708 25.665641,21.7699708 C25.511741,20.8435707 25.120241,19.6885707 24.2742409,19.1683707 C24.2157409,19.1323707 24.1671409,19.2100707 24.2055409,19.2574707" id="Fill-24" fill="#D4DC9C"></path>
            <path d="M27.8710011,21.2906608 C28.3897011,22.0961608 28.3897011,23.0282608 28.4167011,23.9540609 C28.4299011,24.4094609 28.4302011,24.8660609 28.3822011,25.3196609 C28.3309011,25.8017609 28.1509011,26.246961 28.0945011,26.721561 C28.0846011,26.804361 28.1974011,26.813061 28.2361011,26.759661 C28.8115011,25.964361 28.6954011,24.5858609 28.6585011,23.6606609 C28.6249011,22.8236608 28.6453011,21.8144608 27.9682011,21.2156608 C27.9181011,21.1715608 27.8311011,21.2285608 27.8710011,21.2906608" id="Fill-26" fill="#D4DC9C"></path>
            <path d="M8.67715042,1.00498012 C10.4687505,1.62418014 12.1715506,2.18488017 13.5782506,3.52858022 C14.8700507,4.76218027 15.7337507,6.45838034 15.7595507,8.26108041 C15.7616507,8.40868041 15.9872507,8.40898041 15.9890507,8.26108041 C16.0322507,4.38058025 12.3554506,1.36138013 8.71615043,0.863380114 C8.62435042,0.850780113 8.58535042,0.973180118 8.67715042,1.00498012" id="Fill-28" fill="#D4DC9C"></path>
            <path d="M11.1678405,5.5630003 C12.0312406,5.26930029 12.9762406,5.05810028 13.8861406,5.25490029 C14.7591407,5.4439003 15.2838407,5.97490032 15.6756407,6.74290035 C15.7032407,6.79720035 15.8037407,6.77470035 15.7956407,6.71050035 C15.6942407,5.91490031 14.9520407,5.33350029 14.2299406,5.10010028 C13.2468406,4.78210027 12.0144406,4.94770028 11.1303405,5.4736003 C11.0838405,5.5009003 11.1138405,5.5813003 11.1678405,5.5630003" id="Fill-30" fill="#D4DC9C"></path>
            <path d="M9.77374047,3.0193002 C10.2498405,2.69080019 10.7958405,2.49430018 11.3781405,2.49340018 C11.9943406,2.49250018 12.4788406,2.76070019 13.0557406,2.90080019 C13.1418406,2.9218002 13.1754406,2.81530019 13.1121406,2.76640019 C12.1752406,2.04280016 10.5495405,2.10190016 9.73954047,2.9749002 C9.71854047,2.9974002 9.74614047,3.0385002 9.77374047,3.0193002" id="Fill-32" fill="#D4DC9C"></path>
            <path d="M18.9378608,13.3009706 C17.4915607,12.3067705 15.2829606,12.3313705 13.6224605,12.5821705 C11.6496605,12.8803706 9.60066038,13.5925706 7.83546031,14.5258706 C6.16566025,15.4090707 4.84686019,16.8943707 3.67746015,18.3490708 C2.5629601,19.7353708 1.62606006,21.2734709 1.27356005,23.036271 C1.26036005,23.1004458 1.35576005,23.128371 1.37286005,23.063571 C1.83276007,21.2989709 2.77746011,19.7404708 3.93186016,18.3445708 C5.0583602,16.9825707 6.30066025,15.6298707 7.87356031,14.7850706 C8.28726033,14.5630706 8.71626035,14.3563706 9.15636036,14.1655706 C8.96676036,14.3626706 8.79726035,14.5774706 8.64456034,14.7703706 C8.14776032,15.3988707 7.70946031,16.0708707 7.33056029,16.7767707 C6.53676026,18.2545708 6.01896024,19.8094708 5.87046023,21.4810709 C5.86806023,21.5113709 5.91816024,21.5182709 5.92386024,21.4882709 C6.21156025,19.9894708 6.67866027,18.4804708 7.38816029,17.1268707 C8.07396032,15.8188707 10.3665604,13.7020706 10.3746604,13.6912706 C11.3322605,13.3537706 12.3177605,13.0894706 13.2879605,12.9097706 C14.2035606,12.7399705 15.1440606,12.6691705 16.0740606,12.7459705 C13.5012605,14.4598706 11.2929604,17.4238707 11.0517604,20.5696709 C11.0475604,20.6257709 11.1336604,20.6347709 11.1480604,20.5825709 C11.5788605,19.0276708 12.0672605,17.5678707 12.9729605,16.2127707 C13.8825606,14.8510706 15.0732606,13.7029706 16.4631607,12.8389705 C16.4832607,12.8263705 16.4982607,12.8116705 16.5093607,12.7954705 C17.3340607,12.9220706 18.0660607,13.2073706 18.8712607,13.4587706 C18.9690608,13.4890706 19.0149608,13.3540706 18.9378608,13.3009706" id="Fill-34" fill="#D4DC9C"></path>
            <path d="M21.3373109,12.5835905 C22.3882109,10.7442904 24.124311,9.53529038 26.1178111,8.87319035 C27.1849111,8.51889034 28.3297112,8.34399033 29.4520112,8.47929034 C30.0025112,8.54589034 30.5545113,8.69079035 31.0552113,8.93169035 C31.5301113,9.16029036 31.9018113,9.50079038 32.3311113,9.79479039 C32.3842113,9.83079039 32.4595113,9.75789039 32.4211113,9.70479039 C31.8583113,8.92419035 30.7360113,8.48649034 29.8273112,8.28819033 C28.6309112,8.02719032 27.3931111,8.18109033 26.2375111,8.55309034 C24.219411,9.20259037 22.0912109,10.4898904 21.1882109,12.4962905 C21.1435109,12.5955905 21.2809109,12.6822905 21.3373109,12.5835905" id="Fill-36" fill="#D4DC9C"></path>
            <path d="M23.044311,7.30311029 C23.783511,6.58371026 24.450411,5.82531023 25.282911,5.20431021 C26.0974111,4.59681018 26.9965111,4.09941016 27.9631112,3.78081015 C29.9113112,3.13911012 32.0602113,3.31971013 33.7816114,4.46691018 C33.9169114,4.55691018 34.0375114,4.34271017 33.9076114,4.25091017 C30.3334112,1.72281007 25.198911,3.89721015 23.008011,7.27491029 C22.993311,7.29741029 23.025711,7.32111029 23.044311,7.30311029" id="Fill-38" fill="#D4DC9C"></path>
        </g>
    </g>
</svg>