<svg xmlns="http://www.w3.org/2000/svg" width="151.016" height="151.016" viewBox="0 0 151.016 151.016">
  <g id="Grupo_94" data-name="Grupo 94" transform="translate(-98 -1363.999)">
    <path id="Trazado_395" data-name="Trazado 395" d="M151.015,75.508A75.507,75.507,0,1,1,75.507,0a75.509,75.509,0,0,1,75.508,75.508" transform="translate(98.001 1363.999)" fill="#e8eae4"/>
    <path id="Trazado_396" data-name="Trazado 396" d="M119.715,73.35V48.069c-1.385-.036-2.784-1.155-4.259-1.279-2.152-.178-3.893,1.8-6.021,2.164-2.686.466-5.123-1.68-7.829-2.017a9.941,9.941,0,0,0-5.518,1.3,5.734,5.734,0,0,1-2.664.857c-1.5-.058-2.632-1.358-4.044-1.858-2.838-1-5.789,1.4-8.8,1.321-2.474-.066-4.73-1.805-7.2-1.6-2.384.2-4.5,2.195-6.862,1.8-1.343-.225-2.435-1.2-3.724-1.631-3.509-1.185-7.231,1.807-10.893,1.241-2.313-.356-4.295-2.1-6.635-2.149-2.263-.047-4.256,1.5-6.5,1.824-3.875.55-7.6-2.645-11.45-1.959a11.672,11.672,0,0,0-3.074,1.169A8.44,8.44,0,0,0,22.1,48.611V73.35Z" transform="translate(113.327 1395.887)" fill="#7dcef1"/>
    <path id="Trazado_397" data-name="Trazado 397" d="M63.921,46.718c.356-.615.743-1.16,1.082-1.716.086-.139.163-.281.242-.418s.141-.271.21-.415l.1-.237.051-.117.012-.029c0-.007-.012.025,0,.008l0-.007.005-.015.019-.056c.047-.154.108-.295.146-.452A7.783,7.783,0,0,0,66.05,41.4c0-.152.005-.307,0-.452s-.014-.283-.019-.422c-.015-.154-.029-.3-.044-.452-.01-.112-.042-.264-.061-.391s-.042-.259-.063-.384-.039-.249-.071-.366c-.059-.234-.115-.456-.166-.666-.041-.146-.081-.279-.122-.408h.852l.008.03c.051.234.107.483.163.745a3.828,3.828,0,0,1,.069.413c.02.144.041.29.061.439s.044.288.058.471c.01.149.02.3.03.454l.01.52c0,.174-.01.345-.015.522a8.8,8.8,0,0,1-.368,2.154c-.047.181-.124.349-.185.527l-.025.064-.019.049-.014.029-.054.115-.107.23c-.081.157-.174.327-.262.481s-.18.3-.274.439c-.374.569-.772,1.086-1.118,1.641a5.907,5.907,0,0,0-.765,1.832,3.946,3.946,0,0,0-.088.992c.005.083.015.163.022.244l.019.119.008.059,0,.014,0,.008v0l0,.017a3.607,3.607,0,0,0,.141.476,10.3,10.3,0,0,0,.854,1.6c.076.127.146.268.217.4l.032.061.022.051.044.1c.029.068.056.134.085.2l.085.2c.024.075.047.147.069.22.046.144.095.286.132.427s.061.281.091.418c.014.068.027.135.042.2l.025.2c.017.132.032.262.047.388s.014.252.02.373.008.235.014.347-.01.22-.015.323-.01.2-.014.3-.024.183-.034.268c-.024.169-.039.32-.064.45s-.054.235-.075.322c-.039.176-.061.269-.061.269L65,57.97s.019-.09.052-.257c.017-.083.037-.186.061-.308s.03-.269.049-.428c.007-.081.02-.164.025-.254l.005-.281.005-.3c-.007-.1-.014-.213-.022-.327s-.01-.229-.027-.345-.036-.237-.054-.361c-.01-.063-.02-.125-.029-.188l-.046-.186c-.03-.124-.061-.252-.093-.383a6.178,6.178,0,0,0-.676-1.5,10.142,10.142,0,0,1-.95-1.658,4.313,4.313,0,0,1-.168-.515l-.008-.032-.007-.029,0-.008,0-.019-.015-.075-.027-.147c-.012-.1-.027-.2-.034-.3a4.8,4.8,0,0,1,.073-1.219,6.843,6.843,0,0,1,.806-2.125" transform="translate(141.714 1390.257)" fill="#8d6e43"/>
    <path id="Trazado_398" data-name="Trazado 398" d="M63.492,37.861l.007.024a7.9,7.9,0,0,0,.957,2.032c.247.395.532.81.837,1.26a17,17,0,0,1,.92,1.511,10.264,10.264,0,0,1,.776,1.887,8.493,8.493,0,0,1,.242,1.091l.039.264c.012.088.017.195.027.291.02.2.025.393.029.584a6.522,6.522,0,0,1-.34,2.249,6.3,6.3,0,0,1-.965,1.71,10.931,10.931,0,0,0-.931,1.367,3.669,3.669,0,0,0-.449,1.448c-.005.061-.008.12-.012.18s.005.115.008.173.005.1.007.154.022.122.032.181.022.119.032.176.029.1.042.151c.025.1.052.195.085.3.063.195.119.395.171.576a3.889,3.889,0,0,1,.093.54,2.144,2.144,0,0,1-.054.794,1.807,1.807,0,0,1-.1.257l-.154-.146a1.49,1.49,0,0,0,.063-.207,1.733,1.733,0,0,0,.01-.645,3.133,3.133,0,0,0-.1-.461c-.056-.168-.113-.345-.185-.544-.036-.095-.071-.207-.107-.323-.019-.059-.036-.119-.054-.178s-.025-.115-.039-.173-.025-.119-.039-.18c-.015-.1-.015-.147-.024-.225s-.012-.142-.019-.215.005-.147.007-.22a4.446,4.446,0,0,1,.459-1.743,10.918,10.918,0,0,1,.931-1.494,5.894,5.894,0,0,0,.828-1.563,5.566,5.566,0,0,0,.249-1.917c-.005-.166-.012-.332-.032-.488-.01-.08-.014-.154-.027-.24l-.042-.261a8.158,8.158,0,0,0-.225-.94,9.205,9.205,0,0,0-.718-1.683A16.485,16.485,0,0,0,64.83,41.8c-.3-.442-.594-.865-.857-1.279a10.964,10.964,0,0,1-.671-1.209,7.08,7.08,0,0,1-.41-1.077c-.041-.127-.069-.252-.1-.369Z" transform="translate(141.551 1390.257)" fill="#8d6e43"/>
    <path id="Trazado_399" data-name="Trazado 399" d="M63.159,51.121a4.606,4.606,0,0,1,.181-.454c.073-.141.147-.283.22-.428.313-.554.684-1.042,1.031-1.546q.254-.391.508-.784l.256-.395.234-.42.466-.842c.149-.285.278-.583.417-.87.283-.559.515-1.189.749-1.78a11.426,11.426,0,0,0,.54-1.69c.027-.134.061-.251.083-.39s.039-.295.059-.439l.014-.108,0-.027V40.93l0-.024c0-.064.005-.127.007-.191a3.426,3.426,0,0,0,.005-.373,8.58,8.58,0,0,0-.142-1.348c-.076-.4-.156-.754-.229-1.043-.008-.034-.015-.058-.022-.09h.833c.054.259.11.555.163.891a9.912,9.912,0,0,1,.12,1.585c.007.147-.008.3-.017.456-.007.078-.012.156-.017.235l0,.029,0,.015v.008l-.005.039-.008.053-.017.107c-.022.142-.046.288-.069.435s-.076.322-.115.486a12.208,12.208,0,0,1-.645,1.841c-.252.579-.495,1.185-.815,1.775-.154.295-.3.6-.462.891s-.337.561-.5.842l-.254.42-.274.393c-.181.261-.364.52-.544.777-.371.5-.742.952-1.043,1.446-.071.127-.142.252-.212.378a3.984,3.984,0,0,0-.174.4,3.89,3.89,0,0,0-.217.825A3.014,3.014,0,0,0,63.24,53l.025.193.046.191a3.242,3.242,0,0,0,.113.342c.176.449.41.828.591,1.2.047.1.086.181.125.276s.078.186.107.279a3.812,3.812,0,0,1,.137.518,2.71,2.71,0,0,1,.03.789l-.058.276-.174-.093s.015-.08.041-.227a2.29,2.29,0,0,0-.046-.666,3.2,3.2,0,0,0-.135-.454c-.027-.083-.066-.158-.1-.242s-.088-.176-.127-.256c-.183-.347-.428-.71-.64-1.2a3.141,3.141,0,0,1-.146-.4c-.019-.069-.037-.141-.058-.212s-.025-.154-.039-.232a3.666,3.666,0,0,1,0-.982,4.375,4.375,0,0,1,.227-.977" transform="translate(141.624 1390.257)" fill="#8d6e43"/>
    <path id="Trazado_400" data-name="Trazado 400" d="M69.537,47.27l-.024-.158-.005-.039c-.01-.051-.005-.02-.007-.034l0-.01-.005-.022-.02-.085-.085-.339a5.66,5.66,0,0,0-.239-.623,5.164,5.164,0,0,0-.635-1.05l-.18-.224-.193-.21c-.137-.152-.239-.235-.381-.371-.262-.208-.523-.44-.782-.613l-.745-.528c-.239-.159-.476-.356-.7-.525A8.573,8.573,0,0,1,64.4,41.309a9.664,9.664,0,0,1-.835-1.163,10.436,10.436,0,0,1-.544-1c-.139-.268-.242-.533-.315-.706-.032-.081-.112-.334-.186-.577h-1.1c.156.422.427,1.152.481,1.27.076.169.18.413.359.745a11.73,11.73,0,0,0,.65,1.1,10.574,10.574,0,0,0,.962,1.24c.095.1.19.212.291.313l.315.3a3.635,3.635,0,0,0,.334.291c.119.095.222.185.359.286.237.159.467.334.728.493s.5.323.765.489.495.352.747.532c.1.091.257.212.354.317l.164.164.161.185a4.126,4.126,0,0,1,.554.843,4.174,4.174,0,0,1,.207.488l.073.262.019.064.005.017,0,.008c0-.007,0,.012,0,.005l0,.017.027.156a4.081,4.081,0,0,1-.215,2.181l-.108.234-.014.03,0,.007c.014-.022,0,0,0-.005l-.01.015-.036.061-.069.12a3.509,3.509,0,0,1-.286.4,7.132,7.132,0,0,1-.671.7,7.731,7.731,0,0,0-1.335,1.443,3.667,3.667,0,0,0-.435.977,4.982,4.982,0,0,0-.142,1.047c-.014.671.052,1.26.081,1.766a7.272,7.272,0,0,1-.017,1.206c.068.068.134.139.195.212l.012-.056A7.5,7.5,0,0,0,66,56.407c-.015-.53-.063-1.109-.03-1.719a4.272,4.272,0,0,1,.146-.9,3.033,3.033,0,0,1,.391-.8A7.19,7.19,0,0,1,67.8,51.7a7.2,7.2,0,0,0,.74-.711,4.074,4.074,0,0,0,.352-.457l.073-.117.039-.059.008-.014.012-.02.005-.008.017-.036.144-.286a5.052,5.052,0,0,0,.345-2.723" transform="translate(140.596 1390.257)" fill="#8d6e43"/>
    <path id="Trazado_401" data-name="Trazado 401" d="M65.1,48.482c.313-.513.647-.982.957-1.467.149-.247.308-.491.445-.742l.208-.373c.069-.124.135-.264.2-.4l.1-.2c.014-.029.039-.076.044-.09l.042-.1c.056-.134.113-.268.169-.4s.117-.261.166-.4.093-.274.139-.41.093-.269.139-.4.075-.273.112-.408c.069-.271.154-.528.2-.8s.11-.52.156-.769.069-.5.1-.735.044-.464.064-.681.041-.425.042-.615c0-.384.019-.706.008-.994s-.025-.493-.032-.647h.642c.007.149.015.345.025.588.01.293-.007.676-.012,1.1,0,.215-.03.432-.047.667s-.029.481-.073.733-.075.517-.115.789-.112.542-.169.826-.146.562-.225.852c-.041.144-.08.291-.125.437s-.1.283-.154.427-.1.29-.156.435-.122.281-.183.423-.125.283-.188.425l-.047.107c-.025.056-.036.071-.056.11l-.1.2c-.071.132-.135.264-.212.4l-.234.4c-.156.266-.32.506-.483.759-.332.489-.676.947-.977,1.414a5.562,5.562,0,0,0-.715,1.482,3.436,3.436,0,0,0-.125.791l0,.1,0,.046v.008l0,.027c.005.075.01.147.014.22l.008.11c0,.034.01.061.015.091L64.7,52a7.021,7.021,0,0,0,.462,1.384c.18.423.361.811.486,1.2a2.538,2.538,0,0,1,.127,1.128,1.361,1.361,0,0,1-.271.659.562.562,0,0,1-.124.113c-.03.022-.435.4-.435.4l-.075-.239.418-.4a.367.367,0,0,0,.083-.09,1.062,1.062,0,0,0,.173-.506,1.431,1.431,0,0,0,.005-.2l0-.061-.007-.044c-.005-.036-.012-.073-.017-.112A1.2,1.2,0,0,0,65.48,55c-.012-.041-.022-.081-.034-.124s-.029-.08-.044-.122c-.127-.34-.317-.706-.515-1.123a7.211,7.211,0,0,1-.562-1.482,4.257,4.257,0,0,1-.081-.464l-.022-.218,0-.029-.005-.049V51.2a4.305,4.305,0,0,1,.127-1,6.326,6.326,0,0,1,.759-1.724" transform="translate(142.535 1390.258)" fill="#8d6e43"/>
    <path id="Trazado_402" data-name="Trazado 402" d="M66.447,46.718c-.356-.615-.743-1.16-1.082-1.716-.086-.139-.163-.281-.244-.418s-.139-.271-.208-.415l-.1-.237-.051-.117-.012-.029c0-.007.01.025,0,.008l0-.007-.005-.015-.019-.056c-.047-.154-.11-.295-.146-.452a7.783,7.783,0,0,1-.262-1.863c0-.152-.005-.307,0-.452s.014-.283.019-.422c.015-.154.029-.3.044-.452.01-.112.041-.264.061-.391s.042-.259.063-.384a3.411,3.411,0,0,1,.071-.366c.059-.234.115-.456.166-.666.041-.146.081-.279.122-.408h-.854l-.007.03c-.051.234-.107.483-.163.745a3.45,3.45,0,0,0-.069.413c-.02.144-.041.29-.061.439s-.044.288-.058.471c-.01.149-.02.3-.03.454l-.01.52c0,.174.01.345.014.522a8.96,8.96,0,0,0,.367,2.154c.049.181.125.349.186.527l.025.064.019.049.014.029.054.115.107.23c.081.157.173.327.262.481s.18.3.274.439c.374.569.772,1.086,1.118,1.641a5.907,5.907,0,0,1,.765,1.832,3.943,3.943,0,0,1,.086.992c0,.083-.014.163-.02.244l-.019.119-.01.059,0,.014,0,.008v0l0,.017a3.607,3.607,0,0,1-.141.476,10.3,10.3,0,0,1-.854,1.6c-.078.127-.146.268-.217.4L65.6,53l-.022.051-.044.1c-.029.068-.058.134-.085.2l-.085.2c-.024.075-.047.147-.071.22-.044.144-.093.286-.13.427s-.061.281-.091.418c-.014.068-.029.135-.042.2l-.025.2c-.017.132-.032.262-.049.388s-.012.252-.019.373-.008.235-.014.347.01.22.015.323.01.2.014.3.024.183.034.268c.024.169.069.55.093.679a7.326,7.326,0,0,0,.235,1.02l.174-.091a8.161,8.161,0,0,1-.212-1c-.02-.124-.061-.5-.08-.657-.008-.081-.02-.164-.025-.254l-.005-.281-.005-.3c.007-.1.014-.213.02-.327s.012-.229.029-.345.036-.237.054-.361c.01-.063.019-.125.029-.188l.046-.186c.03-.124.061-.252.093-.383a6.177,6.177,0,0,1,.676-1.5,10.143,10.143,0,0,0,.95-1.658,4.314,4.314,0,0,0,.168-.515l.008-.032.007-.029,0-.008,0-.019.015-.075.027-.147c.012-.1.027-.2.034-.3a4.805,4.805,0,0,0-.073-1.219,6.844,6.844,0,0,0-.806-2.125" transform="translate(142.116 1390.257)" fill="#a8916f"/>
    <path id="Trazado_403" data-name="Trazado 403" d="M67.2,37.861l-.007.024a7.9,7.9,0,0,1-.957,2.032c-.247.395-.532.81-.837,1.26a17.01,17.01,0,0,0-.92,1.511,10.263,10.263,0,0,0-.776,1.887,8.491,8.491,0,0,0-.242,1.091l-.037.264c-.014.088-.019.195-.029.291-.02.2-.025.393-.029.584a6.522,6.522,0,0,0,.34,2.249,6.3,6.3,0,0,0,.965,1.71,10.936,10.936,0,0,1,.931,1.367,3.669,3.669,0,0,1,.449,1.448c.005.061.008.12.014.18l-.01.173c0,.053,0,.1-.007.154s-.022.122-.032.181-.022.119-.032.176-.027.1-.042.151c-.025.1-.051.195-.085.3-.063.195-.119.395-.171.576a3.89,3.89,0,0,0-.093.54,2.144,2.144,0,0,0,.054.794,1.809,1.809,0,0,0,.1.257l.154-.146a1.865,1.865,0,0,1-.063-.207,1.732,1.732,0,0,1-.01-.645,3.37,3.37,0,0,1,.1-.461c.056-.168.113-.345.185-.544.036-.095.071-.207.107-.323.019-.059.037-.119.054-.178s.025-.115.039-.173.025-.119.039-.18c.015-.1.015-.147.024-.225s.014-.142.019-.215-.005-.147-.007-.22a4.418,4.418,0,0,0-.459-1.743A10.917,10.917,0,0,0,65,50.307a5.894,5.894,0,0,1-.828-1.563,5.566,5.566,0,0,1-.249-1.917c.005-.166.014-.332.032-.488.01-.08.014-.154.027-.24l.042-.261a8.527,8.527,0,0,1,.225-.94,9.091,9.091,0,0,1,.72-1.683,16.069,16.069,0,0,1,.893-1.419c.3-.442.6-.865.857-1.279a10.966,10.966,0,0,0,.671-1.209,7.082,7.082,0,0,0,.41-1.077c.041-.127.069-.252.1-.369Z" transform="translate(141.95 1390.257)" fill="#a8916f"/>
    <path id="Trazado_404" data-name="Trazado 404" d="M68.04,51.121a4.606,4.606,0,0,0-.181-.454c-.073-.141-.146-.283-.22-.428-.313-.554-.684-1.042-1.031-1.546q-.254-.391-.508-.784l-.256-.395-.234-.42-.466-.842c-.149-.285-.278-.583-.417-.87-.283-.559-.515-1.189-.749-1.78a11.428,11.428,0,0,1-.54-1.69c-.027-.134-.059-.251-.083-.39s-.039-.295-.059-.439l-.014-.108,0-.027V40.93l0-.024c0-.064-.005-.127-.007-.191a3.426,3.426,0,0,1-.005-.373,8.578,8.578,0,0,1,.142-1.348c.076-.4.156-.754.229-1.043.008-.034.015-.058.022-.09h-.833c-.052.259-.11.555-.163.891a9.911,9.911,0,0,0-.12,1.585c-.005.147.008.3.019.456l.015.235,0,.029,0,.015v.008l.005.039.008.053.017.107c.024.142.046.288.069.435s.076.322.115.486a12.207,12.207,0,0,0,.645,1.841c.252.579.495,1.185.815,1.775.154.295.3.6.462.891s.337.561.5.842l.254.42.274.393c.181.261.364.52.544.777.371.5.742.952,1.043,1.446.071.127.142.252.212.378a3.982,3.982,0,0,1,.174.4,3.89,3.89,0,0,1,.217.825,3.015,3.015,0,0,1,.019.816l-.025.193-.046.191a2.891,2.891,0,0,1-.113.342c-.176.449-.41.828-.591,1.2-.047.1-.086.181-.125.276s-.078.186-.107.279a3.813,3.813,0,0,0-.137.518,2.71,2.71,0,0,0-.03.789l.058.276.174-.093s-.015-.08-.041-.227a2.231,2.231,0,0,1,.046-.666,3.2,3.2,0,0,1,.135-.454c.027-.083.064-.158.1-.242s.086-.176.127-.256c.183-.347.428-.71.642-1.2a3.415,3.415,0,0,0,.144-.4c.019-.069.037-.141.058-.212s.025-.154.037-.232a3.664,3.664,0,0,0,.007-.982,4.475,4.475,0,0,0-.229-.977" transform="translate(141.374 1390.257)" fill="#a8916f"/>
    <path id="Trazado_405" data-name="Trazado 405" d="M66.112,53.768a4.279,4.279,0,0,1,.147.9c.03.611-.017,1.191-.032,1.721a10.781,10.781,0,0,0,.12,1.511,2.676,2.676,0,0,1,.2-.271,11.541,11.541,0,0,1-.064-1.219c.027-.506.095-1.1.08-1.766a4.876,4.876,0,0,0-.142-1.047,3.614,3.614,0,0,0-.435-.977,7.78,7.78,0,0,0-1.333-1.443,7.148,7.148,0,0,1-.672-.7,3.3,3.3,0,0,1-.285-.4l-.071-.12-.036-.061-.008-.015s-.01-.017,0,.005l0-.007-.014-.03-.108-.234a4.082,4.082,0,0,1-.217-2.181l.027-.156,0-.019c0,.008,0-.01,0,0l0-.008,0-.017.019-.064.073-.263a4.844,4.844,0,0,1,.207-.488,4.086,4.086,0,0,1,.555-.843l.161-.185.164-.164c.095-.105.251-.227.354-.318.252-.18.486-.373.745-.53l.767-.489c.261-.159.489-.334.728-.491.135-.1.239-.193.359-.288a4.192,4.192,0,0,0,.334-.291l.315-.3c.1-.1.195-.21.29-.313a10.6,10.6,0,0,0,.964-1.24,11.682,11.682,0,0,0,.649-1.1c.18-.332.283-.576.361-.745.053-.119.323-.848.481-1.27H69.7c-.075.244-.154.5-.188.577-.071.173-.176.439-.313.706a10.438,10.438,0,0,1-.544,1,10.058,10.058,0,0,1-.835,1.163A8.676,8.676,0,0,1,66.7,42.419c-.229.169-.467.366-.7.525s-.493.349-.747.527-.518.406-.782.615c-.141.135-.242.218-.379.371l-.193.21-.181.224a5.163,5.163,0,0,0-.635,1.05,5.336,5.336,0,0,0-.237.623l-.085.339-.022.085-.005.02,0,.012c0,.014,0-.017-.007.034l-.007.039-.022.157a5.036,5.036,0,0,0,.345,2.723l.142.286.019.036,0,.008.012.02.01.014.037.059.075.117a4.077,4.077,0,0,0,.352.457,7.027,7.027,0,0,0,.738.711,7.082,7.082,0,0,1,1.3,1.285,2.982,2.982,0,0,1,.391.8" transform="translate(141.436 1390.242)" fill="#a8916f"/>
    <path id="Trazado_406" data-name="Trazado 406" d="M65.716,48.482c-.313-.513-.647-.982-.957-1.467-.149-.247-.308-.491-.445-.742l-.208-.373c-.069-.124-.135-.264-.2-.4l-.1-.2c-.014-.029-.039-.076-.042-.09l-.044-.1c-.056-.134-.113-.268-.169-.4s-.117-.261-.166-.4-.093-.274-.139-.41-.093-.269-.139-.4-.075-.273-.112-.408c-.069-.271-.154-.528-.2-.8s-.11-.52-.156-.769-.069-.5-.1-.735-.044-.464-.064-.681-.041-.425-.042-.615c0-.384-.019-.706-.008-.994s.025-.493.032-.647h-.642c-.007.149-.015.345-.025.588-.01.293.007.676.012,1.1,0,.215.03.432.047.667s.029.481.073.733.075.517.115.789.112.542.169.826.146.562.225.852c.041.144.08.291.125.437s.1.283.154.427.1.29.156.435.122.281.183.423.125.283.188.425l.047.107c.025.056.036.071.056.11l.1.2c.071.132.135.264.212.4l.234.4c.156.266.32.506.483.759.332.489.676.947.977,1.414a5.562,5.562,0,0,1,.715,1.482,3.436,3.436,0,0,1,.125.791l0,.1,0,.046v.008l0,.027c-.007.075-.012.147-.015.22l-.008.11c0,.034-.01.061-.015.091L66.112,52a7.021,7.021,0,0,1-.462,1.384c-.18.423-.361.811-.486,1.2a2.538,2.538,0,0,0-.127,1.128,1.361,1.361,0,0,0,.271.659.526.526,0,0,0,.125.113c.029.022.434.427.434.427l.075-.239-.418-.422a.368.368,0,0,1-.083-.09,1.062,1.062,0,0,1-.173-.506,1.433,1.433,0,0,1-.005-.2l0-.061.007-.044c.005-.036.012-.073.017-.112A1.339,1.339,0,0,1,65.337,55c.012-.041.022-.081.034-.124s.029-.08.044-.122c.127-.34.317-.706.515-1.123a7.208,7.208,0,0,0,.562-1.482,4.247,4.247,0,0,0,.081-.464l.022-.218,0-.029.005-.049V51.2a4.3,4.3,0,0,0-.127-1,6.325,6.325,0,0,0-.759-1.724" transform="translate(140.845 1390.258)" fill="#a8916f"/>
    <path id="Trazado_407" data-name="Trazado 407" d="M63.1,31.234a2.7,2.7,0,0,0-2.7,2.7v6.449a2.59,2.59,0,0,0,2.462,2.7h8.661a2.59,2.59,0,0,0,2.464-2.7V33.932a2.7,2.7,0,0,0-2.7-2.7Z" transform="translate(139.894 1385.661)" fill="#dda752"/>
    <path id="Trazado_408" data-name="Trazado 408" d="M65.189,38.22a5.973,5.973,0,0,0,.688.415h1.45l.566-.307A4.582,4.582,0,0,1,65.934,36.1c-.2-.715-.047-1.49-.224-2.212a2.5,2.5,0,0,0-1.47-1.69c-.447-.18-.975-.246-1.285-.615a1.854,1.854,0,0,1-.281-1.258q.018-1.067.037-2.137c.012-.557-.034-1.218-.506-1.511-.622-.384-1.385.185-1.892.713.234,1.99.527,4.115,1.849,5.619a12.815,12.815,0,0,1,1.165,1.284c.82,1.219.691,3.037,1.861,3.927" transform="translate(139.829 1382.413)" fill="#93d700"/>
    <path id="Trazado_409" data-name="Trazado 409" d="M63.471,31.924a1.946,1.946,0,0,0-.056,2.024c.467.787,1.431,1.147,1.987,1.873a4.022,4.022,0,0,1,.545,2.793h1.4c-.029-.4-.056-.794-.085-1.191a4.574,4.574,0,0,0-.5-2.127,9.258,9.258,0,0,1-.925-1.3c-.532-1.314.874-2.645.893-4.063a3.68,3.68,0,0,0-.3-1.345,3.555,3.555,0,0,0-1.119-1.69,1.47,1.47,0,0,0-1.882.056L64.3,28.3a2.466,2.466,0,0,1,.588,1.858c-.188.742-1,1.131-1.421,1.768" transform="translate(141.803 1382.435)" fill="#66a200"/>
    <path id="Trazado_410" data-name="Trazado 410" d="M69.824,28.1a5.469,5.469,0,0,1,1.434-.716,2.2,2.2,0,0,0-2.716.34c-1.233,1.335-.381,3.631-1.3,5.2a9.123,9.123,0,0,1-1.653,1.69,5.91,5.91,0,0,0-1.719,3.67h1.726a4.409,4.409,0,0,1,.92-2.679c.742-.813,1.944-1.092,2.666-1.922a2.529,2.529,0,0,0,.5-2.361,6.142,6.142,0,0,1-.627-1.868,1.85,1.85,0,0,1,.772-1.351" transform="translate(142.295 1382.767)" fill="#93d700"/>
    <path id="Trazado_411" data-name="Trazado 411" d="M71.493,19.979a13.514,13.514,0,0,1,6.877-1.651,4.9,4.9,0,0,1,3.958,1.649,3.619,3.619,0,0,1,.366,3.228,5.243,5.243,0,0,1-2.085,2.567,6.7,6.7,0,0,1-5.628.83c-2.066-.638-3.731-2.264-5.805-2.869a36.4,36.4,0,0,0-4.031-.22c.938-.625,5.673-3.15,6.347-3.534" transform="translate(143.181 1376.706)" fill="#66a200"/>
    <path id="Trazado_412" data-name="Trazado 412" d="M65.1,25.138c-.113-.139-.235-.283-.364-.42,1.1-2.649,2.44-6.955,2.474-7.077a4.736,4.736,0,0,1,2.164-2.9,3.535,3.535,0,0,1,3.538.012L72.865,16.5l.65.6h.005c.022-.115.144-.212.251-.285A6.916,6.916,0,0,0,75.4,14.461c.5-.821,2.185-1.77,4.744-.7a4.5,4.5,0,0,1,2.169,5.692,2.753,2.753,0,0,1-2.737,1.866c-.435-.073-.8-.413-1.24-.452-2.872-.252-1.793,2.876-.577,2.992s2.654.593,2.918,1.787a4.475,4.475,0,0,1-3.634,3.072,6.383,6.383,0,0,1-1.5.078,3.553,3.553,0,0,1-3.216-3.258,1,1,0,0,0-.356-.655,1.5,1.5,0,0,0-1.472-.271c-1.661.562-2.547,1.924-4.366,2.273a8.89,8.89,0,0,0-1.03-1.741" transform="translate(142.897 1373.21)" fill="#93d700"/>
    <path id="Trazado_413" data-name="Trazado 413" d="M62.029,20.617a2.507,2.507,0,0,0,.1,2.4,1.634,1.634,0,0,0,2.071.593,6.921,6.921,0,0,1,.915-.567c.706-.246,1.433.367,1.714,1.1a10.286,10.286,0,0,1,.359,2.342,6.732,6.732,0,0,0,1.45,3.38c.218-2.181.759-4.821,2.688-5.526a4.993,4.993,0,0,1,2.777.086,4.486,4.486,0,0,0,2.774-.007,1.971,1.971,0,0,0,1.1-2.451c-.389-.784-1.517-1.343-1.177-2.173.146-.359.52-.527.837-.72a3.427,3.427,0,0,0,1.59-3.059,2.612,2.612,0,0,0-2.107-2.451c-.759-.09-1.626.208-2.232-.283-.528-.428-.586-1.248-.81-1.926a3.142,3.142,0,0,0-2.535-2.152,3.19,3.19,0,0,0-2.977,1.522,6.808,6.808,0,0,1-1.123,1.785c-1.284,1.065-3.492-.3-4.562,1.016-1.141,1.4.708,3.556.163,5.318a13.737,13.737,0,0,1-1.013,1.77" transform="translate(140.84 1370.372)" fill="#66a200"/>
    <path id="Trazado_414" data-name="Trazado 414" d="M58.289,16.885A4.905,4.905,0,0,1,60.6,14.958a3.975,3.975,0,0,1,3.556.8A9.943,9.943,0,0,1,66.506,18.7a32.746,32.746,0,0,0,4.368,6.127,2.7,2.7,0,0,0,.124,1c-.137.042-.286.083-.461.124a6.048,6.048,0,0,1-2.2-1.133c-1.165-.916-2.212-2.318-3.694-2.268a11.808,11.808,0,0,0-2.009.523,4.763,4.763,0,0,1-4.551-2.147,3.326,3.326,0,0,1-.684-1.463,3.68,3.68,0,0,1,.894-2.576" transform="translate(137.79 1374.27)" fill="#93d700"/>
    <path id="Trazado_415" data-name="Trazado 415" d="M61.986,10.729c1.534-.81,3.79-.869,4.862.791,1.114,1.726.151,4.092,1.147,5.79A2.313,2.313,0,0,1,70.5,18.453c.862,1.507.047,3.313-.24,4.954-.249,1.424.213,4.82.11,5.739-.285,0-.85.005-1.238-.019a3.005,3.005,0,0,1-1.235-1.6,9.927,9.927,0,0,0-.415-1.013c-.591-1-1.941-1.075-3.092-1.18-1.169-.1-2.655-.674-2.766-1.89a2.9,2.9,0,0,1,1.062-2.034,2.073,2.073,0,0,0,.62-2.188c-.418-.869-1.551-.992-2.391-1.487a3.761,3.761,0,0,1-1.538-3.948,4.85,4.85,0,0,1,2.608-3.064" transform="translate(139.117 1371.058)" fill="#66a200"/>
    <path id="Trazado_416" data-name="Trazado 416" d="M85.131,18.506c.489,1.663.1,3.887-1.738,4.61-1.91.75-4.041-.662-5.9-.022a2.309,2.309,0,0,1-1.616,2.232c-1.648.545-3.257-.611-4.808-1.216-1.346-.527-4.766-.745-5.648-1.028.054-.281.164-.835.264-1.209a3,3,0,0,1,1.809-.9,10,10,0,0,0,1.074-.2c1.094-.383,1.44-1.692,1.768-2.8.335-1.125,1.187-2.469,2.4-2.337.815.088,1.313.821,1.783,1.445a2.073,2.073,0,0,0,2.02,1.04c.937-.239,1.28-1.324,1.932-2.049a3.754,3.754,0,0,1,4.173-.727,4.849,4.849,0,0,1,2.488,3.162" transform="translate(143.37 1374.412)" fill="#66a200"/>
    <path id="Trazado_417" data-name="Trazado 417" d="M53.905,17.622c.425-1.682,1.888-3.4,3.839-3.086,2.027.325,3.142,2.625,5.072,3.02a2.308,2.308,0,0,1,2.525-1.1c1.7.367,2.493,2.181,3.524,3.492.893,1.138,3.722,3.064,4.337,3.756-.188.213-.564.635-.842.908a3.008,3.008,0,0,1-2.012-.149,9.623,9.623,0,0,0-1.026-.369c-1.138-.227-2.1.725-2.948,1.511S64.1,27.128,63.12,26.4a2.894,2.894,0,0,1-.8-2.151,2.07,2.07,0,0,0-1.211-1.924c-.928-.269-1.777.489-2.706.782a3.759,3.759,0,0,1-3.963-1.5,4.848,4.848,0,0,1-.532-3.987" transform="translate(135.249 1374.055)" fill="#66a200"/>
    <path id="Trazado_418" data-name="Trazado 418" d="M63.868,22.247a13.511,13.511,0,0,0-5.97-3.794,4.888,4.888,0,0,0-4.278.278,3.612,3.612,0,0,0-1.394,2.933,5.241,5.241,0,0,0,1.138,3.1,6.7,6.7,0,0,0,5.054,2.611c2.161.066,4.264-.931,6.424-.83a36.474,36.474,0,0,1,3.883,1.1c-.684-.9-4.344-4.82-4.857-5.4" transform="translate(134.221 1376.552)" fill="#66a200"/>
    <path id="Trazado_419" data-name="Trazado 419" d="M68.372,28.319c.152-.095.315-.191.481-.279-.18-2.86-.051-7.372-.044-7.5A4.737,4.737,0,0,0,67.7,17.1a3.535,3.535,0,0,0-3.35-1.136L63.83,17.63c-.325.142-.484.212-.81.356l0,0a.542.542,0,0,0-.146-.352,6.9,6.9,0,0,1-.776-2.754c-.21-.942-1.492-2.383-4.259-2.207a4.5,4.5,0,0,0-3.9,4.681,2.75,2.75,0,0,0,1.983,2.654c.435.071.891-.132,1.319-.025,2.8.693.764,3.3-.425,3.018s-2.7-.3-3.34.743a4.476,4.476,0,0,0,2.44,4.085,6.377,6.377,0,0,0,1.4.561,3.553,3.553,0,0,0,4.1-2.037,1.008,1.008,0,0,1,.549-.506c.491-.2.942.2,1.363.527,1.387,1.07,1.9,3.553,3.5,4.473.474-.474.977-2.171,1.545-2.523" transform="translate(135.079 1372.777)" fill="#93d700"/>
    <path id="Trazado_420" data-name="Trazado 420" d="M73.315,25.34a2.515,2.515,0,0,1-.872,2.242,1.635,1.635,0,0,1-2.152-.113,7.114,7.114,0,0,0-.681-.833,1.507,1.507,0,0,0-1.976.483,10.339,10.339,0,0,0-1.1,2.1,6.73,6.73,0,0,1-2.467,2.728c.5-2.136.847-4.808-.749-6.1a4.991,4.991,0,0,0-2.655-.821,4.481,4.481,0,0,1-2.623-.906,1.973,1.973,0,0,1-.244-2.676c.622-.615,1.87-.777,1.819-1.673a1.762,1.762,0,0,0-.559-.952,3.42,3.42,0,0,1-.511-3.407,2.61,2.61,0,0,1,2.788-1.636c.745.161,1.47.725,2.2.457.64-.234.96-.991,1.392-1.56a3.139,3.139,0,0,1,3.1-1.213,3.192,3.192,0,0,1,2.324,2.4,6.852,6.852,0,0,0,.481,2.054c.869,1.424,3.4.852,3.987,2.442.625,1.7-1.822,3.133-1.88,4.977a13.95,13.95,0,0,0,.384,2" transform="translate(137.789 1371.903)" fill="#66a200"/>
    <path id="Trazado_421" data-name="Trazado 421" d="M76.658,22.343A4.9,4.9,0,0,0,75.1,19.774a3.977,3.977,0,0,0-3.622-.4A9.939,9.939,0,0,0,68.3,21.393a32.662,32.662,0,0,1-6.12,4.378,2.638,2.638,0,0,1-.44.906c.115.085.244.173.395.268a6.086,6.086,0,0,0,2.454-.356c1.4-.489,2.845-1.477,4.23-.948a11.95,11.95,0,0,1,1.729,1.147,4.759,4.759,0,0,0,5-.554,3.32,3.32,0,0,0,1.121-1.163,3.683,3.683,0,0,0-.01-2.727" transform="translate(140.816 1377.259)" fill="#93d700"/>
    <path id="Trazado_422" data-name="Trazado 422" d="M75.231,15.417c-1.189-1.263-3.3-2.051-4.857-.828-1.612,1.268-1.468,3.821-2.964,5.1a2.307,2.307,0,0,0-2.74.268c-1.3,1.147-1.119,3.118-1.38,4.764-.227,1.428-1.765,4.49-1.966,5.392.269.1.8.281,1.177.384a3.011,3.011,0,0,0,1.687-1.109,9.755,9.755,0,0,1,.72-.821c.882-.752,2.186-.39,3.307-.113,1.141.279,2.732.224,3.231-.891A2.9,2.9,0,0,0,71.1,25.3a2.071,2.071,0,0,1,.124-2.269c.679-.688,1.788-.435,2.744-.632A3.759,3.759,0,0,0,76.7,19.162a4.846,4.846,0,0,0-1.472-3.744" transform="translate(140.53 1373.693)" fill="#93d700"/>
    <path id="Trazado_423" data-name="Trazado 423" d="M78.043,27.282H76.194l-.867,9.977a.472.472,0,0,1-.457.444H72.253a.477.477,0,0,1-.461-.51l.423-9.911H70.367l-.22,9.943a.475.475,0,0,1-.461.478H67.068a.475.475,0,0,1-.461-.478l-.218-9.943H64.537l.423,9.911a.477.477,0,0,1-.461.51H61.884a.472.472,0,0,1-.457-.444l-.867-9.977H58.71l1.126,10.485V37.9a1.6,1.6,0,0,0,1.553,1.646H75.352A1.6,1.6,0,0,0,76.905,37.9v-.017Z" transform="translate(138.718 1382.92)" fill="#5b4f51"/>
    <rect id="Rectángulo_33" data-name="Rectángulo 33" width="97.615" height="7.768" transform="translate(135.427 1402.751)" fill="#ccd1c3"/>
    <rect id="Rectángulo_34" data-name="Rectángulo 34" width="97.615" height="1.807" transform="translate(135.427 1402.753)" fill="#e7e9e3"/>
    <rect id="Rectángulo_35" data-name="Rectángulo 35" width="97.615" height="2.954" transform="translate(135.427 1467.16)" fill="#524547"/>
    <path id="Trazado_424" data-name="Trazado 424" d="M101.526,106.153H24.455a7.574,7.574,0,0,1-7.567-7.565V22.958a7.574,7.574,0,0,1,7.567-7.565H47.672a7.574,7.574,0,0,1,7.567,7.565v21.98h2.994V22.958A10.574,10.574,0,0,0,47.672,12.4H24.455A10.573,10.573,0,0,0,13.894,22.958v75.63a10.572,10.572,0,0,0,10.561,10.559h77.071a2.9,2.9,0,0,1,2.893,2.893v4.424h2.994V112.04a5.894,5.894,0,0,0-5.887-5.887" transform="translate(107.636 1372.597)" fill="#7f7577"/>
    <path id="Trazado_425" data-name="Trazado 425" d="M95.228,87.4,90.174,74.821a4.483,4.483,0,0,0-4.159-2.81H70.631a4.481,4.481,0,0,0-4.158,2.81L61.418,87.4Z" transform="translate(123.596 1400.941)" fill="#524547"/>
    <path id="Trazado_426" data-name="Trazado 426" d="M94.515,84.3H62.131a.712.712,0,0,1-.713-.713V81.1h33.81v2.489a.713.713,0,0,1-.713.713" transform="translate(123.596 1407.243)" fill="#7f7577"/>
    <path id="Trazado_427" data-name="Trazado 427" d="M42.154,38.3a2.131,2.131,0,1,1-4.263,0c0-1.177,2.13-4.263,2.13-4.263s2.132,3.086,2.132,4.263" transform="translate(124.279 1387.604)" fill="#7dcef1"/>
    <path id="Trazado_428" data-name="Trazado 428" d="M42.154,44.677a2.131,2.131,0,1,1-4.263,0c0-1.177,2.13-4.263,2.13-4.263s2.132,3.086,2.132,4.263" transform="translate(124.279 1392.028)" fill="#7dcef1"/>
    <rect id="Rectángulo_36" data-name="Rectángulo 36" width="151" height="151" transform="translate(98 1364)" fill="none"/>
  </g>
</svg>
